<svg width="360" height="422" fill="none" xmlns="http://www.w3.org/2000/svg"><path d="M73.34 362.908a125.286 125.286 0 0023.054-17.59 221.44 221.44 0 0021.825-22.947 89.589 89.589 0 007.183-9.793 169.569 169.569 0 008.571-17.09c6.509-13.866 12.053-28.19 19.389-41.645a238.7 238.7 0 0155.352-67.084 309.196 309.196 0 0170.103-44.097c24.022-11.091 49.645-20.062 70.855-36.36a321.997 321.997 0 007.745-6.216 1.042 1.042 0 011.476.006 1.042 1.042 0 01-.004 1.475 126.372 126.372 0 01-32.263 22.197c-11.866 6.16-24.215 11.311-36.435 16.702a331.596 331.596 0 00-72.101 41.914 245.27 245.27 0 00-58.481 64.846 395.662 395.662 0 00-20.301 40.92c-4.801 10.504-9.394 21.627-16.533 30.881a196.414 196.414 0 01-20.366 22.263 173.081 173.081 0 01-23.527 19.275 134.748 134.748 0 01-5.152 3.166c-.426.219-.823-.475-.372-.68l-.018-.143z" fill="#250704"/><path d="M318.59 127.09c-5.548 4.83-11.152 9.527-16.251 14.847a155.407 155.407 0 00-14.243 17.3 153.247 153.247 0 00-20.014 39.559 146.584 146.584 0 00-5.9 24.441c-.154 1.073-1.805.651-1.651-.422a151.947 151.947 0 0138.516-79.725 111.545 111.545 0 0118.861-16.891.572.572 0 01.779.121.58.58 0 01.12.407.58.58 0 01-.192.378l-.025-.015z" fill="#250704"/><path d="M261.233 222.059c-.383-12.867-.101-26.08 4.176-38.381a83.015 83.015 0 0122.64-32.765 104.168 104.168 0 0117.464-13.782.49.49 0 01.561.756c-4.907 4.237-10.267 7.879-15.088 12.199a102.478 102.478 0 00-13.504 14.408 72.645 72.645 0 00-14.433 36.11c-.798 7.14-1.043 14.3-1.441 21.439-.115.199-.376.248-.375.016z" fill="#250704"/><path d="M261.148 221.976a101.421 101.421 0 0112.511-31.112c3.104-5.377 6.718-10.427 9.583-15.908 2.866-5.482 5.221-11.059 7.795-16.61a109.876 109.876 0 0110.02-18.046c.474-.821 1.845-.029 1.296.749-6.965 9.819-11.046 21.204-16.312 31.938a158.774 158.774 0 01-9.069 15.708 131.078 131.078 0 00-8.522 15.624 171.698 171.698 0 00-6.707 17.835.256.256 0 01-.157.12.257.257 0 01-.317-.183.258.258 0 01.025-.196l-.146.081z" fill="#250704"/><path d="M261.205 222.972a32.86 32.86 0 015.203-10.97c2.874-4.978 6.122-9.741 9.336-14.789 3.214-5.048 6.403-10.111 9.243-15.375a104.68 104.68 0 007.238-17.893c1.391-4.308 2.746-8.671 4.365-12.914.76-1.95 1.546-3.887 2.445-5.79a21.194 21.194 0 013.435-5.95.408.408 0 01.551-.147.404.404 0 01.147.55 43.93 43.93 0 01-2.41 4.981 62.645 62.645 0 00-2.654 6.036c-1.535 3.926-2.817 7.932-4.1 11.938a116.598 116.598 0 01-6.963 17.819c-5.39 10.43-12.166 20.093-18.404 30.033-2.564 4.096-4.829 8.365-7.186 12.447a.166.166 0 01-.105.08.172.172 0 01-.211-.122.172.172 0 01.017-.131l.053.197zm34.073-76.98a25.11 25.11 0 00-5.972 4.584 69.096 69.096 0 01-6.164 4.573 124.565 124.565 0 00-13.631 9.39 70.582 70.582 0 00-11.246 13.72 1449.373 1449.373 0 00-10.352 15.398 93.282 93.282 0 00-10.781 18.27l-1.348-.545a13.437 13.437 0 014.886-4.548c2.813-1.993 5.445-4.191 8.052-6.403a84.238 84.238 0 0016.973-17.883c.46-.796 1.756-.048 1.246.72a81.657 81.657 0 01-16.234 17.18c-2.554 2.177-5.086 4.432-7.806 6.38a16.072 16.072 0 00-5.916 5.181c-.403.697-1.625.223-1.347-.546a81.88 81.88 0 019.206-16.292c3.537-5.492 7.238-10.923 10.924-16.329a87.069 87.069 0 0111.238-14.455 85.114 85.114 0 0113.654-9.775 66.243 66.243 0 007.917-5.651 11.493 11.493 0 016.408-3.902c.493-.047.718.714.268.918l.025.015zm-115.754-44.958c20.508-.573 40.445 4.797 60.17 10.245 18.877 5.189 37.928 10.48 57.581 11.504a98.754 98.754 0 0032.062-3.196c1.508-.423 2.191 1.963.609 2.343-39.052 11.043-77.841-6.871-115.398-15.577a178.15 178.15 0 00-35.047-4.934.204.204 0 01-.1-.078.207.207 0 01-.032-.123.198.198 0 01.155-.184z" fill="#250704"/><path d="M179.524 101.034c13.906 2.917 26.627 9.731 40.362 13.346a210.877 210.877 0 0041.405 6.646c7.819.564 15.642.833 23.487.948a.777.777 0 01.012 1.534 344.993 344.993 0 01-41.594-2.806 175.528 175.528 0 01-40.68-10.609c-7.674-3.003-15.261-6.155-23.086-8.781a.173.173 0 01.061-.257.172.172 0 01.097-.017l-.064-.004z" fill="#250704"/><path d="M178.403 101.018a54.044 54.044 0 0118.858-2.953 102.64 102.64 0 0119.208 1.564 175.87 175.87 0 0141.236 13.618 115.354 115.354 0 0023.54 8.513c1.006.215.604 1.775-.416 1.585a96.663 96.663 0 01-19.631-6.82c-6.746-2.999-13.423-6.057-20.41-8.465a122.713 122.713 0 00-40.86-8.455c-7.221.148-14.423.792-21.556 1.926-.174-.101-.324-.187-.041-.389l.072-.124z" fill="#250704"/><path d="M179.351 101.333c6.917 3.163 13.563 6.967 20.436 10.205a166.33 166.33 0 0021.234 8.476 103.316 103.316 0 0022.281 4.533c7.725.509 15.473.549 23.201.119l27.654-1.26c1.021-.041 1.029 1.557.008 1.598l-25.293 1.029c-7.894.481-15.808.543-23.709.186a122.395 122.395 0 01-43.158-12.305 197.142 197.142 0 01-22.941-12.083.285.285 0 01-.134-.175.286.286 0 01.421-.323z" fill="#250704"/><path d="M292.516 124.118a410.516 410.516 0 00-39.62 14.731 155.359 155.359 0 01-18.425 6.522c-6.446 1.722-13.063 2.647-19.596 3.887a130.408 130.408 0 00-21.872 6.158c-.858.335-1.47-1.081-.608-1.479a32.384 32.384 0 007.748-6.281 60.734 60.734 0 016.995-5.553 73.093 73.093 0 0116.594-8.243 177.748 177.748 0 0139.442-7.631c8.256-.942 16.498-1.859 24.628-3.505 1.2-.236 1.686 1.571.486 1.807-26.113 5.27-55.067 3.257-78.391 17.804a57.19 57.19 0 00-8.628 6.536 34.448 34.448 0 01-8.134 6.489l-.619-1.519a132.891 132.891 0 0119.314-5.644c6.502-1.357 13.188-2.343 19.614-3.744 13.283-3.085 25.771-9.284 38.522-14.269a105.186 105.186 0 0122.161-7.12c.586-.094.822.707.257.878l.132.176zm-35.378 31.452c-7.629 4.922-17.393 6.288-26.294 7.023-10.105.805-20.406.798-30.458.936s-20.731-.02-31.084.408a169.394 169.394 0 00-30.796 3.363c-11.403 2.477-21.002 8.452-30.72 14.459l-.957-1.681c13.745-7.167 29.265-8.197 44.497-8.729a420.153 420.153 0 0051.444-4.12 250.27 250.27 0 0028.051-6.209c1.115-.318 1.569 1.371.465 1.729a223.98 223.98 0 01-49.885 8.904c-8.319.706-16.648 1.142-24.97 1.449-8.321.307-15.65.391-23.399 1.26a65.081 65.081 0 00-25.246 7.397.976.976 0 01-1.201-.43.976.976 0 01.244-1.251 109.964 109.964 0 0126.533-13.425 131.683 131.683 0 0129.988-4.326c20.708-1.321 41.371-.145 62.03-1.095a118.132 118.132 0 0016.058-1.616 88.83 88.83 0 0015.463-4.615c.357-.158.573.331.237.569z" fill="#250704"/><path d="M106.774 181.44a33.097 33.097 0 018.43-10.168 63.162 63.162 0 0110.756-7.863 64.755 64.755 0 0124.171-8.183c17.049-2.239 34.182 1.712 50.945 4.055a136.923 136.923 0 0028.432 1.711c1.074-.076 1.054 1.571.018 1.637-33.029 2.339-67.532-15.457-99.206.31a66.363 66.363 0 00-12.678 8.313c-3.824 3.169-6.844 7.134-10.626 10.46a.169.169 0 01-.105.08.172.172 0 01-.212-.122.172.172 0 01.018-.131l.057-.099z" fill="#250704"/><path d="M106.929 181.862a11.735 11.735 0 018.206-2.698c4.045-.154 8.142-.111 12.197.006 8.216.163 16.438.662 24.663.465a175.059 175.059 0 0046.451-8.198c8.391-2.557 16.726-5.478 25.09-8.449.922-.331 1.312 1.123.39 1.453a315.004 315.004 0 01-44.268 13.341 154.187 154.187 0 01-22.203 3.047c-8.062.49-16.167.192-24.207-.103-4.569-.148-9.123-.321-13.674-.326-4.022.001-8.783-.391-12.24 2.027-.336.237-.673-.388-.429-.58l.024.015z" fill="#250704"/><path d="M173.709 178.298a48.057 48.057 0 00-18.968 18.92c-3.99 7.256-6.586 15.15-9.81 22.748l-.872-.504a130.781 130.781 0 0114.622-15.422c5.11-4.418 10.497-8.51 15.86-12.616a319.154 319.154 0 0130.734-22.085.82.82 0 011.192.935.819.819 0 01-.387.492 323.068 323.068 0 00-30.859 22.013c-5.545 4.134-11 8.286-16.067 12.629a140.258 140.258 0 00-14.409 14.65c-.301.523-1.048-.141-.872-.504 3.588-7.885 6.029-16.201 10.231-23.766a39.963 39.963 0 0119.406-17.605l.174.1.025.015zm59.5 136.347c-5.892-19.333-15.275-37.396-20.302-56.96a126.166 126.166 0 01-3.938-48.741 103.563 103.563 0 018.239-28.434c.547-.946 1.903-.129 1.471.85a108.622 108.622 0 00-8.263 49.894 179.493 179.493 0 0012.514 51.103 325.435 325.435 0 0111.386 32.098c.169.628-.799.866-.983.262l-.124-.072z" fill="#250704"/><path d="M232.735 312.413a154.334 154.334 0 01-20.924-37.571 101.135 101.135 0 01-5.552-40.014c.547-8.778 1.761-17.503 2.769-26.215.082-.948 1.592-.973 1.47-.014-1.653 14.38-3.857 28.906-2.27 43.43a107.4 107.4 0 0012.722 39.342c3.835 7.06 8.189 13.855 12.239 20.774.188.307-.301.522-.454.268z" fill="#250704"/><path d="M233.552 314.511c-.756-13.546-4.901-26.461-9.465-39.053a327.823 327.823 0 01-11.781-39.993 216.545 216.545 0 01-2.057-10.946 115.988 115.988 0 01-1.718-11.878c-.065-.867 1.353-1.078 1.521-.217.743 3.549.99 7.209 1.522 10.836.533 3.626 1.029 6.568 1.673 9.827 1.389 7.44 3.375 14.595 5.436 21.792 1.849 6.412 3.742 12.749 5.896 19.037 2.153 6.288 4.115 12.333 5.955 18.474a90.613 90.613 0 013.399 22.209s-.143.249-.224-.13l-.157.042z" fill="#250704"/><path d="M233.28 314.521a76.75 76.75 0 00-.905-20.139c-.982-5.38-2.433-10.698-3.676-16.029a206.854 206.854 0 00-5.834-21.391c-2.26-6.449-5.285-12.61-7.584-19.049-1.214-3.655-2.535-7.471-3.716-11.24a60.584 60.584 0 01-2.662-10.531c-.031-.35.559-.508.693-.165a74.623 74.623 0 012.968 8.85c1.058 3.465 2.101 6.955 3.252 10.374 2.234 6.667 5.212 12.967 7.55 19.627a191.485 191.485 0 015.926 21.345c1.261 5.474 2.729 10.935 3.793 16.462a74.02 74.02 0 011.063 21.822c-.07.524-.884.552-.839.014l-.029.05z" fill="#250704"/><path d="M209.298 216.436c-4.29 12.094-9.186 23.971-10.905 36.852-.839 6.519-1.153 13.109-1.417 19.727s-.676 12.687-.486 19.036a150.2 150.2 0 002.224 21.597l-.807.132c.53-5.237.818-10.514 1.427-15.772a79.44 79.44 0 013.24-15.056 62.608 62.608 0 003.515-13.803c.397-4.948.273-9.8.856-14.84.078-.884 1.485-.902 1.406-.018-.507 4.852-.447 9.699-.826 14.559a53.52 53.52 0 01-3.18 13.166 81.621 81.621 0 00-3.798 15.099c-.767 5.532-1.381 11.086-1.916 16.618-.051.435-.719.614-.807.132a172.828 172.828 0 01-2.314-38.311c.463-13.009 1.234-26.205 5.344-38.735a179.826 179.826 0 018.102-20.481c.129-.224.521-.097.399.23l-.057-.132zm-156.784 46.26a104.125 104.125 0 0123.805-16.128 133.23 133.23 0 0124.029-8.398c16.636-4.401 33.821-6.76 50.378-11.141a194.347 194.347 0 0014.387-4.306c4.725-1.62 9.281-3.869 14.045-5.5.987-.326 1.506 1.135.676 1.652a57.52 57.52 0 01-11.935 5.356 359.561 359.561 0 01-12.28 3.996c-8.415 2.311-16.977 4.072-25.522 5.744-16.449 3.215-33.303 5.865-48.862 12.316a112.026 112.026 0 00-28.272 16.668c-.158.274-.65-.142-.377-.383l-.072.124z" fill="#250704"/><path d="M52.016 262.408a89.289 89.289 0 0114.457-13.525 67.603 67.603 0 0115.168-9 115.98 115.98 0 0134.339-7.657c7.42-.761 14.957-1.321 22.32-1.983 1.232-.118 1.235 1.776.028 1.909-23.831 2.239-48.973 2.028-69.084 16.538a128.708 128.708 0 00-16.55 14.442c-.397.401-.941-.211-.593-.641l-.085-.083z" fill="#250704"/><path d="M51.911 262.647c5.805-2.225 12.021-3.548 17.939-5.276 5.8-1.679 11.495-3.7 17.056-6.051 10.965-4.656 21.888-9.468 32.93-13.913a195.428 195.428 0 0119.015-6.679c1.061-.284 1.48 1.352.444 1.65a285.22 285.22 0 00-33.665 12.593 314.583 314.583 0 01-33.142 13.127 191.287 191.287 0 01-20.408 5.177.323.323 0 01-.399-.23.326.326 0 01.23-.398z" fill="#250704"/><path d="M52.265 262.552c6.135-.839 12.319-1.185 18.433-2.103A120.328 120.328 0 0088.8 256.33a91.953 91.953 0 0017.114-7.246c6.199-3.424 12.004-7.375 18.341-10.52a160.472 160.472 0 0121.258-9.069c.84-.245 1.406 1.078.583 1.466-6.34 2.978-13.056 5.34-19.524 8.31-6.468 2.97-12.308 6.867-18.461 10.384a104.632 104.632 0 01-35 11.855 93.38 93.38 0 01-20.794 1.47c-.175-.1-.298-.404-.052-.428zm100.829-35.882a75.718 75.718 0 01-9.356 1.236 42.844 42.844 0 01-9.021-.727c-6.307-1.052-12.36-3.12-18.518-4.717a133.721 133.721 0 00-36.136-4.832 84.372 84.372 0 00-20.268 2.803l-.204-1.546c12.88-.43 24.65 5.437 37 8.518a124.705 124.705 0 0040.168 2.513c1.01-.081 1.008 1.478.023 1.573a126.185 126.185 0 01-39.444-2.328c-12.564-2.939-24.623-9.171-37.764-8.692a.797.797 0 01-.304-.02.797.797 0 01-.474-.364.771.771 0 01-.078-.591.78.78 0 01.651-.571 93.359 93.359 0 0135.22-1.87 146.464 146.464 0 0117.185 3.283c6.101 1.465 12.083 3.426 18.171 4.915a47.284 47.284 0 0010.777 1.543 81.48 81.48 0 0012.04-1.048c.65-.089.964.922.275 1.022l.057-.1zm23.774 141.743a147.3 147.3 0 00-4.448-23.213c-2.085-7.444-4.871-14.595-7.585-21.87a167.397 167.397 0 01-9.626-43.495 214.717 214.717 0 01-.862-26.719.69.69 0 011.367-.007 259.705 259.705 0 003.919 46.24c3.077 15.053 8.805 29.313 13.036 44.037a125.688 125.688 0 014.524 24.982s-.143.249-.224-.129l-.101.174z" fill="#250704"/><path d="M176.292 368.777c-1.255-5.138-2.263-10.301-4-15.353s-3.792-9.956-5.765-14.945a126.985 126.985 0 01-8.864-30.708c-.83-6.219-1.087-12.5-.768-18.765.032-.977 1.542-1.001 1.51-.024-.57 11.15.696 22.319 3.747 33.064 2.878 10.158 7.59 19.616 11.082 29.632a51.279 51.279 0 013.901 17.022.489.489 0 01-.936.123l.093-.046z" fill="#250704"/><path d="M176.749 366.95c-.619-7.161-1.184-14.358-1.985-21.492a81.336 81.336 0 00-4.274-20.291c-2.382-6.354-5.636-12.348-8.072-18.667a134.528 134.528 0 01-3.273-9.357 68.023 68.023 0 01-2.706-10.226.804.804 0 011.18-.849.808.808 0 01.378.454c1.144 3.316 1.866 6.787 2.917 10.148 1.051 3.362 2.259 6.681 3.56 9.955 2.454 6.229 5.543 12.394 7.868 18.616a76.807 76.807 0 013.874 19.429c.697 7.372 1.161 14.743 1.172 22.151-.008.361-.522.329-.567.005l-.072.124z" fill="#250704"/><path d="M176.353 367.983c-4.302-12.01-13.773-21.228-18.668-33.016a73.366 73.366 0 01-4.276-35.029c.64-6.866 2.701-13.775 2.224-20.721-.026-.646.934-.755 1.118-.152 1.538 5.8-.714 12.234-1.393 18.016a94.261 94.261 0 00-.439 18.034 65.943 65.943 0 003.677 17.756 82.804 82.804 0 008.97 16.762 68.889 68.889 0 019.325 18.395s-.187.324-.339.07l-.199-.115z" fill="#250704"/><path d="M154.081 300.559a51.992 51.992 0 01-4.522 16.872c-2.505 5.49-5.598 10.675-7.953 16.251a38.828 38.828 0 00-3.259 17.735 96.415 96.415 0 003.127 17.04l-1.261.168a100.06 100.06 0 015.744-24.63c2.971-7.91 6.686-15.324 8.128-23.752.125-.791 1.455-.62 1.395.175-.612 8.143-4.885 15.6-7.84 23.022a92.967 92.967 0 00-6.238 25.141c-.053.667-1.06.915-1.261.169a100.261 100.261 0 01-3.32-16.82 38.362 38.362 0 012.406-16.833c2.162-5.589 5.216-10.762 7.881-16.127a71.73 71.73 0 006.324-18.554c.144-.249.569-.236.525.071l.124.072zM73.484 362.89c5.992-7.327 14.083-12.878 21.09-19.255 3.86-3.579 7.199-7.692 10.915-11.422a82.809 82.809 0 0013.671-16.137 160.924 160.924 0 0115.042-19.661c.416-.722 1.451.307.935.972a153.082 153.082 0 00-14.216 18.345 74.203 74.203 0 01-12.566 15.547c-3.973 3.946-7.595 8.261-11.629 12.139-3.69 3.512-7.596 6.766-11.399 10.014-3.803 3.247-7.884 6.401-11.45 9.985-.157.274-.534-.11-.326-.355l-.067-.172z" fill="#250704"/><path d="M73.147 363.128c8.652-4.796 17.386-9.445 25.724-15.019a82.236 82.236 0 0012.173-9.568 80.912 80.912 0 0012.918-17.999 104.53 104.53 0 005.731-10.963c1.793-4.143 2.987-8.399 4.388-12.668a.61.61 0 011.181.316 83.273 83.273 0 01-8.354 21.033 98.001 98.001 0 01-12.374 18.612 107.05 107.05 0 01-26.942 19.66 99.747 99.747 0 01-14.265 7.032c-.25.088-.449-.259-.18-.436z" fill="#250704"/><path d="M73.66 362.296a51.84 51.84 0 005.964-9.235c1.265-2.191 2.694-4.32 4.172-6.421 3.323-4.719 6.92-9.28 10.668-13.755a188.439 188.439 0 0124.372-24.596c2.983-2.46 5.955-4.959 8.781-7.609 2.827-2.65 5.368-5.497 8.041-8.169a.58.58 0 01.829.81c-8.385 9.398-18.692 16.657-27.56 25.51a227.923 227.923 0 00-23.595 27.568 120.3 120.3 0 00-4.685 7.02 43.84 43.84 0 01-6.67 9.193.23.23 0 01-.374-.216l.057-.1z" fill="#250704"/><path d="M79.153 356.871c3.832-6.119 9.593-10.858 14.286-16.28 3.772-4.461 7.345-9.268 11.121-13.793a132.225 132.225 0 0113.569-14.636c2.668-2.376 5.518-4.547 8.246-6.855a89.168 89.168 0 007.782-7.722.55.55 0 01.897.29.542.542 0 01-.046.367c-2.989 5.178-8.486 8.941-13.066 12.67a114.932 114.932 0 00-13.91 14.074 574.23 574.23 0 00-12.697 15.372 96.093 96.093 0 01-7.304 7.699 92.83 92.83 0 00-8.729 8.9l-.15-.086zm51.481-58.366a44.641 44.641 0 01-15.35 8.164 157.614 157.614 0 01-18.357 5.367 160.577 160.577 0 00-19.081 5.413 54.018 54.018 0 00-16.419 11.165l-.778-1.013a67.298 67.298 0 0113.403-5.538 85.563 85.563 0 0115-2.26 55.433 55.433 0 0028.217-10.527c.755-.559 1.79.469 1.035 1.029a55.314 55.314 0 01-26.026 10.531c-5.496.71-11.036.864-16.459 2.081a48.077 48.077 0 00-14.464 5.822c-.63.4-1.247-.488-.753-.999a48.043 48.043 0 0114.923-10.934 121.896 121.896 0 0118.643-5.633c6.374-1.597 12.779-3.077 19.001-5.16a69.7 69.7 0 008.995-3.603c2.735-1.341 5.287-3.054 8.037-4.42.304-.124.573.331.384.487l.049.028zm9.949-66.114a123.757 123.757 0 01-10.517 15.569 90.142 90.142 0 01-12.23 13.351c-4.426 3.751-9.632 6.089-14.352 9.371a66.049 66.049 0 00-12.65 13.275c-.23.398-.978-.034-.823-.475a61.456 61.456 0 0119.567-28.134c2.195-1.786 4.531-3.358 6.847-5.008a47.275 47.275 0 007.029-6.762 58.364 58.364 0 0114.022-10.757c.601-.35.997.576.514.895a90.798 90.798 0 00-14.142 11.251 40.847 40.847 0 01-5.772 5.795c-2.323 1.779-4.828 3.353-7.14 5.171a56.456 56.456 0 00-20.002 27.85l-.92-.365a53.244 53.244 0 0111.697-13.062c4.628-3.468 10.08-5.598 14.602-9.227 9.774-7.833 16.869-18.739 23.747-29.04a.374.374 0 01.623.36l-.1-.058zm178.906-105.246a136.004 136.004 0 00-17.25 72.254l-1.407.018c-.041-4.937 2.702-9.228 4.55-13.637a103.413 103.413 0 005.706-16.62c2.465-10.028 2.997-20.276 5.023-30.291a42.748 42.748 0 015.196-14.757.748.748 0 111.296.748c-5.724 10.835-6.11 23.423-7.997 35.212a103.712 103.712 0 01-5.438 20.359c-1.208 3.186-2.566 6.286-4.037 9.353a21.62 21.62 0 00-2.967 9.572.706.706 0 01-.425.654.69.69 0 01-.538.007.701.701 0 01-.443-.643 136.749 136.749 0 013.642-37.228 119.018 119.018 0 0114.216-35.505.55.55 0 01.908.173c.045.115.05.241.015.359l-.05-.028z" fill="#250704"/></svg>