<svg width="350" height="293" fill="none" xmlns="http://www.w3.org/2000/svg"><path d="M307.16 99.36a355.358 355.358 0 00-133.462 4.718 289.094 289.094 0 00-60.679 21.252 194.181 194.181 0 00-51.77 36.727c-17.152 16.926-31.468 36.365-46.009 55.508-1.026 1.311-3.383.038-2.332-1.367a465.539 465.539 0 0140.687-51.132 197.227 197.227 0 0150.923-38.978c39.223-20.49 83.326-30.869 127.323-33.045a306.093 306.093 0 0175.532 5.396c.598.16.338 1.002-.245.913l.032.008z" fill="#231F20"/><path d="M306.636 98.546a94.982 94.982 0 0117.608-2.77c2.854-.094 5.708.16 8.5.76a15.512 15.512 0 017.619 3.29 5.258 5.258 0 011.503 1.939 5.252 5.252 0 01-1.922 6.55c-4.185 3.027-8.815 1.551-13.087-.134-3.346-1.234-6.585-2.742-9.832-4.22-3.247-1.477-7.16-2.863-10.608-4.596-.756-.203-.169-1.26.517-1.177a29.308 29.308 0 017.473 2.576c2.574 1.094 5.075 2.338 7.623 3.527a75.72 75.72 0 008.031 3.264 11.427 11.427 0 006.279.738c3.594-.824 6.18-4.179 3.134-7.289a14.142 14.142 0 00-7.313-3.174 39.686 39.686 0 00-7.859-.757 119.33 119.33 0 00-17.423 2.078c-.378-.101-.646-.611-.186-.69l-.057.085zM89.94 136.182c-5.008-5.356-5.844-13.946-5.86-20.933-.166-7.566.84-17.113 5.852-23.225 3.365-4.125 10.691-8.3 14.711-2.535 3.351 4.743-.515 11.871-2.387 16.463-1.871 4.592-4.037 9.78-6.276 14.611a54.094 54.094 0 00-5.066 15.509c-.186.692-1.178.494-1.207-.155-.468-7.445 4.205-14.559 7.113-21.133 1.848-4.126 3.538-8.295 5.197-12.472a29.672 29.672 0 002.198-7.068 5.832 5.832 0 00-3.277-6.781c-3.071-1.127-6.397 1.085-8.502 3.152-5.432 5.291-6.66 14.408-6.847 21.778a41.77 41.77 0 004.972 22.483.326.326 0 01-.512.403l-.11-.097z" fill="#231F20"/><path d="M97.728 98.43a57.017 57.017 0 00-6.867 18.198 62.134 62.134 0 00-.15 19.322c.068.625-.898.704-1.055.156-3.637-12.612.57-27.305 7.516-37.993a.326.326 0 11.598.16l-.042.158zM58.35 161.922c-5.046-6.345-5.671-15.721-5.785-23.476-.12-8.365.023-17.839 4.314-25.291a15.869 15.869 0 018.053-7.017 6.516 6.516 0 018.413 2.592 14.075 14.075 0 01.411 8.914 81.45 81.45 0 01-3.63 11.407c-3.904 10.794-9.384 21.301-10.945 32.79-.185.693-1.178.494-1.206-.155-.404-8.44 4.419-16.491 7.25-24.166 1.776-4.483 3.475-9.188 5.067-13.619a40.601 40.601 0 002.184-8.152c.434-3.257.306-8.317-4.099-8.621a11.93 11.93 0 00-9.456 5.832c-4.451 6.667-4.815 15.577-4.81 23.235a53.179 53.179 0 004.752 25.325c.184.319-.194.723-.513.402z" fill="#231F20"/><path d="M63.546 118.99a86.726 86.726 0 00-5.3 23.305 81.44 81.44 0 00.038 9.928c.114 1.717.258 3.443.506 5.162a21.2 21.2 0 01.566 3.93.746.746 0 01-.554.693.746.746 0 01-.827-.322 20.883 20.883 0 01-1.48-8.829c-.169-3.659-.1-7.325.208-10.975a70.48 70.48 0 016.24-23.29c.085-.314.627-.068.536.144l.067.254zm-29.95 69.728c-7.863-4.771-11.412-15.066-13.633-23.521-2.222-8.455-3.62-17.836.714-25.58 2.609-4.699 11.599-12.443 16.539-6.329 3.761 4.718 2.663 12.216 1.836 17.695-.994 6.48-2.024 12.715-3.347 19.039a55.393 55.393 0 00-1.322 18.401c.083.697-.985.782-1.188.154-2.687-8.478.903-17.973 2.403-26.342.892-5.091 1.904-10.25 2.472-15.394a27.6 27.6 0 00-.232-7.821c-.427-2.307-1.347-5.421-3.942-6.184-3.871-1.037-8.546 2.939-10.64 5.718-5.188 6.773-4.077 16.347-2.31 24.107 2.133 9.409 5.671 18.993 13.062 25.527.304.25-.186.692-.412.53z" fill="#231F20"/><path d="M30.349 144.94a67.443 67.443 0 00-1.364 22.336 64.176 64.176 0 001.998 10.925c.919 3.62 2.519 6.713 3.663 10.123.24.739-.793 1.07-1.147.503a34.187 34.187 0 01-3.848-9.937 66.68 66.68 0 01-2.008-11.265 63.08 63.08 0 012.076-22.854.327.327 0 01.597-.079.327.327 0 01.033.248zm11.088 37.176a44.863 44.863 0 0023.492 13.041c7.018 1.881 15.28 3.15 22.107-.047 4.4-2.194 13.178-11.412 6.393-15.423-5.198-3.012-12.298-1.44-17.798-.552-5.5.887-11.987 2.185-17.983 3.412a33.635 33.635 0 01-16.747.438.62.62 0 01.312-1.165c6.254.63 12.571.153 18.66-1.409 6.196-1.342 12.44-2.367 18.7-3.321 5.278-.812 12.162-1.7 16.767 1.76 5.884 4.477-.117 13.023-4.579 16.078-6.543 4.656-15.322 4.058-22.788 2.462-9.568-2.058-21.747-5.827-26.914-14.869-.193-.288.185-.693.504-.371l-.126-.034z" fill="#231F20"/><path d="M84.231 186.566a59.723 59.723 0 01-22.504 2.032 62.484 62.484 0 01-10.614-1.933 34.412 34.412 0 01-10.246-4.061c-.539-.381-.23-1.411.32-1.196 3.089 1.064 6.24 2.65 9.519 3.63a60.354 60.354 0 0011.369 2.135 64.923 64.923 0 0022.01-1.321c.405-.127.568.524.172.62l-.026.094zM68.277 153.45a40.698 40.698 0 0018.148 14.982c5.991 2.82 13.147 5.446 19.784 3.716 4.35-1.128 13.652-8.148 7.642-12.66-4.441-3.315-10.921-2.926-16.057-3.02-5.135-.095-10.433.038-15.66.155a28.738 28.738 0 01-14.407-2.376.59.59 0 01-.415-.719.587.587 0 01.718-.414 49.096 49.096 0 0016.031 1.732c5.575-.16 11.09-.098 16.644.074 4.953.147 11.55.329 15.134 4.325 4.5 4.984-2.44 11.625-6.993 13.508-6.545 2.902-14.084.949-20.394-1.686-7.974-3.351-17.931-8.617-21.056-17.347-.113-.334.42-.562.604-.243l.277-.027z" fill="#231F20"/><path d="M105.014 164.272a53.797 53.797 0 01-20.093-1.808 57.825 57.825 0 01-9.18-3.506 28.76 28.76 0 01-8.205-5.133.651.651 0 01.776-1.006c2.71 1.468 5.136 3.366 7.903 4.748a53.716 53.716 0 009.344 3.651 56.485 56.485 0 0019.309 2.34c.409.11.44.624.02.68l.126.034zm-4.901-33.326a36.956 36.956 0 0016.193 13.211c5.238 2.483 11.53 4.81 17.394 3.446 3.817-.9 12.528-7.1 7.214-11.189-3.908-3.037-9.819-2.631-14.401-2.779-4.581-.148-9.604.091-14.411.153a24.901 24.901 0 01-12.578-2.156.62.62 0 01.312-1.165 46.647 46.647 0 0014.904 1.531c5.03-.136 10.134-.051 15.118.104 4.251.127 9.999.453 13.027 4.132 3.639 4.55-2.537 10.351-6.596 12.029-5.876 2.541-12.619.768-18.279-1.525-7.127-2.989-16.152-7.701-18.802-15.562-.136-.374.42-.562.605-.243l.3.013z" fill="#231F20"/><path d="M133.089 140.693a47.326 47.326 0 01-18.028-1.457 48.929 48.929 0 01-8.175-3.102 25.44 25.44 0 01-7.36-4.637.65.65 0 01.776-1.006c2.421 1.289 4.589 3.017 7.058 4.252a48.276 48.276 0 008.33 3.278 52.121 52.121 0 0017.368 2.157c.409.11.409.616-.16.598l.191-.083zm16.145-31.802a34.86 34.86 0 0012.1 14.138c5.192 3.786 11.467 7.559 18.226 7.515 4.861-.013 11.027-3.387 8.221-9.03a9.771 9.771 0 00-5.796-4.555 81.61 81.61 0 00-11.086-2.06c-4.012-.636-8.068-.981-12.081-1.618a21.985 21.985 0 01-10.259-3.761c-.585-.46.321-1.196.736-.983 7.827 3.649 16.549 3.827 24.895 5.287 5.697 1.021 13.258 1.63 15.473 8.093 1.734 4.985-2.353 8.781-6.789 9.852-7.138 1.461-14.28-1.971-19.978-5.758-5.698-3.786-12.897-9.527-14.244-16.837.084-.315.469-.616.613-.274l-.031-.009z" fill="#231F20"/><path d="M180.366 123.507a47.385 47.385 0 01-17.429-4.197 51.16 51.16 0 01-7.915-4.449 24.946 24.946 0 01-6.559-5.738c-.339-.495.329-1.227.868-.846 2.319 1.667 4.252 3.77 6.611 5.414a52.156 52.156 0 007.178 4.183 50.964 50.964 0 0017.234 4.922c.409.109.454.695.02.68l-.008.031zm14.421-25.247a38.586 38.586 0 0011.714 19.23c5.359 5.18 13.831 11.329 21.438 6.857a5.575 5.575 0 002.858-6.385 9.773 9.773 0 00-4.476-4.573 60.349 60.349 0 00-12.205-5.058c-3.237-1.137-6.522-2.22-9.743-3.42a23.722 23.722 0 01-10.298-6.133c-.411-.481.143-1.412.767-.975a72.924 72.924 0 0021.095 9.397 42.523 42.523 0 0113.778 6.491 7.045 7.045 0 013.088 5.839 7.041 7.041 0 01-3.11 5.827c-6.817 4.92-15.243.739-20.833-3.828a53.947 53.947 0 01-9.689-10.422 22.157 22.157 0 01-4.852-12.736c.093-.346.561-.457.634-.1l-.166-.01z" fill="#231F20"/><path d="M222.291 118.989a48.08 48.08 0 01-16.309-7.743 53.823 53.823 0 01-6.535-5.698 26.722 26.722 0 01-5.438-7.023c-.243-.605.371-1.385 1.016-.774 1.824 2.007 3.28 4.252 5.038 6.376a52.666 52.666 0 006.806 6.074 51.944 51.944 0 0015.568 8.119c.409.109.232.77-.177.66l.031.009zm13.885-24.749a34.304 34.304 0 009.216 15.962c4.475 4.572 10.556 9.575 17.401 9.081a8.764 8.764 0 006.489-2.815c1.516-2.259.071-5.176-1.545-6.823-3.606-3.665-9.244-4.906-14.003-6.282-2.989-.801-5.903-1.886-8.826-2.939a21.567 21.567 0 01-9.579-5.67c-.402-.512.143-1.412.768-.975a64.5 64.5 0 0020.18 8.781c4.973 1.332 11.231 3.279 14.076 8.022a6.513 6.513 0 01.441 6.662 8.927 8.927 0 01-6.026 3.479c-6.812 1.379-12.884-2.271-17.859-6.742-4.975-4.47-11.676-12.067-11.587-19.7.092-.347.56-.458.633-.1l.221.058z" fill="#231F20"/><path d="M261.486 113.333a43.784 43.784 0 01-15.227-7.251 47.452 47.452 0 01-6.191-5.47 22.434 22.434 0 01-4.723-6.292c-.243-.605.649-1.04 1.077-.622 1.7 1.838 2.933 4.159 4.699 5.88a44.725 44.725 0 006.203 5.676 47.844 47.844 0 0014.314 7.513.325.325 0 01.079.597.325.325 0 01-.248.032l.017-.063zm18.345-17.853a33.2 33.2 0 007.642 15.54c3.779 4.656 9.281 10.684 15.808 10.746 5.033.101 11.068-5.299 7.476-10.275-3.591-4.977-9.915-4.917-14.854-6.376a83.23 83.23 0 01-8.818-3.475 19.552 19.552 0 01-8.099-5.78c-.448-.592.47-1.122.969-.719a50.06 50.06 0 0019.548 9.253c5.004 1.34 12.109 2.772 13.807 8.523 1.517 5.163-3.67 9.541-8.307 10.356-6.548 1.147-12.683-4.41-16.678-8.888-4.406-4.958-9.634-11.756-9.034-18.78.093-.347.569-.489.634-.1l-.094-.026z" fill="#231F20"/><path d="M304.098 115.947a43.653 43.653 0 01-14.552-7.879 45.193 45.193 0 01-6.05-5.872 22.816 22.816 0 01-4.497-6.635.654.654 0 011.078-.622c1.635 1.955 2.839 4.133 4.44 6.215a47.062 47.062 0 005.635 5.659 47.85 47.85 0 0014.115 8.505c.409.11.232.771-.169.629zm-164.491-4.238c-2.531-6.919.035-15.238 2.666-21.785a43.276 43.276 0 0113.289-17.995c4.286-3.405 10.809-3.58 13.289 2.144 3.044 7.023-3.832 12.163-8.165 16.5-6.945 6.91-15.075 12.827-20.229 21.364a.617.617 0 01-.706.305.618.618 0 01-.459-.617c2.21-6.357 8.228-10.817 13.035-15.162 2.952-2.582 5.752-5.475 8.588-8.257 2.837-2.782 5.837-4.913 6.716-8.32a7.06 7.06 0 00.032-3.948 7.079 7.079 0 00-2.09-3.35 6.518 6.518 0 00-7.936.032 38.612 38.612 0 00-13.188 16.234 41.61 41.61 0 00-4.259 22.944.338.338 0 01-.037.254.338.338 0 01-.461.115.34.34 0 01-.153-.206l.068-.252z" fill="#231F20"/><path d="M157.126 81.828a54.582 54.582 0 00-10.393 13.609 55.245 55.245 0 00-3.565 8.017c-.946 2.648-1.459 5.445-2.499 8.067-.126.473-.861.444-.85-.227a23.7 23.7 0 011.872-8.37 49.725 49.725 0 013.725-8.11 48.88 48.88 0 0111.537-13.471c.216-.179.535.143.31.352l-.137.133zM187.85 99.1c-2.63-7.18.218-15.795 2.972-22.546 2.753-6.75 6.41-14.103 12.835-17.812a9.774 9.774 0 0113.387 2.406c3.775 6.308-3.145 11.74-7.005 15.698-3.861 3.958-7.538 7.358-11.463 10.927a52.587 52.587 0 00-9.845 11.564.616.616 0 01-.706.306.621.621 0 01-.458-.618c2.316-6.632 8.723-11.156 13.741-15.782 3.211-2.918 6.226-5.989 9.179-9.077a16.1 16.1 0 005.794-8.027c.979-6.046-6.024-8.361-10.663-6.534-6.096 2.482-9.95 9.815-12.578 15.722a43.524 43.524 0 00-4.539 23.61.337.337 0 01-.244.408.335.335 0 01-.407-.244z" fill="#231F20"/><path d="M208.466 67.856A74.543 74.543 0 00196.271 82.4a55.397 55.397 0 00-4.339 8.012c-1.242 2.872-1.888 6.038-3.27 8.805a.591.591 0 01-.637.237.582.582 0 01-.433-.524 23.182 23.182 0 012.577-8.485 55.865 55.865 0 014.827-8.826 65.78 65.78 0 0113.175-14.044c.265-.233.692.185.396.41l-.101-.129zm20.201 25.956c-1.268-6.85 2.846-14.147 6.488-19.682a28.898 28.898 0 0113.439-12.388c4.277-1.485 11.343-1.042 12.277 4.538.968 6.331-6.451 9.977-10.697 12.853-7.037 4.861-14.847 8.705-20.668 15.073-.475.513-1.228-.33-.944-.76 2.798-5.153 8.901-8.038 13.637-10.985 2.938-1.777 5.762-3.752 8.608-5.688a22.124 22.124 0 007.616-6.393 5.115 5.115 0 00-.112-6 8.088 8.088 0 00-7.555-1.519c-5.781 1.184-10.094 6.2-13.317 10.802a39.097 39.097 0 00-8.013 20.083c-.092.346-.6.48-.665.091l-.094-.025z" fill="#231F20"/><path d="M250.926 70.16a54.977 54.977 0 00-11.982 9.844 122.08 122.08 0 00-9.34 12.575.49.49 0 01-.814-.488 47.315 47.315 0 019.23-13.043 40.703 40.703 0 0112.604-9.273.213.213 0 01.158-.02.201.201 0 01.125.096c.014.024.023.05.026.077a.2.2 0 01-.041.153.204.204 0 01-.06.053l.094.026zm22.254 24.583c-.327-6.834 4.411-13.188 8.522-17.956 4.111-4.768 8.974-9.57 15.138-10.921 4.482-.992 12.338.405 12.262 6.355a8.734 8.734 0 01-4.226 6.458 69.986 69.986 0 01-9.966 5.088c-7.205 3.601-14.835 6.145-21.023 11.233-.481.41-1.412-.142-.952-.727 3.309-4.544 9.224-6.603 14.153-8.757 3.089-1.33 6.086-2.822 9.083-4.312a44.72 44.72 0 008.296-4.524c2.435-1.911 4.411-5.26 1.634-7.86a10.136 10.136 0 00-7.428-1.99c-5.842.526-10.794 5.034-14.571 9.183a39.097 39.097 0 00-10.311 18.59c-.101.378-.644.266-.629-.168l.018.308z" fill="#231F20"/><path d="M299.76 74.103a50.273 50.273 0 00-14.477 7.826 52.746 52.746 0 00-5.81 5.19c-1.843 1.969-3.304 4.275-5.053 6.27-.483.545-1.133-.304-.92-.72a24.998 24.998 0 014.957-6.666 42.652 42.652 0 016.234-5.514 44.183 44.183 0 0115.026-7.106c.365-.105.49.435.148.58l-.105.14zm34.856 30.928a49.325 49.325 0 00-13.376-3.584 92.456 92.456 0 00-7.271-.936 62.63 62.63 0 01-6.573-.648c-.346-.093-.383-.71.005-.775a29.318 29.318 0 016.976.15 87.18 87.18 0 017.058.979c4.69.66 9.267 1.966 13.6 3.881.65.343.089 1.305-.562.962l.143-.029z" fill="#231F20"/></svg>