<svg width="351" height="293" fill="none" xmlns="http://www.w3.org/2000/svg"><path d="M43.008 99.36a355.357 355.357 0 01133.462 4.718 289.094 289.094 0 0160.679 21.252 194.181 194.181 0 0151.77 36.727c17.151 16.926 31.468 36.365 46.008 55.508 1.026 1.311 3.384.038 2.333-1.367a465.575 465.575 0 00-40.687-51.132 197.228 197.228 0 00-50.923-38.978c-39.223-20.49-83.326-30.869-127.323-33.045a306.089 306.089 0 00-75.532 5.396c-.598.16-.339 1.002.245.913l-.032.008z" fill="#231F20"/><path d="M43.532 98.546a94.98 94.98 0 00-17.609-2.77 34.997 34.997 0 00-8.5.76 15.51 15.51 0 00-7.618 3.29 5.248 5.248 0 00-1.267 6.706 5.24 5.24 0 001.686 1.783c4.185 3.027 8.815 1.551 13.086-.134 3.347-1.234 6.585-2.742 9.833-4.22 3.247-1.477 7.16-2.863 10.608-4.596.756-.203.169-1.26-.518-1.177a29.315 29.315 0 00-7.473 2.576c-2.574 1.094-5.074 2.338-7.623 3.527a75.644 75.644 0 01-8.03 3.264 11.427 11.427 0 01-6.28.738c-3.593-.824-6.179-4.179-3.133-7.289a14.138 14.138 0 017.313-3.174 39.686 39.686 0 017.86-.757c5.85.264 11.673.959 17.422 2.078.378-.101.646-.611.186-.69l.057.085zm216.696 37.636c5.008-5.356 5.844-13.946 5.86-20.933.165-7.566-.841-17.113-5.852-23.225-3.365-4.125-10.691-8.3-14.712-2.535-3.35 4.743.516 11.871 2.388 16.463 1.871 4.592 4.037 9.78 6.276 14.611a54.103 54.103 0 015.066 15.509c.186.692 1.178.494 1.207-.155.467-7.445-4.205-14.559-7.113-21.133-1.848-4.126-3.538-8.295-5.197-12.472a29.626 29.626 0 01-2.198-7.068 5.834 5.834 0 013.277-6.781c3.071-1.127 6.396 1.086 8.502 3.153 5.432 5.29 6.66 14.407 6.847 21.777a41.767 41.767 0 01-4.972 22.483.326.326 0 10.512.403l.109-.097z" fill="#231F20"/><path d="M252.44 98.43a57.002 57.002 0 016.866 18.198 62.14 62.14 0 01.152 19.322c-.069.625.897.704 1.053.156 3.637-12.612-.57-27.305-7.515-37.993a.322.322 0 00-.12-.271.327.327 0 00-.51.137.324.324 0 00.032.294l.042.158zm39.378 63.492c5.046-6.345 5.671-15.721 5.785-23.476.12-8.365-.023-17.839-4.314-25.291a15.868 15.868 0 00-8.053-7.017 6.518 6.518 0 00-8.413 2.592 14.073 14.073 0 00-.412 8.914 81.53 81.53 0 003.63 11.407c3.905 10.794 9.385 21.301 10.945 32.79.186.693 1.178.494 1.207-.155.403-8.44-4.419-16.491-7.251-24.166-1.775-4.483-3.474-9.188-5.066-13.619a40.557 40.557 0 01-2.185-8.152c-.434-3.257-.305-8.317 4.1-8.621a11.926 11.926 0 019.456 5.832c4.451 6.667 4.814 15.577 4.809 23.235a53.18 53.18 0 01-4.751 25.325c-.184.319.194.723.513.402z" fill="#231F20"/><path d="M286.622 118.99a86.722 86.722 0 015.3 23.305 81.602 81.602 0 01-.038 9.928c-.114 1.717-.259 3.443-.506 5.162a21.27 21.27 0 00-.567 3.93.75.75 0 001.382.371 20.89 20.89 0 001.48-8.829 84.277 84.277 0 00-.209-10.975 70.493 70.493 0 00-6.24-23.29c-.085-.314-.626-.068-.535.144l-.067.254zm29.95 69.728c7.863-4.771 11.412-15.066 13.633-23.521 2.221-8.455 3.62-17.836-.715-25.58-2.608-4.699-11.598-12.443-16.538-6.329-3.762 4.718-2.663 12.216-1.836 17.695.994 6.48 2.024 12.715 3.347 19.039a55.372 55.372 0 011.321 18.401c-.083.697.986.782 1.189.154 2.686-8.478-.903-17.973-2.404-26.342-.891-5.091-1.903-10.25-2.472-15.394a27.63 27.63 0 01.232-7.821c.428-2.307 1.348-5.421 3.943-6.184 3.871-1.037 8.546 2.939 10.64 5.718 5.188 6.773 4.076 16.347 2.31 24.107-2.134 9.409-5.671 18.993-13.062 25.527-.304.25.185.692.412.53z" fill="#231F20"/><path d="M319.819 144.94a67.459 67.459 0 011.364 22.336 64.206 64.206 0 01-1.998 10.925c-.919 3.62-2.519 6.713-3.663 10.123-.24.739.793 1.07 1.147.503a34.212 34.212 0 003.848-9.937 66.718 66.718 0 002.007-11.265 63.072 63.072 0 00-2.075-22.854.325.325 0 10-.63.169zm-11.088 37.176a44.865 44.865 0 01-23.492 13.041c-7.018 1.881-15.28 3.15-22.107-.047-4.4-2.194-13.178-11.412-6.393-15.423 5.198-3.012 12.298-1.44 17.798-.552 5.5.887 11.987 2.185 17.983 3.412a33.634 33.634 0 0016.747.438.624.624 0 00.306-.706.618.618 0 00-.618-.459 53.511 53.511 0 01-18.66-1.409c-6.196-1.342-12.441-2.367-18.701-3.321-5.278-.812-12.161-1.7-16.766 1.76-5.884 4.477.117 13.023 4.578 16.078 6.544 4.656 15.323 4.058 22.788 2.462 9.569-2.058 21.748-5.827 26.915-14.869.193-.288-.185-.693-.504-.371l.126-.034z" fill="#231F20"/><path d="M265.937 186.566a59.718 59.718 0 0022.504 2.032 62.494 62.494 0 0010.614-1.933 34.415 34.415 0 0010.246-4.061c.539-.381.229-1.411-.321-1.196-3.088 1.064-6.239 2.65-9.518 3.63a60.366 60.366 0 01-11.369 2.135 64.92 64.92 0 01-22.01-1.321c-.406-.127-.569.524-.172.62l.026.094zm15.953-33.116a40.696 40.696 0 01-18.147 14.982c-5.991 2.82-13.148 5.446-19.784 3.716-4.35-1.128-13.652-8.148-7.643-12.66 4.442-3.315 10.922-2.926 16.057-3.02 5.136-.095 10.434.038 15.66.155a28.74 28.74 0 0014.408-2.376.588.588 0 00-.303-1.133 49.101 49.101 0 01-16.032 1.732c-5.574-.16-11.09-.098-16.643.074-4.954.147-11.55.329-15.134 4.325-4.501 4.984 2.44 11.625 6.992 13.508 6.546 2.902 14.085.949 20.395-1.686 7.974-3.351 17.931-8.617 21.056-17.347.113-.334-.42-.562-.605-.243l-.277-.027z" fill="#231F20"/><path d="M245.154 164.272c6.751.67 13.569.056 20.092-1.808a57.83 57.83 0 009.181-3.506 28.754 28.754 0 008.204-5.133.649.649 0 00.014-.812.648.648 0 00-.789-.194c-2.71 1.468-5.136 3.366-7.903 4.748a53.707 53.707 0 01-9.344 3.651 56.486 56.486 0 01-19.309 2.34c-.409.11-.44.624-.02.68l-.126.034zm4.901-33.326a36.953 36.953 0 01-16.194 13.211c-5.238 2.483-11.529 4.81-17.393 3.446-3.817-.9-12.528-7.1-7.215-11.189 3.909-3.037 9.82-2.631 14.402-2.779 4.581-.148 9.604.091 14.411.153a24.906 24.906 0 0012.578-2.156.617.617 0 00.305-.706.618.618 0 00-.617-.459 46.658 46.658 0 01-14.905 1.531c-5.029-.136-10.133-.051-15.118.104-4.25.127-9.998.453-13.027 4.132-3.638 4.55 2.538 10.351 6.597 12.029 5.875 2.541 12.619.768 18.279-1.525 7.126-2.989 16.152-7.701 18.802-15.562.136-.374-.421-.562-.605-.243l-.3.013z" fill="#231F20"/><path d="M217.079 140.693a47.32 47.32 0 0018.027-1.457 48.906 48.906 0 008.176-3.102 25.443 25.443 0 007.359-4.637.649.649 0 00.014-.812.648.648 0 00-.789-.194c-2.421 1.289-4.589 3.017-7.058 4.252a48.286 48.286 0 01-8.331 3.278 52.112 52.112 0 01-17.367 2.157c-.409.11-.409.616.16.598l-.191-.083zm-16.145-31.802a34.86 34.86 0 01-12.1 14.138c-5.192 3.786-11.467 7.559-18.226 7.515-4.861-.013-11.027-3.387-8.221-9.03a9.772 9.772 0 015.795-4.555 81.666 81.666 0 0111.086-2.06c4.013-.636 8.069-.981 12.082-1.618a21.978 21.978 0 0010.258-3.761c.586-.46-.32-1.196-.735-.983-7.827 3.649-16.549 3.827-24.895 5.287-5.697 1.021-13.259 1.63-15.474 8.093-1.734 4.985 2.353 8.781 6.789 9.852 7.138 1.461 14.281-1.971 19.979-5.758 5.698-3.786 12.897-9.527 14.244-16.837-.085-.315-.469-.616-.613-.274l.031-.009z" fill="#231F20"/><path d="M169.802 123.507a47.376 47.376 0 0017.428-4.197 51.217 51.217 0 007.916-4.449 24.926 24.926 0 006.558-5.738c.34-.495-.328-1.227-.867-.846-2.32 1.667-4.252 3.77-6.612 5.414a52.086 52.086 0 01-7.177 4.183 50.97 50.97 0 01-17.234 4.922c-.409.109-.455.695-.02.68l.008.031zM155.38 98.26a38.579 38.579 0 01-11.714 19.23c-5.358 5.18-13.83 11.329-21.438 6.857a5.569 5.569 0 01-2.857-6.385 9.77 9.77 0 014.475-4.573 60.372 60.372 0 0112.205-5.058c3.237-1.137 6.523-2.22 9.743-3.42a23.722 23.722 0 0010.298-6.133c.411-.481-.142-1.412-.767-.975a72.924 72.924 0 01-21.095 9.397 42.518 42.518 0 00-13.777 6.491 7.035 7.035 0 00-2.259 9.14 7.034 7.034 0 002.281 2.526c6.817 4.92 15.243.739 20.833-3.828a53.942 53.942 0 009.688-10.422 22.15 22.15 0 004.852-12.736c-.092-.346-.56-.457-.634-.1l.166-.01z" fill="#231F20"/><path d="M127.876 118.989a48.076 48.076 0 0016.31-7.743 53.899 53.899 0 006.535-5.698 26.722 26.722 0 005.438-7.023c.243-.605-.371-1.385-1.017-.774-1.823 2.007-3.279 4.252-5.038 6.376a52.724 52.724 0 01-6.805 6.074 51.944 51.944 0 01-15.568 8.119c-.41.109-.232.77.177.66l-.032.009zM113.992 94.24a34.321 34.321 0 01-9.216 15.962c-4.476 4.572-10.556 9.575-17.401 9.081a8.766 8.766 0 01-6.49-2.815c-1.515-2.259-.07-5.176 1.546-6.823 3.606-3.665 9.244-4.906 14.002-6.282 2.99-.801 5.904-1.886 8.827-2.939a21.559 21.559 0 009.578-5.67c.403-.512-.142-1.412-.767-.975a64.498 64.498 0 01-20.18 8.781c-4.973 1.332-11.232 3.279-14.076 8.022a6.513 6.513 0 00-.441 6.662 8.93 8.93 0 006.025 3.479c6.813 1.379 12.885-2.271 17.86-6.742 4.975-4.47 11.676-12.067 11.587-19.7-.092-.347-.561-.458-.634-.1l-.22.058z" fill="#231F20"/><path d="M88.681 113.333a43.773 43.773 0 0015.227-7.251 47.46 47.46 0 006.192-5.47 22.472 22.472 0 004.723-6.292c.243-.605-.65-1.04-1.077-.622-1.7 1.838-2.934 4.159-4.699 5.88a44.676 44.676 0 01-6.204 5.676 47.833 47.833 0 01-14.313 7.513.326.326 0 10.168.629l-.017-.063zM70.337 95.48a33.204 33.204 0 01-7.642 15.54c-3.779 4.656-9.281 10.684-15.809 10.746-5.033.101-11.067-5.299-7.475-10.275 3.591-4.977 9.915-4.917 14.854-6.376a83.229 83.229 0 008.817-3.475 19.553 19.553 0 008.1-5.78c.448-.592-.47-1.122-.97-.719a50.057 50.057 0 01-19.547 9.253c-5.005 1.34-12.11 2.772-13.807 8.523-1.518 5.163 3.67 9.541 8.307 10.356 6.548 1.147 12.682-4.41 16.678-8.888 4.405-4.958 9.634-11.756 9.034-18.78-.093-.347-.57-.489-.634-.1l.094-.026z" fill="#231F20"/><path d="M46.07 115.947a43.648 43.648 0 0014.552-7.879 45.195 45.195 0 006.05-5.872 22.806 22.806 0 004.496-6.635.652.652 0 00-1.077-.623c-1.635 1.956-2.84 4.134-4.44 6.216a47.01 47.01 0 01-5.635 5.659 47.837 47.837 0 01-14.115 8.505c-.41.11-.233.771.168.629zm164.491-4.238c2.531-6.919-.035-15.238-2.667-21.785a43.265 43.265 0 00-13.288-17.995c-4.286-3.405-10.809-3.58-13.29 2.144-3.043 7.023 3.833 12.163 8.166 16.5 6.945 6.91 15.075 12.827 20.229 21.364a.617.617 0 00.706.305.618.618 0 00.459-.617c-2.21-6.357-8.228-10.817-13.036-15.162-2.952-2.582-5.751-5.475-8.588-8.257-2.836-2.782-5.836-4.913-6.716-8.32a7.07 7.07 0 012.059-7.298 6.518 6.518 0 017.936.032 38.612 38.612 0 0113.188 16.234 41.609 41.609 0 014.258 22.944.338.338 0 00.244.407.337.337 0 00.407-.244l-.067-.252z" fill="#231F20"/><path d="M193.041 81.828a54.586 54.586 0 0110.394 13.609 55.245 55.245 0 013.565 8.017c.945 2.648 1.459 5.445 2.499 8.067.126.473.861.444.849-.227a23.677 23.677 0 00-1.871-8.37 49.81 49.81 0 00-3.725-8.11 48.88 48.88 0 00-11.537-13.471c-.216-.179-.535.143-.31.352l.136.133zM162.318 99.1c2.629-7.18-.219-15.795-2.972-22.546-2.753-6.75-6.41-14.103-12.835-17.812a9.774 9.774 0 00-13.388 2.406c-3.774 6.308 3.146 11.74 7.006 15.698 3.86 3.958 7.538 7.358 11.463 10.927a52.583 52.583 0 019.844 11.564.62.62 0 001.165-.312c-2.317-6.632-8.724-11.156-13.741-15.782-3.211-2.918-6.226-5.989-9.179-9.077-2.727-2-4.754-4.81-5.794-8.027-.979-6.046 6.024-8.361 10.663-6.534 6.096 2.482 9.95 9.815 12.578 15.722a43.524 43.524 0 014.539 23.61.333.333 0 00.038.255.336.336 0 00.613-.091z" fill="#231F20"/><path d="M141.701 67.856A74.508 74.508 0 01153.896 82.4a55.403 55.403 0 014.34 8.012c1.242 2.872 1.888 6.038 3.27 8.805a.582.582 0 00.637.237.59.59 0 00.433-.524 23.22 23.22 0 00-2.577-8.485 55.87 55.87 0 00-4.828-8.826 65.776 65.776 0 00-13.174-14.044c-.265-.233-.693.185-.396.41l.1-.129zm-20.2 25.956c1.268-6.85-2.846-14.147-6.488-19.682a28.903 28.903 0 00-13.439-12.388C97.297 60.257 90.23 60.7 89.297 66.28c-.969 6.331 6.451 9.977 10.696 12.853 7.037 4.861 14.848 8.705 20.669 15.073.475.513 1.227-.33.944-.76-2.798-5.153-8.901-8.038-13.637-10.985-2.939-1.777-5.762-3.752-8.608-5.688a22.123 22.123 0 01-7.616-6.393 5.115 5.115 0 01.112-6 8.082 8.082 0 017.554-1.519c5.782 1.184 10.095 6.2 13.318 10.802a39.104 39.104 0 018.012 20.083c.093.346.601.48.666.091l.094-.025z" fill="#231F20"/><path d="M99.242 70.16a54.943 54.943 0 0111.981 9.844c3.38 3.987 6.5 8.188 9.341 12.575a.487.487 0 00.802-.17.483.483 0 00.011-.318 47.29 47.29 0 00-9.229-13.043 40.699 40.699 0 00-12.605-9.273.208.208 0 00-.283.076.205.205 0 00-.02.157.207.207 0 00.096.126l-.094.026zM76.987 94.743c.328-6.834-4.41-13.188-8.521-17.956-4.112-4.768-8.974-9.57-15.138-10.921-4.482-.992-12.339.405-12.262 6.355a8.732 8.732 0 004.226 6.458 70.009 70.009 0 009.965 5.088C62.463 87.368 70.093 89.912 76.28 95c.481.41 1.413-.142.952-.727-3.309-4.544-9.224-6.603-14.152-8.757-3.09-1.33-6.086-2.822-9.083-4.312a44.701 44.701 0 01-8.296-4.524c-2.435-1.911-4.412-5.26-1.634-7.86a10.133 10.133 0 017.428-1.99c5.842.526 10.794 5.034 14.57 9.183a39.1 39.1 0 0110.311 18.59c.102.378.645.266.63-.168l-.019.308z" fill="#231F20"/><path d="M50.408 74.103a50.276 50.276 0 0114.477 7.826 52.778 52.778 0 015.81 5.19c1.842 1.969 3.304 4.275 5.053 6.27.483.545 1.133-.304.92-.72a25.024 25.024 0 00-4.957-6.666 42.692 42.692 0 00-6.234-5.514 44.183 44.183 0 00-15.026-7.106c-.365-.105-.49.435-.148.58l.105.14zm-34.856 30.928a49.322 49.322 0 0113.375-3.584 92.43 92.43 0 017.272-.936c2.2-.1 4.395-.317 6.573-.648.346-.093.383-.71-.005-.775a29.322 29.322 0 00-6.977.15c-2.367.229-4.74.561-7.057.979a51.337 51.337 0 00-13.6 3.881c-.65.343-.089 1.305.561.962l-.143-.029z" fill="#231F20"/></svg>