<svg width="267" height="383" fill="none" xmlns="http://www.w3.org/2000/svg"><path d="M197.343 328.112c-21.036-40.745-47.902-78.055-72.323-117.02a551.844 551.844 0 01-32.979-59.322 431.257 431.257 0 01-24.39-67.658c-3.605-13.145-6.802-26.414-9.78-39.746-2.979-13.331-6.27-26.663-8.089-40.151-.188-1.468 1.881-2.155 2.289-.625 3.135 11.709 5.298 23.792 7.9 35.656 2.602 11.864 5.392 23.791 8.464 35.562a463.01 463.01 0 0023.042 68.688c18.182 41.681 43.888 79.335 68.403 117.551a647.232 647.232 0 0138.246 66.846c.251.5-.501.968-.783.437v-.218z" fill="#250704"/><path d="M50.911.968a58.798 58.798 0 0019.154 20.076 181.949 181.949 0 0122.728 17.859 165.647 165.647 0 0117.775 21.324 235.846 235.846 0 0115.173 23.822 117.773 117.773 0 0111.662 29.474 1.092 1.092 0 01-1.377 1.268 1.097 1.097 0 01-.598-.425 139.973 139.973 0 00-18.809-21.45 4202.495 4202.495 0 01-21.757-21.324c-6.928-6.9-13.981-13.769-20.408-21.169a92.948 92.948 0 01-14.483-21.855A231.224 231.224 0 0149.438 1.592C48.936.062 51.256-.5 51.82.937c3.135 8.18 5.925 16.516 9.593 24.509a94.67 94.67 0 0014.107 22.48c6.27 7.243 12.947 13.987 19.656 20.762s14.264 14.237 21.474 21.325a159.683 159.683 0 0120.722 23.354l-1.944.812c-4.326-18.734-14.358-35.281-25.079-50.799a173.226 173.226 0 00-18.057-22.198 187.95 187.95 0 00-22.948-18.359c-7.774-5.807-15.141-12.489-18.966-21.45-.188-.436.564-.749.784-.312L50.91.968zM9.593 131.132a380.565 380.565 0 0025.079-37.466A141.608 141.608 0 0052.51 52.609a103.374 103.374 0 001.818-25.633 1.121 1.121 0 01.986-1.134 1.133 1.133 0 011.24.853 55.977 55.977 0 01-.377 22.386 99.31 99.31 0 01-7.053 22.074 251.855 251.855 0 01-23.23 39.683 247.194 247.194 0 01-15.674 20.731c-.251.312-.815 0-.565-.437h-.062z" fill="#250704"/><path d="M34.233 134.004c1.787-10.771 3.887-21.449 5.925-32.158a135.558 135.558 0 001.818-15.08c.314-3.81.408-9.586 3.637-12.177a.66.66 0 011.128.468 35.868 35.868 0 01-1.285 6.245 55.336 55.336 0 00-.815 7.18 94.746 94.746 0 01-2.006 14.488c-2.383 10.459-4.828 20.919-7.524 31.222a.452.452 0 01-.878-.219v.031zm133.077 17.36a138.688 138.688 0 01-42.541-8.617c-13.292-4.808-27.21-10.928-37.619-20.7a50.385 50.385 0 01-13.825-18.39c-.658-1.842 2.289-2.592 2.947-.781a47.433 47.433 0 0012.007 16.048 73.552 73.552 0 0016.772 12.083 164.266 164.266 0 0038.622 15.393 140.826 140.826 0 0023.637 3.746c.69 0 .69 1.093 0 1.062v.156z" fill="#250704"/><path d="M140.945 172.47c-19.906-11.583-39.405-24.978-53.293-43.461a99.209 99.209 0 01-5.36-7.681 32.49 32.49 0 01-4.296-8.273c-.282-.968 1.13-1.936 1.819-1.031 2.1 2.685 3.48 5.932 5.33 8.805 1.849 2.872 3.855 5.745 5.987 8.461a137.303 137.303 0 0014.358 15.611 278.35 278.35 0 0035.988 27.069.373.373 0 01-.13.617.377.377 0 01-.246.008l-.157-.125zm-57.337-41.463a282.496 282.496 0 0111.223 39.09 156.596 156.596 0 013.981 37.81 328.048 328.048 0 01-7.398 56.2 211.854 211.854 0 01-7.806 29.661c-.407 1.092-2.194.999-2.132-.281.753-19.545-.439-39.184-1.442-58.698-1.191-22.323-2.32-44.553-1.38-66.908a378.111 378.111 0 013.888-41.775c0-.906 1.693-.687 1.599.218a576.05 576.05 0 00-3.668 75.339c.564 20.044 2.132 40.026 2.822 60.071.376 10.522.626 21.075.219 31.628l-2.132-.281a192.019 192.019 0 006.96-25.353c2.163-9.897 3.887-19.857 5.33-29.879 1.316-8.961 2.382-17.953 2.82-26.976.51-11.9-.416-23.819-2.758-35.499a266.769 266.769 0 00-5.173-22.137c-2.038-7.305-4.326-14.58-6.082-21.855a.531.531 0 01.377-.656.54.54 0 01.658.375l.094-.094zm36.333 65.972c4.233 9.367 16.333 12.489 25.08 15.611 9.749 3.341 19.718 5.901 29.625 8.68a200.022 200.022 0 0128.747 10.053 88.826 88.826 0 0123.386 15.611 93.178 93.178 0 0118.809 23.386.9.9 0 01-.126 1.123.912.912 0 01-1.128.125c-14.389-9.366-31.349-13.675-47.681-19.014a150.428 150.428 0 01-23.606-9.679 140.005 140.005 0 01-21.694-15.08c-7.931-6.463-15.674-13.394-23.261-20.075-1.128-.968.502-2.561 1.599-1.593 13.794 11.646 26.772 24.697 42.572 33.751 14.985 8.555 32.039 12.489 48.152 18.296a114.089 114.089 0 0124.86 11.802l-1.254 1.249a91.036 91.036 0 00-40.754-38.028c-19.091-8.805-40.033-12.302-59.751-19.358-8.841-3.122-20.565-6.619-24.327-16.235-.188-.5.658-.875.909-.375l-.157-.25zm1.944 130.976a198.207 198.207 0 008.402-91.761 246.785 246.785 0 00-5.424-25.633 1.03 1.03 0 01.759-1.111 1.032 1.032 0 011.216.58 169.32 169.32 0 017.399 46.271 196.694 196.694 0 01-4.17 45.959 184.843 184.843 0 01-7.524 25.852c-.156.405-.783.218-.658-.188v.031z" fill="#250704"/><path d="M97.746 320.4c5.8-8.211 13.324-14.862 19.907-22.417a62.413 62.413 0 008.903-12.677 58.721 58.721 0 003.511-8.461 72.084 72.084 0 012.696-8.055c.282-.562 1.348-.312 1.286.343a41.33 41.33 0 01-2.32 8.181 67.344 67.344 0 01-3.135 7.899 58.325 58.325 0 01-8.464 12.489c-6.897 7.961-15.142 14.736-21.569 23.135-.313.406-1.034 0-.72-.437h-.094z" fill="#250704"/><path d="M133.767 334.98a100.367 100.367 0 00-2.195-59.665c-.313-.843 1.035-1.217 1.317-.374a93.309 93.309 0 011.41 60.196.283.283 0 01-.487.03.275.275 0 01-.045-.187zm121.728-14.518a187.736 187.736 0 01-19.969-3.122 91.089 91.089 0 01-18.183-6.432c-6.082-2.841-11.944-6.244-17.743-9.522a159.208 159.208 0 01-16.929-11.084 69.374 69.374 0 01-15.267-14.518c-.345-.5.408-.968.815-.593 4.702 3.933 8.809 8.523 13.637 12.488a144.02 144.02 0 0016.333 11.084 146.767 146.767 0 0034.86 16.548 157.08 157.08 0 0022.446 4.215c.596 0 .627 1.03 0 .968v-.032z" fill="#250704"/><path d="M247.877 296.609a157.416 157.416 0 01-28.371 3.403c-8.903.374-18.997.374-27.399-3.122-.972-.406-.627-1.936.47-1.655a86.611 86.611 0 0013.512 2.841c4.585.406 9.192.531 13.793.375 9.405-.281 18.622-1.499 27.964-1.998v.249l.031-.093zm-79.878-19.264a171.599 171.599 0 0111.913 23.291 78.559 78.559 0 014.702 18.733c1.913 13.925 1.881 28.1 2.477 42.025a131.36 131.36 0 001.975 20.451.927.927 0 01-.092.618.944.944 0 01-1.089.462.946.946 0 01-.512-.362 93.263 93.263 0 01-6.27-12.864c-2.633-6.244-4.953-12.77-7.053-19.295a189.227 189.227 0 01-9.405-44.647 139.165 139.165 0 012.195-28.1c0-.874 1.504-.874 1.379 0a157.913 157.913 0 00-2.32 25.196 124.365 124.365 0 003.135 21.855 258.7 258.7 0 0012.884 42.025 101.143 101.143 0 007.054 14.893l-1.693.718c-2.508-12.301-2.226-25.165-2.602-37.654-.407-13.456-.752-27.319-4.859-40.089a174.079 174.079 0 00-12.54-26.757.511.511 0 01-.048-.382.5.5 0 01.62-.353.513.513 0 01.177.087.513.513 0 01.129.149h-.157zm42.635 80.053c-3.134-6.588-6.269-13.051-9.404-19.576-1.662-3.435-3.135-6.869-4.922-10.304a43.043 43.043 0 01-3.919-8.992.472.472 0 01.266-.541.473.473 0 01.581.167 55.007 55.007 0 014.326 8.96c1.599 3.466 3.135 6.932 4.89 10.366a434.01 434.01 0 018.872 19.514c.188.468-.47.905-.69.406z" fill="#250704"/><path d="M234.71 363.049a170.446 170.446 0 01-21.411-18.733 308.546 308.546 0 01-10.063-11.302 98.484 98.484 0 01-9.781-12.489.466.466 0 01.443-.745.472.472 0 01.31.183c3.636 3.684 6.551 8.211 9.874 12.176 3.323 3.966 6.521 7.65 9.969 11.303a182.097 182.097 0 0021.004 19.014c.251.187 0 .624-.345.437v.156zM34.358 134.13a6.294 6.294 0 00-3.588-.22 6.275 6.275 0 00-3.12 1.781 6.221 6.221 0 00-1.41 6.9 6.816 6.816 0 005.643 3.715 5.503 5.503 0 003.076-.874 5.472 5.472 0 002.064-2.435 6.005 6.005 0 00.46-4.186 6.025 6.025 0 00-2.403-3.464c-.878-.593 0-1.998.846-1.405a7.409 7.409 0 012.91 3.769 7.373 7.373 0 01.006 4.755 7.274 7.274 0 01-2.24 3.435 7.326 7.326 0 01-3.748 1.685 7.896 7.896 0 01-4.118-.846 7.856 7.856 0 01-3.093-2.838 6.971 6.971 0 01.565-8.211 7.423 7.423 0 013.699-2.623 5.619 5.619 0 014.64.531.252.252 0 11-.188.468v.063zm106.682 38.527a6.224 6.224 0 001.191 6.651 6.295 6.295 0 006.803 1.842 6.76 6.76 0 002.831-2.197 6.735 6.735 0 001.307-3.329 5.452 5.452 0 00-.764-3.1 5.483 5.483 0 00-2.371-2.146 6.107 6.107 0 00-4.173-.614 6.09 6.09 0 00-3.571 2.238c-.595.843-2.037 0-1.41-.843a7.582 7.582 0 013.576-2.614 7.604 7.604 0 018.205 2.147 7.543 7.543 0 011.824 4.026 7.849 7.849 0 01-1.015 4.101 7.888 7.888 0 01-2.997 2.987 7.118 7.118 0 01-4.269.818 7.092 7.092 0 01-3.945-1.818 7.396 7.396 0 01-2.414-3.777 5.486 5.486 0 01.721-4.528c0-.218.565 0 .471.188v-.032zM121.603 327.55a6.283 6.283 0 00-6.834 0 6.228 6.228 0 00-3.135 6.244 6.676 6.676 0 001.647 3.137 6.715 6.715 0 003.024 1.859 5.45 5.45 0 003.118-.14 5.424 5.424 0 002.525-1.827 6.041 6.041 0 000-7.962c-.721-.749.439-1.936 1.16-1.155a7.346 7.346 0 01.752 9.023 7.26 7.26 0 01-2.923 2.747 7.297 7.297 0 01-3.942.781 7.909 7.909 0 01-3.871-1.751 7.864 7.864 0 01-2.399-3.494 6.995 6.995 0 01-.009-4.392 7.027 7.027 0 012.611-3.539 7.323 7.323 0 014.201-1.592 5.62 5.62 0 014.326 1.655.247.247 0 01-.006.312.25.25 0 01-.308.062l.063.032z" fill="#250704"/><path d="M234.303 362.893a6.438 6.438 0 00.408 6.806 6.285 6.285 0 006.677 2.56 6.805 6.805 0 003.016-1.915 6.764 6.764 0 001.624-3.174 5.57 5.57 0 00-.468-3.101 5.596 5.596 0 00-2.072-2.363 6.29 6.29 0 00-7.9.75c-.721.78-1.881-.375-1.16-1.155a7.486 7.486 0 019.06-1.405 7.295 7.295 0 012.964 2.702 7.248 7.248 0 011.08 3.854 7.81 7.81 0 01-1.504 3.999 7.86 7.86 0 01-3.386 2.62 7.146 7.146 0 01-4.42.337 7.122 7.122 0 01-3.762-2.335 7.79 7.79 0 01-1.881-4.121 5.512 5.512 0 011.505-4.496c.188-.219.501 0 .376.281l-.157.156zm-23.731-5.12a5.108 5.108 0 00-2.54 4.464 4.919 4.919 0 00.695 2.61 4.947 4.947 0 001.97 1.855 5.35 5.35 0 004.985-.499 4.155 4.155 0 001.649-2.141 4.134 4.134 0 00-.019-2.699 4.787 4.787 0 00-2.203-2.636 4.816 4.816 0 00-3.409-.486.816.816 0 01-.961-.574.813.813 0 01.522-.987 6.105 6.105 0 014.157.294 6.07 6.07 0 012.991 2.89 5.826 5.826 0 01-1.066 6.776 6.703 6.703 0 01-6.27 1.436 5.866 5.866 0 01-2.725-1.928 5.83 5.83 0 01-1.225-3.099 5.881 5.881 0 01.596-3.497c.292-.503.65-.965 1.066-1.373a3.916 3.916 0 011.693-.843.248.248 0 01.254.15.253.253 0 01.014.154.255.255 0 01-.08.133h-.094zm45.456-37.966c-.091.973.1 1.951.55 2.82a5.123 5.123 0 001.989 2.081 4.843 4.843 0 005.33-.156 5.433 5.433 0 001.561-2.116c.339-.822.47-1.714.382-2.598a4.207 4.207 0 00-1.034-2.223 4.234 4.234 0 00-2.101-1.274 4.754 4.754 0 00-3.3.319 4.725 4.725 0 00-2.28 2.397c-.376.999-1.975.562-1.599-.437a6.035 6.035 0 012.467-3.016 6.073 6.073 0 013.803-.887c1.13.128 2.2.575 3.084 1.288a5.938 5.938 0 011.901 2.74 6.223 6.223 0 01-1.599 6.088 5.753 5.753 0 01-6.552 1.155 6.075 6.075 0 01-2.884-2.497 4.393 4.393 0 01-.376-3.747c0-.25.501-.218.501 0l.157.063zm-7.932-22.917a5.157 5.157 0 003.888 3.59 4.97 4.97 0 004.859-1.592 5.335 5.335 0 00.69-4.84 4.189 4.189 0 00-1.704-2.165 4.22 4.22 0 00-2.685-.645 4.78 4.78 0 00-3.148 1.473 4.738 4.738 0 00-1.304 3.211.818.818 0 01-1.391.574.81.81 0 01-.239-.574 6.037 6.037 0 011.335-3.83 6.085 6.085 0 013.461-2.134 5.927 5.927 0 013.691.274 5.894 5.894 0 012.799 2.411 6.598 6.598 0 010 6.245 5.826 5.826 0 01-2.465 2.204 5.852 5.852 0 01-3.272.512 5.965 5.965 0 01-3.355-1.405 4.334 4.334 0 01-1.567-3.122c0-.281.407-.312.501 0l-.094-.187zM97.339 320.712a6.287 6.287 0 00-6.865 0 6.256 6.256 0 00-2.526 2.645 6.222 6.222 0 00-.61 3.599 6.74 6.74 0 001.668 3.137 6.782 6.782 0 003.035 1.859 5.506 5.506 0 005.643-1.967 6.042 6.042 0 000-7.962c-.69-.749.47-1.904 1.16-1.155a7.412 7.412 0 01.783 9.023 7.347 7.347 0 01-6.865 3.528 7.943 7.943 0 01-3.867-1.754 7.895 7.895 0 01-2.403-3.491 7 7 0 01-.009-4.392 7.024 7.024 0 012.611-3.538 7.415 7.415 0 014.2-1.593 5.559 5.559 0 014.326 1.655c.19.187.001.531-.281.375v.031zm35.801 14.425a6.477 6.477 0 00-3.627.706 6.451 6.451 0 00-2.643 2.572 6.23 6.23 0 00.407 6.9 6.84 6.84 0 005.863 2.342 5.436 5.436 0 003.018-1.409 5.39 5.39 0 001.621-2.9 6.214 6.214 0 00-.503-4.251 6.257 6.257 0 00-3.133-2.93c-1.003-.344-.565-1.936.407-1.592a7.51 7.51 0 013.778 3.022 7.472 7.472 0 011.144 4.689 7.317 7.317 0 01-1.473 3.921 7.375 7.375 0 01-3.386 2.48 7.996 7.996 0 01-7.618-1.905 6.997 6.997 0 01-1.473-7.961 6.437 6.437 0 013.028-3.567 6.48 6.48 0 014.652-.586c.251 0 .22.5 0 .469h-.062zm33.825-182.899a9.085 9.085 0 002.155 9.685 9.172 9.172 0 009.758 1.992 9.767 9.767 0 003.752-3.24 9.72 9.72 0 001.671-4.659 7.995 7.995 0 00-1.183-4.431 8.04 8.04 0 00-3.425-3.062 8.842 8.842 0 00-6.061-.759 8.812 8.812 0 00-5.1 3.35c-.595.843-2.006 0-1.41-.843a10.06 10.06 0 015.104-3.795 10.109 10.109 0 016.37.017 9.886 9.886 0 014.643 2.972 9.823 9.823 0 012.316 4.99 10.576 10.576 0 01-1.089 5.624 10.629 10.629 0 01-3.864 4.242 9.623 9.623 0 01-11.286-.843 8.926 8.926 0 01-3.55-5.191 8.895 8.895 0 01.76-6.236c0-.25.564 0 .439.187zM9.123 131.413a6.507 6.507 0 00-6.646 2.436 6.227 6.227 0 00-.377 6.931 6.783 6.783 0 002.536 2.33 6.824 6.824 0 003.358.792 5.464 5.464 0 003.008-1.208 5.427 5.427 0 001.788-2.695 6.034 6.034 0 00-.041-4.204 6.064 6.064 0 00-2.78-3.164c-.94-.5 0-1.905.846-1.405a7.407 7.407 0 013.262 3.527 7.372 7.372 0 01.406 4.778 7.263 7.263 0 01-1.982 3.444 7.314 7.314 0 01-3.504 1.895 7.902 7.902 0 01-4.092-.388 7.86 7.86 0 01-3.338-2.391 7.07 7.07 0 01-.501-8.149 7.547 7.547 0 013.542-3.122 5.627 5.627 0 014.703 0c.25 0 0 .5-.188.437v.156z" fill="#250704"/></svg>