<svg width="360" height="422" viewBox="0 0 360 422" fill="none" xmlns="http://www.w3.org/2000/svg">
<path d="M73.3403 362.908C81.6809 357.956 89.4172 352.053 96.394 345.318C104.208 338.199 111.501 330.531 118.219 322.371C120.832 319.273 123.232 316.001 125.402 312.578C128.578 307.047 131.44 301.341 133.973 295.488C140.482 281.622 146.026 267.298 153.362 253.843C167.548 228.282 186.309 205.544 208.714 186.759C229.995 168.985 253.574 154.153 278.817 142.662C302.839 131.571 328.462 122.6 349.672 106.302C352.268 104.283 354.867 102.199 357.417 100.086C357.613 99.8912 357.879 99.7823 358.155 99.7834C358.432 99.7845 358.697 99.8954 358.893 100.092C359.088 100.288 359.197 100.554 359.196 100.83C359.196 101.107 359.085 101.372 358.889 101.567C349.355 110.596 338.471 118.085 326.626 123.764C314.76 129.924 302.411 135.075 290.191 140.466C264.485 151.35 240.26 165.432 218.09 182.38C194.872 200.326 175.065 222.289 159.609 247.226C152.06 260.464 145.281 274.126 139.308 288.146C134.507 298.65 129.914 309.773 122.775 319.027C116.568 326.959 109.759 334.401 102.409 341.29C95.1485 348.392 87.2756 354.842 78.8817 360.565C77.1785 361.672 75.4398 362.726 73.7298 363.731C73.3042 363.95 72.907 363.256 73.3576 363.051L73.3403 362.908Z" fill="#250704"/>
<path d="M318.59 127.09C313.042 131.92 307.438 136.617 302.339 141.937C297.181 147.354 292.421 153.135 288.096 159.237C279.542 171.384 272.801 184.709 268.082 198.796C265.419 206.759 263.445 214.936 262.182 223.237C262.028 224.31 260.377 223.888 260.531 222.815C265.172 193.002 278.579 165.252 299.047 143.09C304.672 136.763 310.999 131.096 317.908 126.199C318.029 126.116 318.176 126.082 318.321 126.105C318.466 126.127 318.597 126.204 318.687 126.32C318.777 126.436 318.82 126.581 318.807 126.727C318.793 126.873 318.724 127.008 318.615 127.105L318.59 127.09Z" fill="#250704"/>
<path d="M261.233 222.059C260.85 209.192 261.132 195.979 265.409 183.678C270.185 171.081 277.955 159.837 288.049 150.913C293.361 145.709 299.216 141.089 305.513 137.131C305.612 137.094 305.721 137.09 305.823 137.12C305.925 137.15 306.015 137.212 306.078 137.298C306.141 137.383 306.175 137.487 306.175 137.593C306.174 137.699 306.138 137.802 306.074 137.887C301.167 142.124 295.807 145.766 290.986 150.086C286.031 154.443 281.509 159.268 277.482 164.494C269.479 174.995 264.49 187.477 263.049 200.604C262.251 207.744 262.006 214.904 261.608 222.043C261.493 222.242 261.232 222.291 261.233 222.059Z" fill="#250704"/>
<path d="M261.148 221.976C263.564 210.982 267.791 200.468 273.659 190.864C276.763 185.487 280.377 180.437 283.242 174.956C286.108 169.474 288.463 163.897 291.037 158.346C293.803 152.03 297.158 145.988 301.057 140.3C301.531 139.479 302.902 140.271 302.353 141.049C295.388 150.868 291.307 162.253 286.041 172.987C283.32 178.391 280.292 183.636 276.972 188.695C273.781 193.704 270.933 198.924 268.45 204.319C265.886 210.135 263.647 216.089 261.743 222.154C261.709 222.213 261.652 222.257 261.586 222.274C261.52 222.292 261.449 222.283 261.389 222.248C261.33 222.214 261.287 222.158 261.269 222.091C261.251 222.025 261.26 221.954 261.294 221.895L261.148 221.976Z" fill="#250704"/>
<path d="M261.205 222.972C262.243 219.024 264.007 215.304 266.408 212.002C269.282 207.024 272.53 202.261 275.744 197.213C278.958 192.165 282.147 187.102 284.987 181.838C287.945 176.109 290.369 170.12 292.225 163.945C293.616 159.637 294.971 155.274 296.59 151.031C297.35 149.081 298.136 147.144 299.035 145.241C299.849 143.084 301.009 141.074 302.47 139.291C302.524 139.199 302.612 139.132 302.715 139.104C302.818 139.076 302.928 139.091 303.021 139.144C303.113 139.198 303.181 139.286 303.208 139.389C303.236 139.492 303.222 139.602 303.168 139.694C302.47 141.404 301.665 143.067 300.758 144.675C299.768 146.639 298.882 148.654 298.104 150.711C296.569 154.637 295.287 158.643 294.004 162.649C292.175 168.77 289.846 174.729 287.041 180.468C281.651 190.898 274.875 200.561 268.637 210.501C266.073 214.597 263.808 218.866 261.451 222.948C261.428 222.988 261.391 223.017 261.346 223.028C261.302 223.04 261.255 223.034 261.215 223.011C261.176 222.988 261.147 222.95 261.135 222.906C261.123 222.862 261.129 222.815 261.152 222.775L261.205 222.972Z" fill="#250704"/>
<path d="M295.278 145.992C293.068 147.211 291.055 148.757 289.306 150.576C287.338 152.213 285.28 153.74 283.142 155.149C278.395 157.974 273.841 161.11 269.511 164.539C265.2 168.621 261.422 173.231 258.265 178.259C254.791 183.356 251.34 188.488 247.913 193.657C243.636 199.318 240.019 205.447 237.132 211.927L235.784 211.382C237.004 209.479 238.685 207.915 240.67 206.834C243.483 204.841 246.115 202.643 248.722 200.431C255.227 195.334 260.945 189.309 265.695 182.548C266.155 181.752 267.451 182.5 266.941 183.268C262.392 189.751 256.924 195.538 250.707 200.448C248.153 202.625 245.621 204.88 242.901 206.828C240.53 208.039 238.497 209.819 236.985 212.009C236.582 212.706 235.36 212.232 235.638 211.463C238.074 205.698 241.163 200.232 244.844 195.171C248.381 189.679 252.082 184.248 255.768 178.842C258.996 173.642 262.762 168.797 267.006 164.387C271.223 160.687 275.797 157.413 280.66 154.612C283.434 152.925 286.08 151.036 288.577 148.961C290.216 146.98 292.472 145.607 294.985 145.059C295.478 145.012 295.703 145.773 295.253 145.977L295.278 145.992Z" fill="#250704"/>
<path d="M179.524 101.034C200.032 100.461 219.969 105.831 239.694 111.279C258.571 116.468 277.622 121.759 297.275 122.783C308.068 123.48 318.899 122.4 329.337 119.587C330.845 119.164 331.528 121.55 329.946 121.93C290.894 132.973 252.105 115.059 214.548 106.353C203.057 103.549 191.317 101.896 179.501 101.419C179.46 101.404 179.425 101.377 179.401 101.341C179.378 101.304 179.366 101.261 179.369 101.218C179.371 101.175 179.388 101.133 179.416 101.1C179.444 101.067 179.481 101.044 179.524 101.034Z" fill="#250704"/>
<path d="M179.524 101.034C193.43 103.951 206.151 110.765 219.886 114.38C233.434 117.966 247.305 120.192 261.291 121.026C269.11 121.59 276.933 121.859 284.778 121.974C284.961 122.001 285.128 122.093 285.25 122.233C285.371 122.373 285.438 122.551 285.44 122.736C285.441 122.921 285.377 123.101 285.258 123.242C285.138 123.383 284.973 123.477 284.79 123.508C270.882 123.412 256.992 122.475 243.196 120.702C229.261 118.808 215.603 115.247 202.516 110.093C194.842 107.09 187.255 103.938 179.43 101.312C179.41 101.285 179.398 101.253 179.396 101.219C179.394 101.186 179.402 101.152 179.419 101.123C179.436 101.094 179.461 101.07 179.491 101.055C179.521 101.04 179.555 101.034 179.588 101.038L179.524 101.034Z" fill="#250704"/>
<path d="M178.403 101.018C184.462 98.9227 190.848 97.9227 197.261 98.0646C203.698 97.9824 210.129 98.5061 216.469 99.6288C230.723 102.447 244.574 107.021 257.705 113.247C265.22 116.93 273.113 119.785 281.245 121.76C282.251 121.975 281.849 123.535 280.829 123.345C274.059 121.784 267.478 119.497 261.198 116.525C254.452 113.526 247.775 110.468 240.788 108.06C227.749 102.929 213.929 100.07 199.928 99.6048C192.707 99.7534 185.505 100.397 178.372 101.531C178.198 101.43 178.048 101.344 178.331 101.142L178.403 101.018Z" fill="#250704"/>
<path d="M179.351 101.333C186.268 104.496 192.914 108.3 199.787 111.538C206.662 114.847 213.757 117.679 221.021 120.014C228.26 122.34 235.732 123.861 243.302 124.547C251.027 125.056 258.775 125.096 266.503 124.666L294.157 123.406C295.178 123.365 295.186 124.963 294.165 125.004L268.872 126.033C260.978 126.514 253.064 126.576 245.163 126.219C230.144 124.813 215.511 120.641 202.005 113.914C194.101 110.394 186.438 106.358 179.064 101.831C178.998 101.793 178.949 101.73 178.93 101.656C178.91 101.582 178.92 101.504 178.958 101.438C178.996 101.372 179.059 101.324 179.133 101.304C179.207 101.284 179.285 101.295 179.351 101.333Z" fill="#250704"/>
<path d="M292.516 124.118C279.064 128.345 265.84 133.262 252.896 138.849C246.898 141.407 240.744 143.586 234.471 145.371C228.025 147.093 221.408 148.018 214.875 149.258C207.418 150.671 200.099 152.731 193.003 155.416C192.145 155.751 191.533 154.335 192.395 153.937C195.287 152.256 197.9 150.137 200.143 147.656C202.335 145.636 204.673 143.78 207.138 142.103C212.297 138.663 217.872 135.893 223.732 133.86C236.546 129.834 249.778 127.275 263.174 126.229C271.43 125.287 279.672 124.37 287.802 122.724C289.002 122.488 289.488 124.295 288.288 124.531C262.175 129.801 233.221 127.788 209.897 142.335C206.82 144.236 203.932 146.425 201.269 148.871C198.902 151.433 196.16 153.621 193.135 155.36L192.516 153.841C198.802 151.474 205.258 149.588 211.83 148.197C218.332 146.84 225.018 145.854 231.444 144.453C244.727 141.368 257.215 135.169 269.966 130.184C277.066 126.998 284.498 124.611 292.127 123.064C292.713 122.97 292.949 123.771 292.384 123.942L292.516 124.118Z" fill="#250704"/>
<path d="M257.138 155.57C249.509 160.492 239.745 161.858 230.844 162.593C220.739 163.398 210.438 163.391 200.386 163.529C190.334 163.667 179.655 163.509 169.302 163.937C158.954 164.115 148.646 165.241 138.506 167.3C127.103 169.777 117.504 175.752 107.786 181.759L106.829 180.078C120.574 172.911 136.094 171.881 151.326 171.349C168.544 171.031 185.725 169.655 202.77 167.229C212.232 165.698 221.598 163.625 230.821 161.02C231.936 160.702 232.39 162.391 231.286 162.749C215.051 167.594 198.316 170.581 181.401 171.653C173.082 172.359 164.753 172.795 156.431 173.102C148.11 173.409 140.781 173.493 133.032 174.362C124.199 175.084 115.608 177.601 107.786 181.759C107.568 181.843 107.327 181.845 107.106 181.766C106.886 181.687 106.701 181.532 106.585 181.329C106.469 181.125 106.43 180.887 106.475 180.658C106.52 180.428 106.645 180.222 106.829 180.078C115.023 174.423 123.949 169.907 133.362 166.653C143.156 164.062 153.219 162.611 163.35 162.327C184.058 161.006 204.721 162.182 225.38 161.232C230.764 161.06 236.129 160.52 241.438 159.616C246.722 158.55 251.898 157.005 256.901 155.001C257.258 154.843 257.474 155.332 257.138 155.57Z" fill="#250704"/>
<path d="M106.774 181.44C108.872 177.519 111.739 174.061 115.204 171.272C118.502 168.279 122.107 165.644 125.96 163.409C133.392 159.106 141.609 156.324 150.131 155.226C167.18 152.987 184.313 156.938 201.076 159.281C210.469 160.838 219.998 161.412 229.508 160.992C230.582 160.916 230.562 162.563 229.526 162.629C196.497 164.968 161.994 147.172 130.32 162.939C125.79 165.217 121.536 168.006 117.642 171.252C113.818 174.421 110.798 178.386 107.016 181.712C106.993 181.752 106.955 181.781 106.911 181.792C106.867 181.804 106.82 181.798 106.78 181.775C106.74 181.752 106.711 181.715 106.699 181.67C106.687 181.626 106.694 181.579 106.717 181.539L106.774 181.44Z" fill="#250704"/>
<path d="M106.929 181.862C109.221 179.952 112.155 178.988 115.135 179.164C119.18 179.01 123.277 179.053 127.332 179.17C135.548 179.333 143.77 179.832 151.995 179.635C167.781 179.01 183.406 176.252 198.446 171.437C206.837 168.88 215.172 165.959 223.536 162.988C224.458 162.657 224.848 164.111 223.926 164.441C209.518 169.966 194.722 174.425 179.658 177.782C172.341 179.335 164.921 180.353 157.455 180.829C149.393 181.319 141.288 181.021 133.248 180.726C128.679 180.578 124.125 180.405 119.574 180.4C115.552 180.401 110.791 180.009 107.334 182.427C106.998 182.664 106.661 182.039 106.905 181.847L106.929 181.862Z" fill="#250704"/>
<path d="M173.709 178.298C165.719 182.681 159.141 189.242 154.741 197.218C150.751 204.474 148.155 212.368 144.931 219.966L144.059 219.462C148.506 213.934 153.396 208.776 158.681 204.04C163.791 199.622 169.178 195.53 174.541 191.424C184.339 183.461 194.602 176.087 205.275 169.339C205.465 169.233 205.688 169.206 205.898 169.265C206.107 169.323 206.285 169.462 206.391 169.652C206.498 169.841 206.525 170.065 206.467 170.274C206.408 170.483 206.269 170.66 206.08 170.766C195.371 177.494 185.067 184.844 175.221 192.779C169.676 196.913 164.221 201.065 159.154 205.408C153.999 209.933 149.183 214.829 144.745 220.058C144.444 220.581 143.697 219.917 143.873 219.554C147.461 211.669 149.902 203.353 154.104 195.788C158.409 187.907 165.244 181.706 173.51 178.183L173.684 178.283L173.709 178.298Z" fill="#250704"/>
<path d="M233.209 314.645C227.317 295.312 217.934 277.249 212.907 257.685C208.428 241.846 207.09 225.288 208.969 208.944C210.34 199.12 213.114 189.544 217.208 180.51C217.755 179.564 219.111 180.381 218.679 181.36C212.038 197.106 209.207 214.2 210.416 231.254C212.054 248.807 216.27 266.026 222.93 282.357C227.283 292.851 231.084 303.565 234.316 314.455C234.485 315.083 233.517 315.321 233.333 314.717L233.209 314.645Z" fill="#250704"/>
<path d="M232.735 312.413C224.04 300.925 216.997 288.279 211.811 274.842C207.288 262.009 205.399 248.4 206.259 234.828C206.806 226.05 208.02 217.325 209.028 208.613C209.11 207.665 210.62 207.64 210.498 208.599C208.845 222.979 206.641 237.505 208.228 252.029C209.879 265.839 214.2 279.201 220.95 291.371C224.785 298.431 229.139 305.226 233.189 312.145C233.377 312.452 232.888 312.667 232.735 312.413Z" fill="#250704"/>
<path d="M233.552 314.511C232.796 300.965 228.651 288.05 224.087 275.458C219.315 262.389 215.38 249.031 212.306 235.465C211.525 231.828 210.84 228.179 210.249 224.519C209.472 220.592 208.898 216.627 208.531 212.641C208.466 211.774 209.884 211.563 210.052 212.424C210.795 215.973 211.042 219.633 211.574 223.26C212.107 226.886 212.603 229.828 213.247 233.087C214.636 240.527 216.622 247.682 218.683 254.879C220.532 261.291 222.425 267.628 224.579 273.916C226.732 280.204 228.694 286.249 230.534 292.39C232.584 299.624 233.726 307.085 233.933 314.599C233.933 314.599 233.79 314.848 233.709 314.469L233.552 314.511Z" fill="#250704"/>
<path d="M233.28 314.521C233.865 307.798 233.561 301.027 232.375 294.382C231.393 289.002 229.942 283.684 228.699 278.353C227.138 271.124 225.191 263.983 222.865 256.962C220.605 250.513 217.58 244.352 215.281 237.913C214.067 234.258 212.746 230.442 211.565 226.673C210.364 223.249 209.473 219.724 208.903 216.142C208.872 215.792 209.462 215.634 209.596 215.977C210.769 218.863 211.761 221.819 212.564 224.827C213.622 228.292 214.665 231.782 215.816 235.201C218.05 241.868 221.028 248.168 223.366 254.828C225.752 261.823 227.73 268.95 229.292 276.173C230.553 281.647 232.021 287.108 233.085 292.635C234.517 299.818 234.875 307.172 234.148 314.457C234.078 314.981 233.264 315.009 233.309 314.471L233.28 314.521Z" fill="#250704"/>
<path d="M209.298 216.436C205.008 228.53 200.112 240.407 198.393 253.288C197.554 259.807 197.24 266.397 196.976 273.015C196.712 279.633 196.3 285.702 196.49 292.051C196.709 299.294 197.453 306.512 198.714 313.648L197.907 313.78C198.437 308.543 198.725 303.266 199.334 298.008C199.924 292.896 201.009 287.853 202.574 282.952C204.267 278.5 205.446 273.869 206.089 269.149C206.486 264.201 206.362 259.349 206.945 254.309C207.023 253.425 208.43 253.407 208.351 254.291C207.844 259.143 207.904 263.99 207.525 268.85C207.027 273.356 205.958 277.78 204.345 282.016C202.601 286.916 201.329 291.972 200.547 297.115C199.78 302.647 199.166 308.201 198.631 313.733C198.58 314.168 197.912 314.347 197.824 313.865C195.633 301.218 194.856 288.369 195.51 275.554C195.973 262.545 196.744 249.349 200.854 236.819C203.134 229.833 205.839 222.993 208.956 216.338C209.085 216.114 209.477 216.241 209.355 216.568L209.298 216.436Z" fill="#250704"/>
<path d="M52.5142 262.696C59.6639 256.246 67.6751 250.818 76.3191 246.568C84.0412 243.009 92.0876 240.196 100.348 238.17C116.984 233.769 134.169 231.41 150.726 227.029C155.571 225.777 160.388 224.343 165.113 222.723C169.838 221.103 174.394 218.854 179.158 217.223C180.145 216.897 180.664 218.358 179.834 218.875C176.073 221.108 172.069 222.905 167.899 224.231C163.753 225.655 159.65 227.003 155.619 228.227C147.204 230.538 138.642 232.299 130.097 233.971C113.648 237.186 96.7938 239.836 81.2352 246.287C71.0422 250.426 61.5161 256.042 52.9629 262.955C52.8048 263.229 52.3138 262.813 52.586 262.572L52.5142 262.696Z" fill="#250704"/>
<path d="M52.0155 262.408C56.318 257.378 61.1669 252.842 66.473 248.883C71.1138 245.234 76.2133 242.208 81.6415 239.883C92.6289 235.6 104.208 233.018 115.98 232.226C123.4 231.465 130.937 230.905 138.3 230.243C139.532 230.125 139.535 232.019 138.328 232.152C114.497 234.391 89.3552 234.18 69.2436 248.69C63.3252 253.024 57.7887 257.856 52.6946 263.132C52.2968 263.533 51.753 262.921 52.1009 262.491L52.0155 262.408Z" fill="#250704"/>
<path d="M51.9111 262.647C57.7163 260.422 63.9321 259.099 69.8496 257.371C75.65 255.692 81.3453 253.671 86.9058 251.32C97.8709 246.664 108.794 241.852 119.836 237.407C126.055 234.855 132.402 232.626 138.851 230.728C139.912 230.444 140.331 232.08 139.295 232.378C127.819 235.864 116.575 240.07 105.63 244.971C94.8408 249.969 83.7757 254.352 72.4882 258.098C65.7863 260.197 58.9733 261.925 52.08 263.275C51.9966 263.298 51.9078 263.286 51.833 263.243C51.7581 263.199 51.7035 263.128 51.6811 263.045C51.6587 262.962 51.6704 262.873 51.7135 262.798C51.7566 262.724 51.8277 262.669 51.9111 262.647Z" fill="#250704"/>
<path d="M52.2649 262.552C58.4003 261.713 64.5839 261.367 70.6982 260.449C76.83 259.544 82.8819 258.167 88.8001 256.33C94.7357 254.498 100.47 252.071 105.914 249.084C112.113 245.66 117.918 241.709 124.255 238.564C131.113 235.034 138.217 232.004 145.513 229.495C146.353 229.25 146.919 230.573 146.096 230.961C139.756 233.939 133.04 236.301 126.572 239.271C120.104 242.241 114.264 246.138 108.111 249.655C97.2429 255.651 85.3915 259.665 73.1107 261.51C66.2571 262.774 59.2823 263.268 52.3168 262.98C52.1423 262.88 52.0185 262.576 52.2649 262.552Z" fill="#250704"/>
<path d="M153.094 226.67C150.004 227.276 146.88 227.689 143.738 227.906C140.714 227.983 137.69 227.739 134.717 227.179C128.41 226.127 122.357 224.059 116.199 222.462C104.429 219.209 92.2701 217.583 80.0625 217.63C73.2169 217.739 66.4111 218.68 59.7953 220.433L59.5906 218.887C72.4707 218.457 84.2419 224.324 96.5911 227.405C109.758 230.412 123.325 231.261 136.759 229.918C137.769 229.837 137.767 231.396 136.782 231.491C123.596 232.791 110.284 232.006 97.3376 229.163C84.7736 226.224 72.7148 219.992 59.5739 220.471C59.4724 220.484 59.3692 220.477 59.2702 220.451C59.1713 220.424 59.0785 220.378 58.9972 220.316C58.9159 220.254 58.8477 220.176 58.7964 220.087C58.7451 219.999 58.7118 219.901 58.6984 219.799C58.6849 219.698 58.6916 219.595 58.718 219.496C58.7445 219.397 58.7901 219.305 58.8524 219.223C58.9782 219.059 59.1641 218.952 59.3692 218.925C70.8802 216.07 82.8336 215.435 94.5886 217.055C100.377 217.806 106.116 218.902 111.774 220.338C117.875 221.803 123.857 223.764 129.945 225.253C133.466 226.181 137.083 226.698 140.722 226.796C144.756 226.745 148.781 226.395 152.762 225.748C153.412 225.659 153.726 226.67 153.037 226.77L153.094 226.67Z" fill="#250704"/>
<path d="M176.868 368.413C176.01 360.57 174.522 352.807 172.42 345.2C170.335 337.756 167.549 330.605 164.835 323.33C159.702 309.322 156.465 294.694 155.209 279.835C154.367 270.954 154.079 262.031 154.347 253.116C154.37 252.952 154.451 252.801 154.576 252.692C154.7 252.583 154.86 252.522 155.027 252.521C155.193 252.52 155.354 252.579 155.48 252.687C155.606 252.795 155.689 252.945 155.714 253.109C155.638 268.606 156.949 284.082 159.633 299.349C162.71 314.402 168.438 328.662 172.669 343.386C175.017 351.541 176.532 359.911 177.193 368.368C177.193 368.368 177.05 368.617 176.969 368.239L176.868 368.413Z" fill="#250704"/>
<path d="M176.292 368.777C175.037 363.639 174.029 358.476 172.292 353.424C170.555 348.372 168.5 343.468 166.527 338.479C162.29 328.655 159.312 318.337 157.663 307.771C156.833 301.552 156.576 295.271 156.895 289.006C156.927 288.029 158.437 288.005 158.405 288.982C157.835 300.132 159.101 311.301 162.152 322.046C165.03 332.204 169.742 341.662 173.234 351.678C175.498 357.088 176.818 362.846 177.135 368.7C177.121 368.806 177.072 368.905 176.996 368.98C176.92 369.056 176.821 369.105 176.715 369.119C176.608 369.133 176.5 369.111 176.407 369.058C176.314 369.005 176.241 368.922 176.199 368.823L176.292 368.777Z" fill="#250704"/>
<path d="M176.749 366.95C176.13 359.789 175.565 352.592 174.764 345.458C174.211 338.541 172.775 331.722 170.49 325.167C168.108 318.813 164.854 312.819 162.418 306.5C161.209 303.413 160.118 300.293 159.145 297.143C157.979 293.809 157.074 290.391 156.439 286.917C156.402 286.717 156.443 286.51 156.553 286.338C156.663 286.167 156.835 286.044 157.032 285.993C157.23 285.943 157.44 285.97 157.619 286.068C157.798 286.166 157.933 286.329 157.997 286.522C159.141 289.838 159.863 293.309 160.914 296.67C161.965 300.032 163.173 303.351 164.474 306.625C166.928 312.854 170.017 319.019 172.342 325.241C174.467 331.524 175.769 338.055 176.216 344.67C176.913 352.042 177.377 359.413 177.388 366.821C177.38 367.182 176.866 367.15 176.821 366.826L176.749 366.95Z" fill="#250704"/>
<path d="M176.353 367.983C172.051 355.973 162.58 346.755 157.685 334.967C153.43 323.808 151.963 311.784 153.409 299.938C154.049 293.072 156.11 286.163 155.633 279.217C155.607 278.571 156.567 278.462 156.751 279.065C158.289 284.865 156.037 291.299 155.358 297.081C154.636 303.063 154.488 309.102 154.919 315.115C155.321 321.173 156.558 327.148 158.596 332.871C160.932 338.783 163.942 344.408 167.566 349.633C171.581 355.264 174.724 361.465 176.891 368.028C176.891 368.028 176.704 368.352 176.552 368.098L176.353 367.983Z" fill="#250704"/>
<path d="M154.081 300.559C153.536 306.398 152.007 312.102 149.559 317.431C147.054 322.921 143.961 328.106 141.606 333.682C139.143 339.255 138.027 345.33 138.347 351.417C138.876 357.179 139.922 362.881 141.474 368.457L140.213 368.625C141.079 360.204 143.008 351.928 145.957 343.995C148.928 336.085 152.643 328.671 154.085 320.243C154.21 319.452 155.54 319.623 155.48 320.418C154.868 328.561 150.595 336.018 147.64 343.44C144.398 351.487 142.298 359.95 141.402 368.581C141.349 369.248 140.342 369.496 140.141 368.75C138.556 363.247 137.445 357.62 136.821 351.93C136.354 346.208 137.176 340.456 139.227 335.097C141.389 329.508 144.443 324.335 147.108 318.97C150.055 313.104 152.183 306.861 153.432 300.416C153.576 300.167 154.001 300.18 153.957 300.487L154.081 300.559Z" fill="#250704"/>
<path d="M73.4835 362.89C79.4758 355.563 87.5673 350.012 94.5733 343.635C98.4347 340.056 101.773 335.943 105.489 332.213C110.717 327.44 115.312 322.017 119.16 316.076C123.662 309.146 128.69 302.573 134.202 296.415C134.618 295.693 135.653 296.722 135.137 297.387C129.941 303.133 125.189 309.266 120.921 315.732C117.453 321.457 113.226 326.687 108.355 331.279C104.382 335.225 100.76 339.54 96.7265 343.418C93.0366 346.93 89.1301 350.184 85.327 353.432C81.524 356.679 77.4429 359.833 73.8777 363.417C73.7196 363.691 73.3427 363.307 73.5507 363.062L73.4835 362.89Z" fill="#250704"/>
<path d="M73.1467 363.128C81.7993 358.332 90.5335 353.683 98.8714 348.109C103.221 345.309 107.297 342.106 111.044 338.541C116.155 333.162 120.502 327.105 123.962 320.542C126.087 317.004 128.001 313.343 129.693 309.579C131.486 305.436 132.68 301.18 134.081 296.911C134.123 296.755 134.225 296.621 134.366 296.54C134.506 296.46 134.673 296.438 134.829 296.48C134.986 296.522 135.119 296.624 135.2 296.764C135.281 296.904 135.304 297.071 135.262 297.227C133.447 304.586 130.637 311.662 126.908 318.26C123.507 324.915 119.355 331.16 114.534 336.872C106.637 344.792 97.5465 351.425 87.5922 356.532C83.0323 359.252 78.2621 361.603 73.3271 363.564C73.0769 363.652 72.8783 363.305 73.1467 363.128Z" fill="#250704"/>
<path d="M73.6603 362.296C75.9699 359.438 77.969 356.342 79.6241 353.061C80.8889 350.87 82.3176 348.741 83.7961 346.64C87.1193 341.921 90.7167 337.36 94.4637 332.885C101.815 323.956 109.974 315.723 118.836 308.289C121.819 305.829 124.791 303.33 127.617 300.68C130.444 298.03 132.985 295.183 135.658 292.511C135.765 292.401 135.912 292.338 136.066 292.337C136.219 292.335 136.367 292.395 136.477 292.502C136.587 292.61 136.65 292.756 136.652 292.91C136.653 293.063 136.594 293.211 136.487 293.321C128.102 302.719 117.795 309.978 108.927 318.831C100.341 327.379 92.4516 336.598 85.3319 346.399C83.6454 348.744 82.1304 351.023 80.6472 353.419C78.8319 356.759 76.5897 359.85 73.9768 362.612C73.9406 362.642 73.8961 362.66 73.8493 362.664C73.8025 362.668 73.7555 362.657 73.7148 362.634C73.6741 362.61 73.6416 362.575 73.6215 362.532C73.6015 362.49 73.595 362.442 73.6028 362.396L73.6603 362.296Z" fill="#250704"/>
<path d="M79.1528 356.871C82.9846 350.752 88.7457 346.013 93.4386 340.591C97.2106 336.13 100.784 331.323 104.56 326.798C108.707 321.585 113.243 316.693 118.129 312.162C120.797 309.786 123.647 307.615 126.375 305.307C129.125 302.895 131.724 300.316 134.157 297.585C134.253 297.501 134.374 297.452 134.502 297.448C134.629 297.444 134.754 297.484 134.855 297.562C134.955 297.64 135.026 297.751 135.054 297.875C135.082 297.999 135.066 298.129 135.008 298.242C132.019 303.42 126.522 307.183 121.942 310.912C116.909 315.195 112.255 319.904 108.032 324.986C103.723 330.033 99.4594 335.172 95.3349 340.358C93.044 343.057 90.6058 345.627 88.0312 348.057C84.9254 350.825 82.0092 353.798 79.3024 356.957L79.1528 356.871Z" fill="#250704"/>
<path d="M130.634 298.505C126.103 302.206 120.887 304.979 115.284 306.669C109.28 308.828 103.149 310.62 96.9271 312.036C90.4606 313.446 84.088 315.253 77.8459 317.449C71.7286 320.125 66.1617 323.911 61.427 328.614L60.6492 327.601C64.9036 325.278 69.3973 323.421 74.0519 322.063C78.9745 320.867 83.9943 320.111 89.0521 319.803C99.253 318.964 109.019 315.32 117.269 309.276C118.024 308.717 119.059 309.745 118.304 310.305C110.682 315.994 101.718 319.621 92.2785 320.836C86.7824 321.546 81.2421 321.7 75.8191 322.917C70.7119 324.058 65.8264 326.025 61.3552 328.739C60.7254 329.139 60.1077 328.251 60.6022 327.74C64.8202 323.164 69.888 319.45 75.5246 316.806C81.578 314.434 87.8122 312.551 94.1676 311.173C100.542 309.576 106.947 308.096 113.169 306.013C116.248 305.022 119.253 303.818 122.164 302.41C124.899 301.069 127.451 299.356 130.201 297.99C130.505 297.866 130.774 298.321 130.585 298.477L130.634 298.505Z" fill="#250704"/>
<path d="M140.583 232.391C137.477 237.84 133.961 243.044 130.066 247.96C126.448 252.809 122.351 257.282 117.836 261.311C113.41 265.062 108.204 267.4 103.484 270.682C98.6696 274.498 94.4119 278.966 90.8334 283.957C90.6034 284.355 89.8555 283.923 90.0107 283.482C93.7333 272.439 100.519 262.682 109.578 255.348C111.773 253.562 114.109 251.99 116.425 250.34C118.995 248.334 121.351 246.068 123.454 243.578C127.554 239.302 132.282 235.675 137.476 232.821C138.077 232.471 138.473 233.397 137.99 233.716C132.913 236.987 128.176 240.756 123.848 244.967C122.123 247.087 120.189 249.028 118.076 250.762C115.753 252.541 113.248 254.115 110.936 255.933C101.541 262.92 94.5528 272.651 90.934 283.783L90.0145 283.418C93.1645 278.448 97.1167 274.034 101.711 270.356C106.339 266.888 111.791 264.758 116.313 261.129C126.087 253.296 133.182 242.39 140.06 232.089C140.118 232.033 140.193 231.997 140.274 231.987C140.355 231.977 140.436 231.994 140.507 232.034C140.577 232.075 140.633 232.137 140.664 232.212C140.696 232.287 140.703 232.37 140.683 232.449L140.583 232.391Z" fill="#250704"/>
<path d="M319.489 127.145C307.147 149.158 301.174 174.173 302.239 199.399L300.832 199.417C300.791 194.48 303.534 190.189 305.382 185.78C307.752 180.412 309.661 174.852 311.088 169.16C313.553 159.132 314.085 148.884 316.111 138.869C316.921 133.671 318.682 128.669 321.307 124.112C321.406 123.94 321.569 123.815 321.761 123.763C321.952 123.712 322.157 123.739 322.328 123.839C322.5 123.938 322.626 124.101 322.677 124.293C322.729 124.484 322.702 124.688 322.603 124.86C316.879 135.695 316.493 148.283 314.606 160.072C313.489 167.026 311.667 173.848 309.168 180.431C307.96 183.617 306.602 186.717 305.131 189.784C303.406 192.698 302.39 195.976 302.164 199.356C302.165 199.448 302.148 199.54 302.114 199.625C302.08 199.711 302.029 199.789 301.965 199.855C301.901 199.921 301.824 199.974 301.739 200.01C301.654 200.047 301.563 200.066 301.471 200.067C301.378 200.068 301.287 200.051 301.201 200.017C301.115 199.983 301.037 199.932 300.971 199.868C300.904 199.803 300.852 199.727 300.815 199.642C300.778 199.557 300.759 199.466 300.758 199.374C300.261 186.854 301.487 174.328 304.4 162.146C307.194 149.621 311.995 137.631 318.616 126.641C318.701 126.551 318.813 126.492 318.935 126.474C319.057 126.456 319.182 126.48 319.288 126.542C319.395 126.604 319.478 126.7 319.524 126.814C319.569 126.929 319.574 127.055 319.539 127.173L319.489 127.145Z" fill="#250704"/>
</svg>
