<svg width="267" height="383" viewBox="0 0 267 383" fill="none" xmlns="http://www.w3.org/2000/svg">
<path d="M197.343 328.112C176.307 287.367 149.441 250.057 125.02 211.092C112.818 192.009 101.804 172.198 92.041 151.77C82.0398 129.931 73.8817 107.3 67.6514 84.1119C64.0463 70.9674 60.8487 57.6981 57.8705 44.3663C54.8923 31.0345 51.6007 17.7027 49.7824 4.21484C49.5943 2.74741 51.6634 2.06049 52.0709 3.59036C55.2058 15.2986 57.3689 27.3816 59.9709 39.2459C62.5729 51.1103 65.3629 63.037 68.4351 74.8077C74.3083 98.2664 82.0123 121.232 91.4767 143.496C109.659 185.177 135.365 222.831 159.88 261.047C173.947 282.555 186.718 304.876 198.126 327.893C198.377 328.393 197.625 328.861 197.343 328.33V328.112Z" fill="#250704"/>
<path d="M50.911 0.967812C55.5966 9.08549 62.1641 15.969 70.0653 21.0435C78.1053 26.3862 85.7053 32.3581 92.7933 38.9025C99.3066 45.5032 105.252 52.6364 110.568 60.2271C116.098 67.8594 121.165 75.8144 125.741 84.0495C130.94 93.3076 134.863 103.221 137.403 113.523C137.453 113.769 137.417 114.025 137.3 114.248C137.183 114.47 136.992 114.646 136.76 114.745C136.528 114.844 136.269 114.86 136.026 114.791C135.784 114.722 135.572 114.572 135.428 114.366C129.908 106.597 123.605 99.41 116.619 92.9165C109.346 85.8396 102.094 78.7313 94.8624 71.5919C87.9342 64.6919 80.8807 57.823 74.4541 50.4234C68.6153 43.8552 63.7392 36.4972 59.9708 28.568C55.8989 19.8034 52.381 10.7939 49.4376 1.59225C48.936 0.0623703 51.2558 -0.499626 51.8201 0.936584C54.955 9.11674 57.7451 17.453 61.4129 25.4458C65.0341 33.5606 69.7829 41.128 75.52 47.9257C81.7898 55.1692 88.4672 61.9131 95.1759 68.6883C101.885 75.4635 109.44 82.9255 116.65 90.0129C124.306 97.105 131.247 104.927 137.372 113.367L135.428 114.179C131.102 95.4455 121.07 78.8979 110.349 63.3805C104.954 55.4979 98.9149 48.0729 92.2917 41.1817C85.1358 34.4746 77.4632 28.3363 69.3442 22.8232C61.5697 17.0159 54.2026 10.3344 50.378 1.3737C50.1899 0.936584 50.9423 0.624367 51.1618 1.06148L50.911 0.967812Z" fill="#250704"/>
<path d="M9.59278 131.132C18.6876 119.147 27.062 106.636 34.672 93.6657C42.7601 81.0055 48.7808 67.1476 52.5097 52.6088C54.1796 44.1724 54.7904 35.562 54.3279 26.9756C54.3233 26.6988 54.4214 26.43 54.6035 26.2208C54.7855 26.0117 55.0387 25.8767 55.3144 25.8419C55.5901 25.8071 55.8691 25.8749 56.0978 26.0322C56.3264 26.1895 56.4888 26.4254 56.5537 26.6945C57.9371 34.1062 57.8092 41.7193 56.1775 49.0807C54.6964 56.6869 52.3292 64.0949 49.124 71.1546C42.6095 85.0589 34.834 98.3417 25.8943 110.838C21.0376 118.017 15.8056 124.937 10.2198 131.569C9.96897 131.881 9.40469 131.569 9.65548 131.132H9.59278Z" fill="#250704"/>
<path d="M34.2331 134.004C36.02 123.233 38.1204 112.555 40.1581 101.846C41.0456 96.8567 41.6526 91.8221 41.9763 86.7656C42.2898 82.9565 42.3839 77.1804 45.6128 74.589C45.7049 74.4954 45.8231 74.4314 45.952 74.4053C46.081 74.3792 46.2149 74.3922 46.3363 74.4426C46.4578 74.493 46.5613 74.5785 46.6335 74.6881C46.7057 74.7977 46.7433 74.9263 46.7414 75.0573C46.4992 77.1726 46.0691 79.2622 45.4561 81.3017C45.0282 83.6753 44.7559 86.074 44.641 88.4828C44.3466 93.3559 43.6758 98.1992 42.6347 102.97C40.2521 113.429 37.8069 123.889 35.1109 134.192C35.0818 134.308 35.0076 134.407 34.9048 134.469C34.8019 134.53 34.6787 134.549 34.5623 134.52C34.4459 134.491 34.3458 134.417 34.2841 134.314C34.2223 134.212 34.204 134.089 34.2331 133.973V134.004Z" fill="#250704"/>
<path d="M167.31 151.364C152.762 150.742 138.405 147.833 124.769 142.747C111.477 137.939 97.5583 131.819 87.1504 122.047C81.1811 117.059 76.4497 110.766 73.3255 103.657C72.6671 101.815 75.614 101.065 76.2723 102.876C79.0828 109.015 83.1761 114.487 88.279 118.924C93.2702 123.719 98.9166 127.787 105.051 131.007C117.216 137.751 130.195 142.924 143.673 146.4C151.43 148.317 159.338 149.57 167.31 150.146C168 150.146 168 151.239 167.31 151.208V151.364Z" fill="#250704"/>
<path d="M140.945 172.47C121.039 160.887 101.54 147.492 87.652 129.009C85.7397 126.542 83.9528 123.951 82.2913 121.328C80.4687 118.79 79.0223 116.003 77.9965 113.055C77.7144 112.087 79.1251 111.119 79.8148 112.024C81.9152 114.709 83.2945 117.956 85.1441 120.829C86.9937 123.701 89 126.574 91.1318 129.29C95.5066 134.854 100.307 140.074 105.49 144.901C116.731 154.878 128.767 163.931 141.478 171.97C141.538 172.029 141.577 172.107 141.587 172.19C141.598 172.274 141.58 172.358 141.537 172.43C141.493 172.502 141.427 172.557 141.348 172.587C141.269 172.617 141.183 172.62 141.102 172.595L140.945 172.47Z" fill="#250704"/>
<path d="M83.608 131.007C88.2841 143.753 92.0347 156.817 94.831 170.097C97.689 182.494 99.0259 195.19 98.8123 207.907C97.9726 226.817 95.4973 245.62 91.414 264.107C89.5324 274.168 86.9237 284.081 83.608 293.768C83.2005 294.86 81.4136 294.767 81.4763 293.487C82.2287 273.942 81.0374 254.303 80.0343 234.789C78.843 212.466 77.7144 190.236 78.6549 167.881C79.1765 153.895 80.4742 139.949 82.5422 126.106C82.5422 125.2 84.235 125.419 84.141 126.324C81.2737 151.331 80.0485 176.497 80.4731 201.663C81.0374 221.707 82.6049 241.689 83.2946 261.734C83.6707 272.256 83.9215 282.809 83.514 293.362L81.3823 293.081C84.2789 284.798 86.6041 276.327 88.3417 267.728C90.5048 257.831 92.229 247.871 93.6711 237.849C94.9877 228.888 96.0536 219.896 96.4925 210.873C97.0025 198.973 96.0763 187.054 93.7338 175.374C92.3231 167.912 90.5989 160.543 88.5612 153.237C86.5235 145.932 84.235 138.657 82.4795 131.382C82.4421 131.245 82.4607 131.1 82.5312 130.977C82.6018 130.854 82.7185 130.764 82.8557 130.726C82.9929 130.689 83.1393 130.708 83.2627 130.778C83.3862 130.848 83.4766 130.964 83.514 131.101L83.608 131.007Z" fill="#250704"/>
<path d="M119.941 196.979C124.174 206.346 136.274 209.468 145.021 212.59C154.77 215.931 164.739 218.491 174.646 221.27C184.471 223.886 194.082 227.247 203.393 231.323C211.972 235.255 219.867 240.525 226.779 246.934C234.275 253.667 240.627 261.564 245.588 270.32C245.698 270.493 245.746 270.699 245.723 270.903C245.7 271.107 245.608 271.298 245.462 271.443C245.317 271.588 245.125 271.68 244.921 271.703C244.716 271.725 244.509 271.678 244.334 271.568C229.945 262.202 212.985 257.893 196.653 252.554C188.522 250.001 180.625 246.763 173.047 242.875C165.354 238.542 158.09 233.492 151.353 227.795C143.422 221.332 135.679 214.401 128.092 207.72C126.964 206.752 128.594 205.159 129.691 206.127C143.485 217.773 156.463 230.824 172.263 239.878C187.248 248.433 204.302 252.367 220.415 258.174C229.151 261.092 237.498 265.055 245.275 269.976L244.021 271.225C234.764 254.616 220.511 241.316 203.267 233.197C184.176 224.392 163.234 220.895 143.516 213.839C134.675 210.717 122.951 207.22 119.189 197.604C119.001 197.104 119.847 196.729 120.098 197.229L119.941 196.979Z" fill="#250704"/>
<path d="M121.885 327.955C131.856 298.444 134.734 267.015 130.287 236.194C128.934 227.56 127.124 219.004 124.863 210.561C124.835 210.316 124.897 210.069 125.036 209.865C125.175 209.661 125.383 209.514 125.622 209.45C125.861 209.386 126.115 209.409 126.338 209.515C126.561 209.622 126.739 209.804 126.838 210.03C131.438 225.04 133.927 240.611 134.237 256.301C134.655 271.73 133.256 287.155 130.067 302.26C128.191 311.047 125.677 319.687 122.543 328.112C122.387 328.517 121.76 328.33 121.885 327.924V327.955Z" fill="#250704"/>
<path d="M97.7465 320.4C103.546 312.189 111.07 305.538 117.653 297.983C121.137 294.141 124.128 289.883 126.556 285.306C127.945 282.581 129.119 279.752 130.067 276.845C130.806 274.11 131.707 271.42 132.763 268.79C133.045 268.228 134.111 268.478 134.049 269.133C133.559 271.932 132.782 274.673 131.729 277.314C130.852 280.01 129.804 282.648 128.594 285.213C126.327 289.723 123.481 293.921 120.13 297.702C113.233 305.663 104.988 312.438 98.5615 320.837C98.248 321.243 97.527 320.837 97.8405 320.4H97.7465Z" fill="#250704"/>
<path d="M133.767 334.98C139.105 315.328 138.339 294.526 131.572 275.315C131.259 274.472 132.607 274.098 132.889 274.941C139.998 294.304 140.494 315.463 134.299 335.137C134.27 335.196 134.22 335.242 134.16 335.269C134.099 335.295 134.031 335.299 133.967 335.281C133.904 335.262 133.849 335.222 133.812 335.167C133.775 335.112 133.759 335.046 133.767 334.98Z" fill="#250704"/>
<path d="M255.495 320.462C248.787 319.781 242.121 318.738 235.526 317.34C229.253 315.845 223.158 313.689 217.343 310.908C211.261 308.067 205.399 304.664 199.6 301.386C193.726 298.053 188.072 294.351 182.671 290.302C176.869 286.265 171.721 281.369 167.404 275.784C167.059 275.284 167.812 274.816 168.219 275.191C172.921 279.124 177.028 283.714 181.856 287.679C187.039 291.742 192.496 295.445 198.189 298.763C209.025 305.787 220.747 311.351 233.049 315.311C240.418 317.259 247.92 318.667 255.495 319.526C256.091 319.526 256.122 320.556 255.495 320.494V320.462Z" fill="#250704"/>
<path d="M247.877 296.609C238.544 298.601 229.047 299.74 219.506 300.012C210.603 300.386 200.509 300.386 192.107 296.89C191.135 296.484 191.48 294.954 192.577 295.235C196.998 296.54 201.516 297.49 206.089 298.076C210.674 298.482 215.281 298.607 219.882 298.451C229.287 298.17 238.504 296.952 247.846 296.453V296.702L247.877 296.609Z" fill="#250704"/>
<path d="M167.999 277.345C172.558 284.796 176.54 292.582 179.912 300.636C182.244 306.665 183.824 312.957 184.614 319.369C186.527 333.294 186.495 347.469 187.091 361.394C187.214 368.252 187.875 375.089 189.066 381.845C189.108 382.055 189.075 382.274 188.974 382.463C188.873 382.653 188.71 382.802 188.512 382.887C188.313 382.971 188.092 382.984 187.885 382.925C187.678 382.866 187.497 382.738 187.373 382.563C184.956 378.441 182.86 374.14 181.103 369.699C178.47 363.455 176.15 356.929 174.05 350.404C169.125 335.952 165.967 320.961 164.645 305.757C164.424 296.34 165.159 286.926 166.84 277.657C166.84 276.783 168.344 276.783 168.219 277.657C166.773 285.981 165.997 294.406 165.899 302.853C166.294 310.216 167.343 317.53 169.034 324.708C172.128 339.054 176.438 353.113 181.918 366.733C183.86 371.88 186.219 376.861 188.972 381.626L187.279 382.344C184.771 370.043 185.053 357.179 184.677 344.69C184.27 331.234 183.925 317.371 179.818 304.601C176.405 295.345 172.21 286.394 167.278 277.844C167.246 277.787 167.224 277.723 167.216 277.658C167.208 277.592 167.212 277.526 167.23 277.462C167.247 277.398 167.277 277.338 167.318 277.286C167.358 277.234 167.409 277.19 167.467 277.157C167.524 277.124 167.588 277.103 167.654 277.095C167.719 277.087 167.786 277.091 167.85 277.109C167.914 277.126 167.974 277.156 168.027 277.196C168.079 277.237 168.123 277.287 168.156 277.345H167.999Z" fill="#250704"/>
<path d="M210.634 357.398C207.5 350.81 204.365 344.347 201.23 337.822C199.568 334.387 198.095 330.953 196.308 327.518C194.663 324.679 193.348 321.662 192.389 318.526C192.363 318.419 192.375 318.307 192.423 318.208C192.472 318.109 192.554 318.03 192.655 317.985C192.756 317.94 192.869 317.933 192.976 317.963C193.082 317.994 193.174 318.06 193.236 318.152C194.946 321.002 196.394 324.002 197.562 327.112C199.161 330.578 200.697 334.044 202.452 337.478C205.587 343.941 208.534 350.435 211.324 356.992C211.512 357.46 210.854 357.897 210.634 357.398Z" fill="#250704"/>
<path d="M234.71 363.049C227.061 357.41 219.899 351.144 213.299 344.316C209.819 340.601 206.496 336.854 203.236 333.014C199.644 329.119 196.373 324.943 193.455 320.525C193.38 320.425 193.348 320.301 193.366 320.178C193.383 320.055 193.449 319.944 193.549 319.869C193.649 319.795 193.774 319.763 193.898 319.78C194.021 319.798 194.133 319.863 194.208 319.963C197.844 323.647 200.759 328.174 204.082 332.139C207.405 336.105 210.603 339.789 214.051 343.442C220.546 350.314 227.568 356.671 235.055 362.456C235.306 362.643 235.055 363.08 234.71 362.893V363.049Z" fill="#250704"/>
<path d="M34.3585 134.13C33.2094 133.709 31.9618 133.633 30.7696 133.91C29.5775 134.188 28.4929 134.806 27.6498 135.691C26.7451 136.566 26.1265 137.693 25.8748 138.924C25.6231 140.155 25.7501 141.433 26.2391 142.591C26.7726 143.646 27.5741 144.545 28.564 145.196C29.5539 145.848 30.6977 146.231 31.882 146.306C32.9721 146.326 34.0435 146.021 34.9592 145.432C35.8749 144.842 36.5935 143.995 37.0232 142.997C37.677 141.702 37.8403 140.216 37.4833 138.811C37.1264 137.406 36.273 136.176 35.0796 135.347C34.2018 134.754 35.0796 133.349 35.926 133.942C37.2857 134.846 38.3083 136.171 38.8354 137.711C39.3625 139.252 39.3646 140.923 38.8415 142.466C38.4406 143.801 37.6632 144.993 36.6018 145.901C35.5403 146.808 34.2394 147.393 32.8538 147.586C31.4294 147.681 30.006 147.389 28.7358 146.74C27.4657 146.091 26.3967 145.11 25.6435 143.902C24.8538 142.65 24.483 141.18 24.5844 139.705C24.6858 138.229 25.2541 136.824 26.2078 135.691C27.1358 134.453 28.4293 133.536 29.907 133.068C30.6732 132.819 31.4843 132.738 32.2849 132.83C33.0855 132.921 33.8569 133.184 34.5466 133.599C34.609 133.624 34.6589 133.672 34.6854 133.734C34.7118 133.795 34.7127 133.864 34.6877 133.927C34.6628 133.989 34.6141 134.038 34.5523 134.065C34.4906 134.091 34.4209 134.092 34.3585 134.067V134.13Z" fill="#250704"/>
<path d="M141.04 172.657C140.577 173.763 140.443 174.978 140.654 176.157C140.865 177.336 141.413 178.43 142.231 179.308C143.049 180.259 144.135 180.943 145.348 181.271C146.561 181.6 147.845 181.557 149.034 181.15C150.159 180.685 151.137 179.926 151.865 178.953C152.593 177.98 153.045 176.83 153.172 175.624C153.232 174.538 152.967 173.459 152.408 172.524C151.85 171.59 151.024 170.843 150.037 170.378C148.764 169.684 147.284 169.467 145.864 169.764C144.444 170.062 143.177 170.856 142.293 172.002C141.698 172.845 140.256 172.002 140.883 171.159C141.787 169.952 143.032 169.042 144.459 168.545C145.885 168.048 147.429 167.987 148.891 168.369C150.352 168.752 151.666 169.561 152.664 170.692C153.661 171.823 154.296 173.225 154.488 174.718C154.531 176.152 154.18 177.569 153.473 178.819C152.766 180.068 151.729 181.101 150.476 181.806C149.174 182.517 147.681 182.803 146.207 182.624C144.733 182.445 143.353 181.809 142.262 180.806C141.085 179.826 140.242 178.506 139.848 177.029C139.634 176.267 139.588 175.468 139.712 174.686C139.837 173.905 140.129 173.16 140.569 172.501C140.569 172.283 141.134 172.501 141.04 172.689V172.657Z" fill="#250704"/>
<path d="M121.603 327.55C120.586 326.891 119.399 326.541 118.186 326.541C116.973 326.541 115.786 326.891 114.769 327.55C113.681 328.161 112.802 329.082 112.243 330.195C111.685 331.307 111.473 332.561 111.634 333.794C111.89 334.968 112.459 336.052 113.281 336.931C114.103 337.81 115.147 338.452 116.305 338.79C117.336 339.048 118.42 339 119.423 338.65C120.426 338.301 121.304 337.665 121.948 336.823C122.914 335.719 123.446 334.305 123.446 332.842C123.446 331.378 122.914 329.964 121.948 328.861C121.227 328.112 122.387 326.925 123.108 327.706C124.223 328.912 124.903 330.454 125.04 332.089C125.176 333.723 124.761 335.356 123.86 336.729C123.164 337.9 122.151 338.852 120.937 339.476C119.722 340.1 118.356 340.371 116.995 340.257C115.568 340.037 114.229 339.431 113.124 338.506C112.019 337.582 111.189 336.373 110.725 335.012C110.251 333.586 110.247 332.047 110.716 330.62C111.184 329.193 112.099 327.953 113.327 327.081C114.524 326.124 115.994 325.567 117.528 325.489C118.325 325.442 119.124 325.565 119.87 325.851C120.616 326.136 121.293 326.577 121.854 327.144C121.889 327.189 121.907 327.244 121.906 327.301C121.905 327.358 121.884 327.413 121.848 327.456C121.811 327.5 121.761 327.53 121.705 327.541C121.649 327.553 121.591 327.544 121.54 327.518L121.603 327.55Z" fill="#250704"/>
<path d="M234.303 362.893C233.727 363.952 233.46 365.151 233.532 366.354C233.604 367.557 234.012 368.715 234.711 369.699C235.429 370.753 236.453 371.563 237.647 372.021C238.84 372.479 240.146 372.562 241.388 372.259C242.547 371.9 243.588 371.239 244.404 370.344C245.22 369.45 245.78 368.354 246.028 367.17C246.172 366.113 246.01 365.037 245.56 364.069C245.11 363.1 244.391 362.281 243.488 361.706C242.287 360.905 240.844 360.541 239.404 360.678C237.964 360.814 236.616 361.443 235.588 362.456C234.867 363.236 233.707 362.081 234.428 361.301C235.566 360.095 237.075 359.303 238.716 359.048C240.357 358.794 242.037 359.092 243.488 359.896C244.71 360.503 245.737 361.439 246.452 362.598C247.167 363.757 247.541 365.092 247.532 366.452C247.412 367.898 246.892 369.283 246.028 370.451C245.165 371.62 243.992 372.527 242.642 373.071C241.242 373.649 239.694 373.767 238.222 373.408C236.75 373.048 235.432 372.23 234.46 371.073C233.438 369.914 232.783 368.48 232.579 366.952C232.479 366.138 232.562 365.313 232.823 364.535C233.083 363.757 233.514 363.047 234.084 362.456C234.272 362.237 234.585 362.456 234.46 362.737L234.303 362.893Z" fill="#250704"/>
<path d="M210.572 357.773C209.791 358.229 209.146 358.881 208.7 359.665C208.254 360.449 208.024 361.336 208.032 362.237C208.016 363.155 208.256 364.059 208.727 364.847C209.198 365.636 209.88 366.278 210.697 366.702C211.505 367.032 212.383 367.159 213.252 367.072C214.121 366.985 214.956 366.686 215.682 366.203C216.456 365.692 217.036 364.938 217.331 364.062C217.627 363.185 217.62 362.235 217.312 361.363C216.93 360.243 216.145 359.304 215.109 358.727C214.072 358.151 212.858 357.977 211.7 358.241C211.497 358.286 211.284 358.252 211.105 358.145C210.926 358.038 210.795 357.867 210.739 357.667C210.682 357.467 210.705 357.254 210.803 357.07C210.9 356.886 211.064 356.747 211.261 356.68C212.639 356.287 214.111 356.392 215.418 356.974C216.726 357.557 217.785 358.58 218.409 359.864C218.972 360.961 219.172 362.207 218.98 363.424C218.789 364.641 218.216 365.767 217.343 366.64C216.504 367.386 215.489 367.908 214.393 368.159C213.297 368.41 212.155 368.382 211.073 368.076C209.996 367.71 209.049 367.04 208.348 366.148C207.646 365.255 207.221 364.178 207.123 363.049C206.957 361.85 207.165 360.629 207.719 359.552C208.011 359.049 208.369 358.587 208.785 358.179C209.271 357.764 209.853 357.475 210.478 357.336C210.531 357.331 210.584 357.342 210.629 357.369C210.675 357.396 210.711 357.437 210.732 357.486C210.753 357.534 210.757 357.588 210.746 357.64C210.734 357.691 210.706 357.738 210.666 357.773H210.572Z" fill="#250704"/>
<path d="M256.028 319.807C255.937 320.78 256.128 321.758 256.578 322.627C257.028 323.496 257.718 324.218 258.567 324.708C259.373 325.206 260.308 325.457 261.255 325.429C262.203 325.402 263.122 325.097 263.897 324.552C264.583 323.985 265.119 323.258 265.458 322.436C265.797 321.614 265.928 320.722 265.84 319.838C265.724 319.011 265.364 318.238 264.806 317.615C264.248 316.993 263.517 316.549 262.705 316.341C261.603 316.048 260.431 316.161 259.405 316.66C258.38 317.159 257.57 318.011 257.125 319.057C256.749 320.056 255.15 319.619 255.526 318.62C255.991 317.371 256.859 316.31 257.993 315.604C259.127 314.898 260.465 314.586 261.796 314.717C262.926 314.845 263.996 315.292 264.88 316.005C265.763 316.719 266.423 317.67 266.781 318.745C267.079 319.81 267.089 320.935 266.808 322.004C266.527 323.074 265.966 324.05 265.182 324.833C264.346 325.68 263.265 326.246 262.091 326.454C260.917 326.661 259.707 326.498 258.63 325.988C257.424 325.486 256.413 324.61 255.746 323.491C255.409 322.933 255.2 322.307 255.135 321.659C255.07 321.012 255.15 320.357 255.37 319.744C255.37 319.494 255.871 319.526 255.871 319.744L256.028 319.807Z" fill="#250704"/>
<path d="M248.096 296.89C248.359 297.782 248.859 298.587 249.543 299.219C250.227 299.851 251.071 300.287 251.984 300.48C252.862 300.68 253.779 300.638 254.636 300.357C255.492 300.077 256.255 299.569 256.843 298.888C257.336 298.194 257.656 297.393 257.776 296.551C257.896 295.71 257.813 294.852 257.533 294.048C257.226 293.156 256.626 292.393 255.829 291.883C255.033 291.373 254.086 291.146 253.144 291.238C251.946 291.317 250.822 291.843 249.996 292.711C249.171 293.58 248.705 294.726 248.692 295.922C248.692 296.137 248.606 296.344 248.453 296.496C248.3 296.648 248.093 296.734 247.877 296.734C247.661 296.734 247.454 296.648 247.301 296.496C247.148 296.344 247.062 296.137 247.062 295.922C247.052 294.53 247.523 293.178 248.397 292.092C249.27 291.006 250.493 290.252 251.858 289.958C253.086 289.653 254.38 289.749 255.549 290.232C256.717 290.716 257.699 291.561 258.348 292.643C258.864 293.604 259.133 294.676 259.133 295.766C259.133 296.855 258.864 297.927 258.348 298.888C257.757 299.845 256.901 300.61 255.883 301.092C254.865 301.574 253.728 301.752 252.611 301.604C251.373 301.496 250.2 301.005 249.256 300.199C248.792 299.815 248.413 299.339 248.144 298.802C247.874 298.265 247.719 297.677 247.689 297.077C247.689 296.796 248.096 296.765 248.19 297.077L248.096 296.89Z" fill="#250704"/>
<path d="M97.3389 320.712C96.3185 320.047 95.1256 319.693 93.9062 319.693C92.6868 319.693 91.4939 320.047 90.4735 320.712C89.3859 321.323 88.5065 322.245 87.9479 323.357C87.3894 324.47 87.1772 325.723 87.3386 326.956C87.6032 328.131 88.1789 329.214 89.0058 330.093C89.8327 330.971 90.8807 331.613 92.0409 331.952C93.0717 332.203 94.1534 332.15 95.155 331.801C96.1565 331.452 97.0349 330.821 97.6838 329.985C98.6496 328.882 99.1817 327.468 99.1817 326.004C99.1817 324.541 98.6496 323.126 97.6838 322.023C96.9941 321.274 98.154 320.119 98.8437 320.868C99.9545 322.076 100.634 323.615 100.775 325.247C100.917 326.879 100.513 328.511 99.6274 329.891C98.9258 331.057 97.9116 332.005 96.6988 332.628C95.4859 333.252 94.1226 333.526 92.7619 333.419C91.3367 333.196 89.9996 332.589 88.8948 331.665C87.79 330.741 86.9593 329.534 86.4921 328.174C86.018 326.749 86.0148 325.21 86.483 323.782C86.9513 322.355 87.8664 321.115 89.0941 320.244C90.2947 319.292 91.7627 318.735 93.2949 318.651C94.0931 318.6 94.893 318.722 95.6397 319.007C96.3864 319.293 97.0623 319.736 97.6211 320.306C97.8091 320.493 97.6211 320.837 97.3389 320.681V320.712Z" fill="#250704"/>
<path d="M133.14 335.137C131.887 335.015 130.627 335.261 129.513 335.843C128.399 336.426 127.481 337.32 126.87 338.415C126.248 339.477 125.955 340.699 126.028 341.926C126.1 343.154 126.535 344.332 127.277 345.315C127.993 346.146 128.9 346.793 129.921 347.201C130.941 347.608 132.045 347.765 133.14 347.657C134.269 347.514 135.325 347.022 136.158 346.248C136.991 345.475 137.558 344.46 137.779 343.348C138.12 341.916 137.942 340.41 137.276 339.097C136.611 337.783 135.501 336.745 134.143 336.167C133.14 335.823 133.578 334.231 134.55 334.575C136.11 335.139 137.438 336.202 138.328 337.597C139.218 338.992 139.62 340.64 139.472 342.286C139.374 343.708 138.862 345.07 137.999 346.207C137.136 347.343 135.959 348.205 134.613 348.687C133.286 349.052 131.887 349.069 130.552 348.735C129.217 348.401 127.991 347.728 126.995 346.782C125.955 345.769 125.255 344.46 124.991 343.034C124.727 341.609 124.913 340.137 125.522 338.821C126.047 337.296 127.127 336.023 128.55 335.254C129.972 334.485 131.632 334.276 133.202 334.668C133.453 334.668 133.422 335.168 133.202 335.137H133.14Z" fill="#250704"/>
<path d="M166.965 152.238C166.347 153.887 166.222 155.68 166.604 157.398C166.987 159.117 167.861 160.688 169.12 161.923C170.38 163.158 171.972 164.003 173.703 164.357C175.435 164.71 177.232 164.557 178.878 163.915C180.388 163.175 181.68 162.058 182.63 160.675C183.58 159.291 184.156 157.686 184.301 156.016C184.348 154.456 183.937 152.916 183.118 151.585C182.3 150.254 181.109 149.19 179.693 148.523C177.828 147.558 175.678 147.289 173.632 147.764C171.585 148.239 169.777 149.427 168.532 151.114C167.937 151.957 166.526 151.114 167.122 150.271C168.366 148.489 170.157 147.157 172.226 146.476C174.295 145.795 176.53 145.801 178.596 146.493C180.395 147.024 182.006 148.055 183.239 149.465C184.471 150.876 185.275 152.606 185.555 154.455C185.716 156.394 185.34 158.339 184.466 160.079C183.593 161.819 182.256 163.286 180.602 164.321C178.874 165.391 176.85 165.885 174.821 165.734C172.792 165.582 170.865 164.792 169.316 163.478C167.54 162.233 166.279 160.388 165.766 158.287C165.252 156.185 165.523 153.969 166.526 152.051C166.526 151.801 167.09 152.051 166.965 152.238Z" fill="#250704"/>
<path d="M9.12257 131.413C7.89699 131.134 6.61646 131.216 5.43663 131.649C4.25679 132.081 3.22844 132.845 2.47657 133.849C1.73233 134.837 1.29932 136.024 1.23236 137.257C1.16539 138.491 1.46748 139.717 2.10038 140.78C2.7305 141.761 3.60388 142.564 4.63623 143.11C5.66857 143.657 6.82504 143.93 7.99401 143.902C9.09653 143.813 10.1457 143.391 11.0023 142.694C11.8589 141.997 12.4826 141.058 12.7904 139.999C13.2809 138.638 13.2661 137.147 12.7486 135.795C12.2312 134.444 11.2452 133.321 9.969 132.631C9.02853 132.131 9.969 130.726 10.8154 131.226C12.2657 132.008 13.4133 133.249 14.0773 134.753C14.7414 136.257 14.8842 137.938 14.4833 139.531C14.1558 140.84 13.4693 142.033 12.5005 142.975C11.5317 143.918 10.3187 144.574 8.99718 144.87C7.62261 145.104 6.21028 144.97 4.90479 144.482C3.5993 143.994 2.44754 143.169 1.56745 142.091C0.650399 140.95 0.109966 139.555 0.0201737 138.096C-0.069619 136.637 0.29562 135.186 1.06586 133.942C1.88067 132.551 3.12237 131.456 4.60831 130.82C5.34546 130.481 6.14764 130.306 6.95949 130.306C7.77134 130.306 8.57352 130.481 9.31067 130.82C9.56146 130.82 9.31067 131.32 9.12257 131.257V131.413Z" fill="#250704"/>
</svg>
