<svg width="350" height="293" viewBox="0 0 350 293" fill="none" xmlns="http://www.w3.org/2000/svg">
<path d="M307.16 99.3604C262.774 92.4843 217.487 94.0853 173.698 104.078C152.744 108.884 132.392 116.012 113.019 125.33C93.8645 134.65 76.3741 147.058 61.2487 162.057C44.0975 178.983 29.781 198.422 15.2403 217.565C14.2144 218.876 11.8568 217.603 12.9079 216.198C25.2558 198.222 38.8516 181.136 53.5948 165.066C68.329 149.382 85.5307 136.216 104.518 126.088C143.741 105.598 187.844 95.2192 231.841 93.0429C257.144 91.7084 282.516 93.521 307.373 98.4392C307.971 98.5994 307.711 99.4408 307.128 99.3519L307.16 99.3604Z" fill="#231F20"/>
<path d="M306.636 98.5464C312.406 97.073 318.301 96.1454 324.244 95.776C327.098 95.6815 329.952 95.9366 332.744 96.5355C335.535 96.9196 338.169 98.0568 340.363 99.8251C341.01 100.344 341.525 101.009 341.866 101.765C342.206 102.522 342.362 103.348 342.321 104.177C342.28 105.005 342.043 105.812 341.63 106.532C341.217 107.251 340.639 107.862 339.944 108.315C335.759 111.342 331.129 109.866 326.857 108.181C323.511 106.947 320.272 105.439 317.025 103.961C313.778 102.484 309.865 101.098 306.417 99.3647C305.661 99.1623 306.248 98.1052 306.934 98.1879C309.53 98.7053 312.044 99.5718 314.407 100.764C316.981 101.858 319.482 103.102 322.03 104.291C324.643 105.531 327.324 106.622 330.061 107.555C332.043 108.387 334.219 108.642 336.34 108.293C339.934 107.469 342.52 104.114 339.474 101.004C337.391 99.2663 334.852 98.1645 332.161 97.8298C329.573 97.317 326.94 97.0635 324.302 97.0732C318.451 97.3374 312.627 98.032 306.879 99.1512C306.501 99.05 306.233 98.5396 306.693 98.4604L306.636 98.5464Z" fill="#231F20"/>
<path d="M89.9396 136.182C84.9318 130.826 84.0962 122.236 84.0794 115.249C83.9143 107.683 84.9205 98.1361 89.9316 92.0239C93.2968 87.8994 100.623 83.7231 104.643 89.4893C107.994 94.2325 104.128 101.36 102.256 105.952C100.385 110.544 98.2189 115.732 95.9799 120.563C93.5167 125.447 91.8085 130.676 90.9136 136.072C90.7281 136.764 89.7355 136.566 89.7069 135.917C89.2394 128.472 93.9116 121.358 96.8201 114.784C98.6678 110.658 100.358 106.489 102.017 102.312C103.042 100.057 103.78 97.6825 104.215 95.2438C104.558 93.9086 104.417 92.4949 103.818 91.2535C103.218 90.0121 102.198 89.0234 100.938 88.4627C97.8667 87.3361 94.5415 89.5485 92.436 91.6155C87.0041 96.9065 85.7759 106.023 85.5886 113.393C85.1071 121.206 86.8301 128.996 90.5612 135.876C90.6146 135.944 90.6387 136.031 90.6284 136.116C90.618 136.202 90.5741 136.28 90.5061 136.334C90.4381 136.387 90.3517 136.411 90.2659 136.401C90.1801 136.391 90.102 136.347 90.0486 136.279L89.9396 136.182Z" fill="#231F20"/>
<path d="M97.7275 98.4306C94.4135 104.058 92.091 110.214 90.8614 116.628C89.8037 123.021 89.7527 129.541 90.7102 135.95C90.7787 136.575 89.8131 136.654 89.6564 136.106C86.0194 123.494 90.2263 108.801 97.1717 98.113C97.1688 98.0616 97.1782 98.0102 97.199 97.9631C97.2199 97.916 97.2516 97.8745 97.2915 97.842C97.3315 97.8095 97.3786 97.787 97.429 97.7762C97.4794 97.7655 97.5316 97.7668 97.5814 97.7802C97.6311 97.7935 97.677 97.8184 97.7153 97.8529C97.7535 97.8874 97.783 97.9305 97.8014 97.9786C97.8198 98.0268 97.8265 98.0785 97.821 98.1298C97.8155 98.181 97.7979 98.2302 97.7697 98.2733L97.7275 98.4306Z" fill="#231F20"/>
<path d="M58.3502 161.922C53.3038 155.577 52.679 146.201 52.5645 138.446C52.4443 130.081 52.5879 120.607 56.8785 113.155C58.6713 109.956 61.5171 107.476 64.9319 106.138C66.4043 105.44 68.0849 105.318 69.6423 105.798C71.1997 106.278 72.5209 107.324 73.3452 108.73C74.4455 111.578 74.5898 114.706 73.7564 117.644C72.8278 121.53 71.6146 125.343 70.1264 129.051C66.2222 139.845 60.7421 150.352 59.1815 161.841C58.9959 162.534 58.0034 162.335 57.9748 161.686C57.5714 153.246 62.3938 145.195 65.2259 137.52C67.0006 133.037 68.7 128.332 70.2921 123.901C71.3013 121.267 72.0334 118.535 72.4763 115.749C72.9104 112.492 72.7822 107.432 68.377 107.128C66.4459 107.26 64.5759 107.86 62.9284 108.876C61.2809 109.892 59.9055 111.294 58.9209 112.96C54.4697 119.627 54.1064 128.537 54.1119 136.195C53.5955 144.899 55.2271 153.595 58.8628 161.52C59.0471 161.839 58.6689 162.243 58.3502 161.922Z" fill="#231F20"/>
<path d="M63.5458 118.99C60.7121 126.476 58.9284 134.319 58.2456 142.295C58.0565 145.602 58.0694 148.918 58.2841 152.223C58.3975 153.94 58.5423 155.666 58.79 157.385C59.1012 158.674 59.2908 159.99 59.3562 161.315C59.3499 161.474 59.2927 161.628 59.193 161.752C59.0934 161.877 58.9564 161.967 58.8022 162.008C58.648 162.05 58.4845 162.041 58.3356 161.983C58.1868 161.925 58.0603 161.821 57.9747 161.686C56.8491 158.885 56.3443 155.872 56.4951 152.857C56.3262 149.198 56.3958 145.532 56.7034 141.882C57.4303 133.818 59.5414 125.939 62.9439 118.592C63.0283 118.278 63.5695 118.524 63.479 118.736L63.5458 118.99Z" fill="#231F20"/>
<path d="M33.5959 188.718C25.7329 183.947 22.1835 173.652 19.9625 165.197C17.7415 156.742 16.3423 147.361 20.6774 139.617C23.2856 134.918 32.2759 127.174 37.2156 133.288C40.9774 138.006 39.8791 145.504 39.0519 150.983C38.0577 157.463 37.0281 163.698 35.7045 170.022C34.2386 176.039 33.792 182.259 34.3833 188.423C34.4664 189.12 33.398 189.205 33.1951 188.577C30.5082 180.099 34.0982 170.604 35.5984 162.235C36.4902 157.144 37.5017 151.985 38.0704 146.841C38.3649 144.236 38.2867 141.603 37.8384 139.02C37.4109 136.713 36.4911 133.599 33.8957 132.836C30.0246 131.799 25.3498 135.775 23.256 138.554C18.0679 145.327 19.1794 154.901 20.9457 162.661C23.0795 172.07 26.6172 181.654 34.0078 188.188C34.3119 188.438 33.8223 188.88 33.5959 188.718Z" fill="#231F20"/>
<path d="M30.3487 144.94C28.6535 152.257 28.1926 159.807 28.985 167.276C29.334 170.969 30.0024 174.624 30.9827 178.201C31.9018 181.821 33.5017 184.914 34.6457 188.324C34.8861 189.063 33.8531 189.394 33.4991 188.827C31.7049 185.736 30.4064 182.383 29.6511 178.89C28.6604 175.2 27.9887 171.431 27.6434 167.625C26.9322 159.944 27.6358 152.198 29.7193 144.771C29.7416 144.688 29.7963 144.616 29.8711 144.573C29.9459 144.53 30.0349 144.518 30.1183 144.541C30.2018 144.563 30.273 144.618 30.3162 144.692C30.3594 144.767 30.3711 144.856 30.3487 144.94Z" fill="#231F20"/>
<path d="M41.4368 182.116C47.7513 188.761 55.9496 193.312 64.9285 195.157C71.9469 197.038 80.2086 198.307 87.0359 195.11C91.4356 192.916 100.214 183.698 93.4286 179.687C88.2312 176.675 81.1309 178.247 75.6309 179.135C70.1308 180.022 63.6437 181.32 57.6479 182.547C52.1918 184.103 46.4305 184.254 40.9006 182.985C40.7774 182.919 40.6802 182.813 40.6247 182.685C40.5692 182.557 40.5587 182.413 40.5949 182.279C40.631 182.144 40.7117 182.025 40.8238 181.942C40.936 181.858 41.073 181.816 41.2126 181.82C47.4673 182.45 53.7841 181.973 59.8732 180.411C66.0685 179.069 72.3139 178.044 78.5738 177.09C83.8513 176.278 90.7346 175.39 95.3395 178.85C101.224 183.327 95.2232 191.873 90.7615 194.928C84.218 199.584 75.4392 198.986 67.9733 197.39C58.405 195.332 46.2256 191.563 41.0585 182.521C40.8658 182.233 41.244 181.828 41.5627 182.15L41.4368 182.116Z" fill="#231F20"/>
<path d="M84.2312 186.566C76.9274 188.669 69.2892 189.359 61.7268 188.598C58.1398 188.261 54.5887 187.614 51.1131 186.665C47.5018 185.871 44.0421 184.499 40.8671 182.604C40.3282 182.223 40.6379 181.193 41.1876 181.408C44.2758 182.472 47.4264 184.058 50.7058 185.038C54.4183 186.112 58.2255 186.827 62.0749 187.173C69.4333 187.991 76.8773 187.544 84.0851 185.852C84.4904 185.725 84.6533 186.376 84.2565 186.472L84.2312 186.566Z" fill="#231F20"/>
<path d="M68.2774 153.45C72.7192 160.122 79.0324 165.334 86.4252 168.432C92.4161 171.252 99.5722 173.878 106.209 172.148C110.559 171.02 119.861 164 113.851 159.488C109.41 156.173 102.93 156.562 97.7943 156.468C92.6585 156.373 87.3608 156.506 82.1345 156.623C77.2074 157.085 72.2445 156.266 67.7266 154.247C67.5763 154.206 67.4482 154.108 67.3704 153.973C67.2927 153.839 67.2716 153.679 67.3119 153.528C67.3521 153.378 67.4504 153.25 67.5851 153.172C67.7198 153.095 67.8799 153.073 68.0302 153.114C73.2418 154.571 78.6587 155.156 84.0613 154.846C89.6361 154.686 95.1518 154.748 100.705 154.92C105.658 155.067 112.255 155.249 115.839 159.245C120.339 164.229 113.399 170.87 108.846 172.753C102.301 175.655 94.7619 173.702 88.4516 171.067C80.4779 167.716 70.5208 162.45 67.3956 153.72C67.2827 153.386 67.816 153.158 68.0003 153.477L68.2774 153.45Z" fill="#231F20"/>
<path d="M105.014 164.272C98.2623 164.942 91.445 164.328 84.9215 162.464C81.7674 161.558 78.6961 160.385 75.741 158.958C72.7359 157.723 69.9618 155.987 67.5364 153.825C67.4424 153.711 67.3899 153.569 67.3874 153.421C67.3849 153.274 67.4327 153.13 67.5228 153.013C67.6129 152.896 67.7401 152.813 67.8835 152.778C68.0269 152.742 68.178 152.757 68.3121 152.819C71.0221 154.287 73.4482 156.185 76.2149 157.567C79.2089 159.073 82.3372 160.295 85.5589 161.218C91.8115 163.109 98.3446 163.9 104.868 163.558C105.277 163.668 105.308 164.182 104.888 164.238L105.014 164.272Z" fill="#231F20"/>
<path d="M100.113 130.946C104.127 136.816 109.75 141.403 116.306 144.157C121.544 146.64 127.836 148.967 133.7 147.603C137.517 146.703 146.228 140.503 140.914 136.414C137.006 133.377 131.095 133.783 126.513 133.635C121.932 133.487 116.909 133.726 112.102 133.788C107.793 134.174 103.458 133.431 99.5241 131.632C99.401 131.566 99.3038 131.46 99.2483 131.332C99.1928 131.204 99.1823 131.061 99.2184 130.926C99.2546 130.791 99.3353 130.672 99.4475 130.589C99.5596 130.506 99.6966 130.463 99.8362 130.467C104.689 131.777 109.722 132.294 114.74 131.998C119.77 131.862 124.874 131.947 129.858 132.102C134.109 132.229 139.857 132.555 142.885 136.234C146.524 140.784 140.348 146.585 136.289 148.263C130.413 150.804 123.67 149.031 118.01 146.738C110.883 143.749 101.858 139.037 99.2078 131.176C99.0718 130.802 99.6282 130.614 99.8125 130.933L100.113 130.946Z" fill="#231F20"/>
<path d="M133.089 140.693C127.042 141.371 120.921 140.876 115.061 139.236C112.249 138.448 109.513 137.41 106.886 136.134C104.185 135.022 101.695 133.454 99.5265 131.497C99.4325 131.383 99.3799 131.241 99.3775 131.093C99.375 130.946 99.4227 130.802 99.5129 130.685C99.603 130.568 99.7302 130.485 99.8736 130.45C100.017 130.414 100.168 130.429 100.302 130.491C102.723 131.78 104.891 133.508 107.36 134.743C110.029 136.091 112.818 137.189 115.69 138.021C121.317 139.714 127.189 140.443 133.058 140.178C133.467 140.288 133.467 140.794 132.898 140.776L133.089 140.693Z" fill="#231F20"/>
<path d="M149.234 108.891C151.912 114.613 156.094 119.5 161.334 123.029C166.526 126.815 172.801 130.588 179.56 130.544C184.421 130.531 190.587 127.157 187.781 121.514C186.518 119.297 184.438 117.663 181.985 116.959C178.342 116.018 174.638 115.329 170.899 114.899C166.887 114.263 162.831 113.918 158.818 113.281C155.137 112.911 151.608 111.617 148.559 109.52C147.974 109.06 148.88 108.324 149.295 108.537C157.122 112.186 165.844 112.364 174.19 113.824C179.887 114.845 187.448 115.454 189.663 121.917C191.397 126.902 187.31 130.698 182.874 131.769C175.736 133.23 168.594 129.798 162.896 126.011C157.198 122.225 149.999 116.484 148.652 109.174C148.736 108.859 149.121 108.558 149.265 108.9L149.234 108.891Z" fill="#231F20"/>
<path d="M180.366 123.507C174.342 123.23 168.427 121.805 162.937 119.31C160.172 118.064 157.523 116.576 155.022 114.861C152.516 113.348 150.296 111.406 148.463 109.123C148.124 108.628 148.792 107.896 149.331 108.277C151.65 109.944 153.583 112.047 155.942 113.691C158.22 115.274 160.62 116.673 163.12 117.874C168.529 120.52 174.363 122.186 180.354 122.796C180.763 122.905 180.808 123.491 180.374 123.476L180.366 123.507Z" fill="#231F20"/>
<path d="M194.787 98.2604C196.693 105.692 200.771 112.387 206.501 117.49C211.86 122.67 220.332 128.819 227.939 124.347C229.073 123.769 229.975 122.82 230.495 121.659C231.015 120.497 231.122 119.192 230.797 117.962C229.86 115.978 228.284 114.368 226.321 113.389C222.45 111.262 218.358 109.565 214.116 108.331C210.879 107.194 207.594 106.111 204.373 104.911C200.472 103.782 196.926 101.67 194.075 98.778C193.664 98.2969 194.218 97.3656 194.842 97.803C201.33 102.036 208.451 105.208 215.937 107.2C220.883 108.517 225.551 110.716 229.715 113.691C230.668 114.337 231.448 115.208 231.987 116.226C232.525 117.244 232.805 118.378 232.803 119.53C232.801 120.681 232.516 121.815 231.974 122.831C231.432 123.847 230.648 124.714 229.693 125.357C222.876 130.277 214.45 126.096 208.86 121.529C205.184 118.498 201.926 114.993 199.171 111.107C196.256 107.477 194.558 103.021 194.319 98.3711C194.412 98.0249 194.88 97.9142 194.953 98.2711L194.787 98.2604Z" fill="#231F20"/>
<path d="M222.291 118.989C216.415 117.461 210.881 114.834 205.982 111.246C203.654 109.525 201.468 107.62 199.447 105.548C197.255 103.526 195.417 101.153 194.009 98.5247C193.766 97.9199 194.38 97.1399 195.025 97.7514C196.849 99.758 198.305 102.003 200.063 104.127C202.152 106.345 204.429 108.377 206.869 110.201C211.56 113.771 216.825 116.517 222.437 118.32C222.846 118.429 222.669 119.09 222.26 118.98L222.291 118.989Z" fill="#231F20"/>
<path d="M236.176 94.2392C237.734 100.301 240.921 105.821 245.392 110.202C249.867 114.774 255.948 119.777 262.793 119.283C264.011 119.29 265.217 119.044 266.334 118.559C267.451 118.074 268.455 117.362 269.282 116.468C270.798 114.209 269.353 111.292 267.737 109.645C264.131 105.98 258.493 104.739 253.734 103.363C250.745 102.562 247.831 101.477 244.908 100.424C241.274 99.405 237.971 97.4499 235.329 94.7545C234.927 94.2419 235.472 93.3421 236.097 93.7794C242.271 97.8405 249.097 100.811 256.277 102.56C261.25 103.892 267.508 105.839 270.353 110.582C271.021 111.549 271.414 112.679 271.492 113.852C271.569 115.025 271.328 116.197 270.794 117.244C270.074 118.198 269.169 118.997 268.134 119.595C267.099 120.193 265.955 120.576 264.768 120.723C257.956 122.102 251.884 118.452 246.909 113.981C241.934 109.511 235.233 101.914 235.322 94.2801C235.414 93.9339 235.882 93.8232 235.955 94.1801L236.176 94.2392Z" fill="#231F20"/>
<path d="M261.486 113.333C255.989 111.926 250.817 109.463 246.259 106.082C244.04 104.442 241.969 102.612 240.068 100.612C238.135 98.8086 236.536 96.6787 235.345 94.3198C235.102 93.715 235.994 93.2795 236.422 93.6977C238.122 95.5362 239.355 97.857 241.121 99.578C243.006 101.661 245.083 103.561 247.324 105.254C251.635 108.552 256.475 111.093 261.638 112.767C261.722 112.789 261.793 112.844 261.836 112.918C261.879 112.993 261.891 113.082 261.868 113.166C261.846 113.249 261.791 113.32 261.717 113.364C261.642 113.407 261.553 113.419 261.469 113.396L261.486 113.333Z" fill="#231F20"/>
<path d="M279.831 95.4792C280.958 101.244 283.596 106.607 287.473 111.02C291.252 115.676 296.754 121.704 303.281 121.766C308.314 121.867 314.349 116.467 310.757 111.491C307.166 106.514 300.842 106.574 295.903 105.115C292.9 104.125 289.956 102.965 287.085 101.64C283.932 100.444 281.142 98.4529 278.986 95.8602C278.538 95.2678 279.456 94.7379 279.955 95.1414C285.719 99.6133 292.391 102.771 299.503 104.394C304.507 105.734 311.612 107.166 313.31 112.917C314.827 118.08 309.64 122.458 305.003 123.273C298.455 124.42 292.32 118.863 288.325 114.385C283.919 109.427 278.691 102.629 279.291 95.6045C279.384 95.2583 279.86 95.1161 279.925 95.5045L279.831 95.4792Z" fill="#231F20"/>
<path d="M304.098 115.947C298.79 114.273 293.85 111.598 289.546 108.068C287.351 106.303 285.325 104.338 283.496 102.196C281.617 100.267 280.095 98.0205 278.999 95.5605C278.969 95.425 278.983 95.2833 279.038 95.156C279.094 95.0288 279.189 94.9227 279.309 94.8533C279.43 94.7838 279.569 94.7546 279.707 94.7699C279.845 94.7852 279.975 94.8443 280.077 94.9385C281.712 96.8945 282.916 99.0724 284.517 101.154C286.232 103.197 288.117 105.09 290.152 106.813C294.33 110.443 299.106 113.321 304.267 115.318C304.676 115.428 304.499 116.089 304.098 115.947Z" fill="#231F20"/>
<path d="M139.607 111.709C137.076 104.79 139.642 96.4712 142.273 89.9238C145.049 82.8646 149.632 76.6591 155.562 71.9293C159.848 68.5238 166.371 68.349 168.851 74.0735C171.895 81.0957 165.019 86.236 160.686 90.5734C153.741 97.4829 145.611 103.4 140.457 111.937C140.391 112.06 140.285 112.157 140.157 112.212C140.029 112.268 139.886 112.278 139.751 112.242C139.616 112.206 139.497 112.125 139.414 112.013C139.331 111.901 139.288 111.764 139.292 111.625C141.502 105.268 147.52 100.808 152.327 96.4633C155.279 93.881 158.079 90.9879 160.915 88.2061C163.752 85.4243 166.752 83.2934 167.631 79.8859C168.017 78.5995 168.028 77.2299 167.663 75.9375C167.298 74.6451 166.573 73.4832 165.573 72.5878C164.431 71.7187 163.034 71.2508 161.599 71.2567C160.164 71.2626 158.771 71.7419 157.637 72.6202C151.831 76.7151 147.268 82.3324 144.449 88.8539C140.87 95.939 139.392 103.9 140.19 111.798C140.212 111.884 140.198 111.975 140.153 112.052C140.107 112.128 140.033 112.183 139.946 112.205C139.86 112.226 139.769 112.213 139.692 112.167C139.616 112.121 139.561 112.047 139.539 111.961L139.607 111.709Z" fill="#231F20"/>
<path d="M157.126 81.8275C152.967 85.7888 149.46 90.3817 146.733 95.4367C145.334 98.0104 144.142 100.691 143.168 103.454C142.222 106.102 141.709 108.899 140.669 111.521C140.543 111.994 139.808 111.965 139.819 111.294C139.929 108.413 140.563 105.577 141.691 102.924C142.687 100.114 143.934 97.4002 145.416 94.8139C148.408 89.6574 152.318 85.0918 156.953 81.3425C157.169 81.1643 157.488 81.4858 157.263 81.6955L157.126 81.8275Z" fill="#231F20"/>
<path d="M187.85 99.1008C185.22 91.9195 188.068 83.305 190.822 76.5541C193.575 69.8033 197.232 62.4512 203.657 58.7418C205.764 57.3259 208.339 56.7853 210.838 57.2344C213.336 57.6836 215.562 59.0873 217.044 61.1484C220.819 67.4558 213.899 72.8878 210.039 76.8458C206.178 80.8038 202.501 84.2038 198.576 87.7735C194.752 91.1313 191.436 95.0264 188.731 99.3369C188.665 99.46 188.56 99.5572 188.431 99.6127C188.303 99.6682 188.16 99.6788 188.025 99.6426C187.89 99.6065 187.772 99.5258 187.688 99.4136C187.605 99.3015 187.562 99.1645 187.567 99.0249C189.883 92.3932 196.29 87.8694 201.308 83.2432C204.519 80.3254 207.534 77.2542 210.487 74.1661C213.213 72.1654 215.241 69.3567 216.281 66.1386C217.26 60.0929 210.257 57.7779 205.618 59.6046C199.522 62.0866 195.668 69.4196 193.04 75.3269C189.34 82.615 187.767 90.7975 188.501 98.9379C188.522 99.0242 188.509 99.1155 188.463 99.1918C188.417 99.2681 188.343 99.3231 188.257 99.3447C188.171 99.3663 188.079 99.3528 188.003 99.307C187.927 99.2613 187.872 99.1871 187.85 99.1008Z" fill="#231F20"/>
<path d="M208.466 67.8564C203.798 72.1645 199.7 77.0518 196.271 82.3995C194.607 84.9466 193.156 87.6265 191.932 90.412C190.69 93.2838 190.044 96.4502 188.662 99.217C188.593 99.3177 188.495 99.3946 188.381 99.4371C188.267 99.4796 188.143 99.4855 188.025 99.4539C187.907 99.4224 187.802 99.3551 187.725 99.2612C187.647 99.1674 187.601 99.0517 187.592 98.9302C187.897 95.9626 188.772 93.0818 190.169 90.4455C191.509 87.3644 193.125 84.4103 194.996 81.6193C198.675 76.3169 203.114 71.5847 208.171 67.5748C208.436 67.3421 208.863 67.7603 208.567 67.9845L208.466 67.8564Z" fill="#231F20"/>
<path d="M228.667 93.812C227.399 86.9619 231.513 79.6649 235.155 74.1303C238.176 68.6558 242.892 64.309 248.594 61.7421C252.871 60.2571 259.937 60.7 260.871 66.2799C261.839 72.6112 254.42 76.2565 250.174 79.1331C243.137 83.994 235.327 87.8382 229.506 94.2055C229.031 94.7191 228.278 93.8766 228.562 93.4467C231.36 88.2931 237.463 85.4082 242.199 82.4608C245.137 80.6844 247.961 78.7086 250.807 76.7726C253.798 75.2473 256.402 73.0613 258.423 70.3802C259.039 69.4957 259.359 68.4392 259.339 67.3616C259.319 66.284 258.959 65.2403 258.311 64.3795C257.277 63.5175 256.045 62.9272 254.726 62.662C253.407 62.3969 252.042 62.4654 250.756 62.8613C244.975 64.0445 240.662 69.0619 237.439 73.6629C232.933 79.4709 230.156 86.4314 229.426 93.7457C229.334 94.0919 228.826 94.2256 228.761 93.8373L228.667 93.812Z" fill="#231F20"/>
<path d="M250.926 70.1596C246.487 72.8582 242.453 76.1726 238.944 80.0036C235.565 83.9909 232.445 88.1915 229.604 92.5793C229.527 92.6567 229.426 92.7061 229.318 92.7196C229.21 92.7331 229.1 92.7099 229.006 92.6538C228.913 92.5976 228.84 92.5117 228.801 92.4098C228.762 92.3079 228.758 92.1958 228.79 92.0914C231.105 87.2516 234.226 82.8407 238.02 79.0475C241.582 75.1705 245.863 72.0215 250.624 69.7751C250.648 69.7615 250.674 69.7527 250.701 69.7491C250.728 69.7456 250.755 69.7473 250.782 69.7544C250.808 69.7614 250.833 69.7736 250.854 69.7902C250.876 69.8068 250.894 69.8274 250.907 69.851C250.921 69.8746 250.93 69.9006 250.933 69.9276C250.937 69.9546 250.935 69.9821 250.928 70.0084C250.921 70.0347 250.909 70.0593 250.892 70.0809C250.876 70.1025 250.855 70.1207 250.832 70.1343L250.926 70.1596Z" fill="#231F20"/>
<path d="M273.18 94.7432C272.853 87.9089 277.591 81.555 281.702 76.7871C285.813 72.0192 290.676 67.2165 296.84 65.8659C301.322 64.8743 309.178 66.2711 309.102 72.2213C308.939 73.5495 308.474 74.8226 307.741 75.9422C307.008 77.0618 306.028 77.9981 304.876 78.6786C301.695 80.6379 298.363 82.3394 294.91 83.7669C287.705 87.3684 280.075 89.9115 273.887 95.0001C273.406 95.4109 272.475 94.8578 272.935 94.2728C276.244 89.7285 282.159 87.6703 287.088 85.5164C290.177 84.1853 293.174 82.6945 296.171 81.2036C299.088 79.9931 301.869 78.4767 304.467 76.68C306.902 74.7688 308.878 71.4192 306.101 68.8196C303.982 67.2061 301.314 66.4912 298.673 66.8294C292.831 67.3555 287.879 71.8643 284.102 76.0134C279.014 81.1389 275.445 87.5733 273.791 94.6033C273.69 94.981 273.147 94.8691 273.162 94.4346L273.18 94.7432Z" fill="#231F20"/>
<path d="M299.76 74.1029C294.537 75.8988 289.646 78.5429 285.283 81.9291C283.221 83.5135 281.279 85.2482 279.473 87.1189C277.63 89.0875 276.169 91.3945 274.42 93.3885C273.937 93.9336 273.287 93.0849 273.5 92.6695C274.769 90.1867 276.444 87.9336 278.457 86.0032C280.35 83.9663 282.438 82.1193 284.691 80.4885C289.205 77.1907 294.304 74.7796 299.717 73.383C300.082 73.2785 300.207 73.818 299.865 73.9624L299.76 74.1029Z" fill="#231F20"/>
<path d="M334.616 105.031C330.348 103.213 325.845 102.007 321.24 101.447C318.852 101.043 316.407 100.726 313.969 100.511C311.768 100.411 309.574 100.194 307.396 99.8628C307.05 99.77 307.013 99.1529 307.401 99.0883C309.724 98.8601 312.066 98.9101 314.377 99.2373C316.745 99.4668 319.118 99.7991 321.435 100.217C326.125 100.877 330.702 102.183 335.035 104.098C335.685 104.441 335.124 105.403 334.473 105.06L334.616 105.031Z" fill="#231F20"/>
</svg>
