<svg width="351" height="293" viewBox="0 0 351 293" fill="none" xmlns="http://www.w3.org/2000/svg">
<path d="M43.0082 99.3604C87.3939 92.4843 132.681 94.0853 176.47 104.078C197.424 108.884 217.776 116.012 237.149 125.33C256.303 134.65 273.794 147.058 288.919 162.057C306.07 178.983 320.387 198.422 334.927 217.565C335.953 218.876 338.311 217.603 337.26 216.198C324.912 198.222 311.316 181.136 296.573 165.066C281.839 149.382 264.637 136.216 245.65 126.088C206.427 105.598 162.324 95.2192 118.327 93.0429C93.0233 91.7084 67.6519 93.521 42.7951 98.4392C42.1972 98.5994 42.4563 99.4408 43.0397 99.3519L43.0082 99.3604Z" fill="#231F20"/>
<path d="M43.5319 98.5464C37.7622 97.073 31.8667 96.1454 25.9233 95.776C23.0698 95.6815 20.2154 95.9366 17.4238 96.5355C14.6325 96.9196 11.9984 98.0568 9.80471 99.8251C9.15748 100.344 8.64253 101.009 8.30214 101.765C7.96174 102.522 7.8056 103.348 7.84654 104.177C7.88748 105.005 8.12432 105.812 8.53763 106.532C8.95093 107.251 9.52892 107.862 10.2241 108.315C14.4087 111.342 19.0391 109.866 23.3104 108.181C26.6566 106.947 29.8955 105.439 33.1427 103.961C36.39 102.484 40.3027 101.098 43.7512 99.3647C44.5065 99.1623 43.9197 98.1052 43.2334 98.1879C40.6376 98.7053 38.1237 99.5718 35.7604 100.764C33.1864 101.858 30.686 103.102 28.1373 104.291C25.5251 105.531 22.8438 106.622 20.1068 107.555C18.1247 108.387 15.9486 108.642 13.8279 108.293C10.2336 107.469 7.64801 104.114 10.6939 101.004C12.7767 99.2663 15.3152 98.1645 18.0068 97.8298C20.5949 97.317 23.2277 97.0635 25.8661 97.0732C31.7169 97.3374 37.5403 98.032 43.2892 99.1512C43.6668 99.05 43.9349 98.5396 43.4751 98.4604L43.5319 98.5464Z" fill="#231F20"/>
<path d="M260.228 136.182C265.236 130.826 266.072 122.236 266.088 115.249C266.253 107.683 265.247 98.1361 260.236 92.0239C256.871 87.8994 249.545 83.7231 245.524 89.4893C242.174 94.2325 246.04 101.36 247.912 105.952C249.783 110.544 251.949 115.732 254.188 120.563C256.651 125.447 258.359 130.676 259.254 136.072C259.44 136.764 260.432 136.566 260.461 135.917C260.928 128.472 256.256 121.358 253.348 114.784C251.5 110.658 249.81 106.489 248.151 102.312C247.126 100.057 246.387 97.6825 245.953 95.2438C245.61 93.9086 245.75 92.4949 246.35 91.2535C246.95 90.0121 247.97 89.0234 249.23 88.4627C252.301 87.3361 255.626 89.5485 257.732 91.6155C263.164 96.9065 264.392 106.023 264.579 113.393C265.061 121.206 263.338 128.996 259.607 135.876C259.553 135.944 259.529 136.031 259.539 136.116C259.55 136.202 259.594 136.28 259.662 136.334C259.73 136.387 259.816 136.411 259.902 136.401C259.988 136.391 260.066 136.347 260.119 136.279L260.228 136.182Z" fill="#231F20"/>
<path d="M252.44 98.4306C255.754 104.058 258.077 110.214 259.306 116.628C260.364 123.021 260.415 129.541 259.458 135.95C259.389 136.575 260.355 136.654 260.511 136.106C264.148 123.494 259.941 108.801 252.996 98.113C252.999 98.0616 252.99 98.0102 252.969 97.9631C252.948 97.916 252.916 97.8745 252.876 97.842C252.836 97.8095 252.789 97.787 252.739 97.7762C252.688 97.7655 252.636 97.7668 252.586 97.7802C252.537 97.7935 252.491 97.8184 252.452 97.8529C252.414 97.8874 252.385 97.9305 252.366 97.9786C252.348 98.0268 252.341 98.0785 252.347 98.1298C252.352 98.181 252.37 98.2302 252.398 98.2733L252.44 98.4306Z" fill="#231F20"/>
<path d="M291.818 161.922C296.864 155.577 297.489 146.201 297.603 138.446C297.723 130.081 297.58 120.607 293.289 113.155C291.496 109.956 288.651 107.476 285.236 106.138C283.763 105.44 282.083 105.318 280.525 105.798C278.968 106.278 277.647 107.324 276.823 108.73C275.722 111.578 275.578 114.706 276.411 117.644C277.34 121.53 278.553 125.343 280.041 129.051C283.946 139.845 289.426 150.352 290.986 161.841C291.172 162.534 292.164 162.335 292.193 161.686C292.596 153.246 287.774 145.195 284.942 137.52C283.167 133.037 281.468 128.332 279.876 123.901C278.866 121.267 278.134 118.535 277.691 115.749C277.257 112.492 277.386 107.432 281.791 107.128C283.722 107.26 285.592 107.86 287.239 108.876C288.887 109.892 290.262 111.294 291.247 112.96C295.698 119.627 296.061 128.537 296.056 136.195C296.572 144.899 294.941 153.595 291.305 161.52C291.121 161.839 291.499 162.243 291.818 161.922Z" fill="#231F20"/>
<path d="M286.622 118.99C289.456 126.476 291.239 134.319 291.922 142.295C292.111 145.602 292.098 148.918 291.884 152.223C291.77 153.94 291.625 155.666 291.378 157.385C291.067 158.674 290.877 159.99 290.811 161.315C290.818 161.474 290.875 161.628 290.975 161.752C291.074 161.877 291.211 161.967 291.365 162.008C291.52 162.05 291.683 162.041 291.832 161.983C291.981 161.925 292.107 161.821 292.193 161.686C293.319 158.885 293.823 155.872 293.673 152.857C293.842 149.198 293.772 145.532 293.464 141.882C292.737 133.818 290.626 125.939 287.224 118.592C287.139 118.278 286.598 118.524 286.689 118.736L286.622 118.99Z" fill="#231F20"/>
<path d="M316.572 188.718C324.435 183.947 327.984 173.652 330.205 165.197C332.426 156.742 333.825 147.361 329.49 139.617C326.882 134.918 317.892 127.174 312.952 133.288C309.19 138.006 310.289 145.504 311.116 150.983C312.11 157.463 313.14 163.698 314.463 170.022C315.929 176.039 316.376 182.259 315.784 188.423C315.701 189.12 316.77 189.205 316.973 188.577C319.659 180.099 316.07 170.604 314.569 162.235C313.678 157.144 312.666 151.985 312.097 146.841C311.803 144.236 311.881 141.603 312.329 139.02C312.757 136.713 313.677 133.599 316.272 132.836C320.143 131.799 324.818 135.775 326.912 138.554C332.1 145.327 330.988 154.901 329.222 162.661C327.088 172.07 323.551 181.654 316.16 188.188C315.856 188.438 316.345 188.88 316.572 188.718Z" fill="#231F20"/>
<path d="M319.819 144.94C321.514 152.257 321.975 159.807 321.183 167.276C320.834 170.969 320.165 174.624 319.185 178.201C318.266 181.821 316.666 184.914 315.522 188.324C315.282 189.063 316.315 189.394 316.669 188.827C318.463 185.736 319.761 182.383 320.517 178.89C321.507 175.2 322.179 171.431 322.524 167.625C323.236 159.944 322.532 152.198 320.449 144.771C320.426 144.688 320.372 144.616 320.297 144.573C320.222 144.53 320.133 144.518 320.049 144.541C319.966 144.563 319.895 144.618 319.852 144.692C319.808 144.767 319.797 144.856 319.819 144.94Z" fill="#231F20"/>
<path d="M308.731 182.116C302.416 188.761 294.218 193.312 285.239 195.157C278.221 197.038 269.959 198.307 263.132 195.11C258.732 192.916 249.954 183.698 256.739 179.687C261.937 176.675 269.037 178.247 274.537 179.135C280.037 180.022 286.524 181.32 292.52 182.547C297.976 184.103 303.737 184.254 309.267 182.985C309.39 182.919 309.487 182.813 309.543 182.685C309.598 182.557 309.609 182.413 309.573 182.279C309.537 182.144 309.456 182.025 309.344 181.942C309.232 181.858 309.095 181.816 308.955 181.82C302.7 182.45 296.384 181.973 290.295 180.411C284.099 179.069 277.854 178.044 271.594 177.09C266.316 176.278 259.433 175.39 254.828 178.85C248.944 183.327 254.945 191.873 259.406 194.928C265.95 199.584 274.729 198.986 282.194 197.39C291.763 195.332 303.942 191.563 309.109 182.521C309.302 182.233 308.924 181.828 308.605 182.15L308.731 182.116Z" fill="#231F20"/>
<path d="M265.937 186.566C273.24 188.669 280.878 189.359 288.441 188.598C292.028 188.261 295.579 187.614 299.055 186.665C302.666 185.871 306.126 184.499 309.301 182.604C309.84 182.223 309.53 181.193 308.98 181.408C305.892 182.472 302.741 184.058 299.462 185.038C295.749 186.112 291.942 186.827 288.093 187.173C280.734 187.991 273.29 187.544 266.083 185.852C265.677 185.725 265.514 186.376 265.911 186.472L265.937 186.566Z" fill="#231F20"/>
<path d="M281.89 153.45C277.449 160.122 271.135 165.334 263.743 168.432C257.752 171.252 250.595 173.878 243.959 172.148C239.609 171.02 230.307 164 236.316 159.488C240.758 156.173 247.238 156.562 252.373 156.468C257.509 156.373 262.807 156.506 268.033 156.623C272.96 157.085 277.923 156.266 282.441 154.247C282.591 154.206 282.72 154.108 282.797 153.973C282.875 153.839 282.896 153.679 282.856 153.528C282.816 153.378 282.717 153.25 282.583 153.172C282.448 153.095 282.288 153.073 282.138 153.114C276.926 154.571 271.509 155.156 266.106 154.846C260.532 154.686 255.016 154.748 249.463 154.92C244.509 155.067 237.913 155.249 234.329 159.245C229.828 164.229 236.769 170.87 241.321 172.753C247.867 175.655 255.406 173.702 261.716 171.067C269.69 167.716 279.647 162.45 282.772 153.72C282.885 153.386 282.352 153.158 282.167 153.477L281.89 153.45Z" fill="#231F20"/>
<path d="M245.154 164.272C251.905 164.942 258.723 164.328 265.246 162.464C268.4 161.558 271.472 160.385 274.427 158.958C277.432 157.723 280.206 155.987 282.631 153.825C282.725 153.711 282.778 153.569 282.78 153.421C282.783 153.274 282.735 153.13 282.645 153.013C282.555 152.896 282.428 152.813 282.284 152.778C282.141 152.742 281.99 152.757 281.856 152.819C279.146 154.287 276.72 156.185 273.953 157.567C270.959 159.073 267.831 160.295 264.609 161.218C258.356 163.109 251.823 163.9 245.3 163.558C244.891 163.668 244.86 164.182 245.28 164.238L245.154 164.272Z" fill="#231F20"/>
<path d="M250.055 130.946C246.041 136.816 240.418 141.403 233.861 144.157C228.623 146.64 222.332 148.967 216.468 147.603C212.651 146.703 203.94 140.503 209.253 136.414C213.162 133.377 219.073 133.783 223.655 133.635C228.236 133.487 233.259 133.726 238.066 133.788C242.374 134.174 246.709 133.431 250.644 131.632C250.767 131.566 250.864 131.46 250.919 131.332C250.975 131.204 250.985 131.061 250.949 130.926C250.913 130.791 250.832 130.672 250.72 130.589C250.608 130.506 250.471 130.463 250.332 130.467C245.478 131.777 240.445 132.294 235.427 131.998C230.398 131.862 225.294 131.947 220.309 132.102C216.059 132.229 210.311 132.555 207.282 136.234C203.644 140.784 209.82 146.585 213.879 148.263C219.754 150.804 226.498 149.031 232.158 146.738C239.284 143.749 248.31 139.037 250.96 131.176C251.096 130.802 250.539 130.614 250.355 130.933L250.055 130.946Z" fill="#231F20"/>
<path d="M217.079 140.693C223.126 141.371 229.247 140.876 235.106 139.236C237.919 138.448 240.655 137.41 243.282 136.134C245.983 135.022 248.472 133.454 250.641 131.497C250.735 131.383 250.788 131.241 250.79 131.093C250.793 130.946 250.745 130.802 250.655 130.685C250.565 130.568 250.438 130.485 250.294 130.45C250.151 130.414 250 130.429 249.866 130.491C247.445 131.78 245.277 133.508 242.808 134.743C240.138 136.091 237.35 137.189 234.477 138.021C228.851 139.714 222.979 140.443 217.11 140.178C216.701 140.288 216.701 140.794 217.27 140.776L217.079 140.693Z" fill="#231F20"/>
<path d="M200.934 108.891C198.256 114.613 194.074 119.5 188.834 123.029C183.642 126.815 177.367 130.588 170.608 130.544C165.747 130.531 159.581 127.157 162.387 121.514C163.65 119.297 165.73 117.663 168.182 116.959C171.826 116.018 175.53 115.329 179.268 114.899C183.281 114.263 187.337 113.918 191.35 113.281C195.031 112.911 198.56 111.617 201.608 109.52C202.194 109.06 201.288 108.324 200.873 108.537C193.046 112.186 184.324 112.364 175.978 113.824C170.281 114.845 162.719 115.454 160.504 121.917C158.77 126.902 162.857 130.698 167.293 131.769C174.431 133.23 181.574 129.798 187.272 126.011C192.97 122.225 200.169 116.484 201.516 109.174C201.431 108.859 201.047 108.558 200.903 108.9L200.934 108.891Z" fill="#231F20"/>
<path d="M169.802 123.507C175.826 123.23 181.741 121.805 187.23 119.31C189.995 118.064 192.644 116.576 195.146 114.861C197.652 113.348 199.872 111.406 201.704 109.123C202.044 108.628 201.376 107.896 200.837 108.277C198.517 109.944 196.585 112.047 194.225 113.691C191.948 115.274 189.548 116.673 187.048 117.874C181.639 120.52 175.804 122.186 169.814 122.796C169.405 122.905 169.359 123.491 169.794 123.476L169.802 123.507Z" fill="#231F20"/>
<path d="M155.38 98.2604C153.475 105.692 149.396 112.387 143.666 117.49C138.308 122.67 129.836 128.819 122.228 124.347C121.094 123.769 120.192 122.82 119.672 121.659C119.152 120.497 119.046 119.192 119.371 117.962C120.307 115.978 121.884 114.368 123.846 113.389C127.717 111.262 131.81 109.565 136.051 108.331C139.288 107.194 142.574 106.111 145.794 104.911C149.695 103.782 153.241 101.67 156.092 98.778C156.503 98.2969 155.95 97.3656 155.325 97.803C148.837 102.036 141.716 105.208 134.23 107.2C129.284 108.517 124.617 110.716 120.453 113.691C119.5 114.337 118.719 115.208 118.181 116.226C117.643 117.244 117.362 118.378 117.364 119.53C117.367 120.681 117.651 121.815 118.194 122.831C118.736 123.847 119.519 124.714 120.475 125.357C127.292 130.277 135.718 126.096 141.308 121.529C144.984 118.498 148.241 114.993 150.996 111.107C153.912 107.477 155.609 103.021 155.848 98.3711C155.756 98.0249 155.288 97.9142 155.214 98.2711L155.38 98.2604Z" fill="#231F20"/>
<path d="M127.876 118.989C133.753 117.461 139.287 114.834 144.186 111.246C146.514 109.525 148.699 107.62 150.721 105.548C152.913 103.526 154.751 101.153 156.159 98.5247C156.402 97.9199 155.788 97.1399 155.142 97.7514C153.319 99.758 151.863 102.003 150.104 104.127C148.015 106.345 145.738 108.377 143.299 110.201C138.608 113.771 133.343 116.517 127.731 118.32C127.321 118.429 127.499 119.09 127.908 118.98L127.876 118.989Z" fill="#231F20"/>
<path d="M113.992 94.2392C112.433 100.301 109.246 105.821 104.776 110.202C100.3 114.774 94.2198 119.777 87.3748 119.283C86.157 119.29 84.951 119.044 83.8337 118.559C82.7165 118.074 81.7126 117.362 80.8859 116.468C79.3699 114.209 80.8147 111.292 82.4309 109.645C86.0366 105.98 91.6747 104.739 96.4333 103.363C99.4232 102.562 102.337 101.477 105.26 100.424C108.894 99.405 112.197 97.4499 114.838 94.7545C115.241 94.2419 114.696 93.3421 114.071 93.7794C107.897 97.8405 101.071 100.811 93.8906 102.56C88.9179 103.892 82.6593 105.839 79.8147 110.582C79.1472 111.549 78.7537 112.679 78.6761 113.852C78.5984 115.025 78.8394 116.197 79.3736 117.244C80.0939 118.198 80.9985 118.997 82.0336 119.595C83.0687 120.193 84.2132 120.576 85.3994 120.723C92.2118 122.102 98.2837 118.452 103.259 113.981C108.234 109.511 114.935 101.914 114.846 94.2801C114.754 93.9339 114.285 93.8232 114.212 94.1801L113.992 94.2392Z" fill="#231F20"/>
<path d="M88.6814 113.333C94.1789 111.926 99.3505 109.463 103.908 106.082C106.127 104.442 108.199 102.612 110.1 100.612C112.032 98.8086 113.631 96.6787 114.823 94.3198C115.066 93.715 114.173 93.2795 113.746 93.6977C112.046 95.5362 110.812 97.857 109.047 99.578C107.162 101.661 105.085 103.561 102.843 105.254C98.5328 108.552 93.6925 111.093 88.5296 112.767C88.4461 112.789 88.375 112.844 88.3318 112.918C88.2886 112.993 88.2768 113.082 88.2992 113.166C88.3216 113.249 88.3762 113.32 88.451 113.364C88.5259 113.407 88.6148 113.419 88.6983 113.396L88.6814 113.333Z" fill="#231F20"/>
<path d="M70.3371 95.4792C69.2093 101.244 66.5722 106.607 62.6948 111.02C58.9161 115.676 53.4138 121.704 46.8864 121.766C41.8535 121.867 35.8191 116.467 39.4106 111.491C43.0021 106.514 49.326 106.574 54.265 105.115C57.2677 104.125 60.2116 102.965 63.0824 101.64C66.2353 100.444 69.0252 98.4529 71.1813 95.8602C71.6297 95.2678 70.7119 94.7379 70.2128 95.1414C64.4489 99.6133 57.7771 102.771 50.6646 104.394C45.6604 105.734 38.5554 107.166 36.858 112.917C35.3404 118.08 40.5277 122.458 45.1651 123.273C51.7128 124.42 57.8474 118.863 61.8425 114.385C66.2484 109.427 71.4769 102.629 70.8766 95.6045C70.7839 95.2583 70.3072 95.1161 70.2426 95.5045L70.3371 95.4792Z" fill="#231F20"/>
<path d="M46.0693 115.947C51.3781 114.273 56.3176 111.598 60.6217 108.068C62.8171 106.303 64.8426 104.338 66.672 102.196C68.5507 100.267 70.073 98.0205 71.1683 95.5605C71.1987 95.425 71.1851 95.2833 71.1293 95.156C71.0736 95.0288 70.9786 94.9227 70.8583 94.8533C70.738 94.7838 70.5986 94.7546 70.4606 94.7699C70.3225 94.7852 70.1929 94.8443 70.0908 94.9385C68.456 96.8945 67.2518 99.0724 65.6508 101.154C63.9362 103.197 62.0511 105.09 60.0158 106.813C55.8382 110.443 51.0623 113.321 45.9006 115.318C45.4915 115.428 45.6685 116.089 46.0693 115.947Z" fill="#231F20"/>
<path d="M210.561 111.709C213.092 104.79 210.526 96.4712 207.894 89.9238C205.119 82.8646 200.536 76.6591 194.606 71.9293C190.32 68.5238 183.797 68.349 181.316 74.0735C178.273 81.0957 185.149 86.236 189.482 90.5734C196.427 97.4829 204.557 103.4 209.711 111.937C209.777 112.06 209.883 112.157 210.011 112.212C210.139 112.268 210.282 112.278 210.417 112.242C210.552 112.206 210.671 112.125 210.754 112.013C210.837 111.901 210.88 111.764 210.876 111.625C208.666 105.268 202.648 100.808 197.84 96.4633C194.888 93.881 192.089 90.9879 189.252 88.2061C186.416 85.4243 183.416 83.2934 182.536 79.8859C182.151 78.5995 182.14 77.2299 182.505 75.9375C182.869 74.6451 183.594 73.4832 184.595 72.5878C185.737 71.7187 187.134 71.2508 188.569 71.2567C190.003 71.2626 191.396 71.7419 192.531 72.6202C198.337 76.7151 202.9 82.3324 205.719 88.8539C209.298 95.939 210.775 103.9 209.977 111.798C209.956 111.884 209.969 111.975 210.015 112.052C210.061 112.128 210.135 112.183 210.221 112.205C210.308 112.226 210.399 112.213 210.475 112.167C210.552 112.121 210.607 112.047 210.628 111.961L210.561 111.709Z" fill="#231F20"/>
<path d="M193.041 81.8275C197.2 85.7888 200.708 90.3817 203.435 95.4367C204.834 98.0104 206.026 100.691 207 103.454C207.945 106.102 208.459 108.899 209.499 111.521C209.625 111.994 210.36 111.965 210.348 111.294C210.239 108.413 209.605 105.577 208.477 102.924C207.48 100.114 206.234 97.4002 204.752 94.8139C201.76 89.6574 197.85 85.0918 193.215 81.3425C192.999 81.1643 192.68 81.4858 192.905 81.6955L193.041 81.8275Z" fill="#231F20"/>
<path d="M162.318 99.1008C164.947 91.9195 162.099 83.305 159.346 76.5541C156.593 69.8033 152.936 62.4512 146.511 58.7418C144.404 57.3259 141.829 56.7853 139.33 57.2344C136.831 57.6836 134.605 59.0873 133.123 61.1484C129.349 67.4558 136.269 72.8878 140.129 76.8458C143.989 80.8038 147.667 84.2038 151.592 87.7735C155.415 91.1313 158.732 95.0264 161.436 99.3369C161.502 99.46 161.608 99.5572 161.736 99.6127C161.864 99.6682 162.007 99.6788 162.142 99.6426C162.277 99.6065 162.396 99.5258 162.479 99.4136C162.563 99.3015 162.605 99.1645 162.601 99.0249C160.284 92.3932 153.877 87.8694 148.86 83.2432C145.649 80.3254 142.634 77.2542 139.681 74.1661C136.954 72.1654 134.927 69.3567 133.887 66.1386C132.908 60.0929 139.911 57.7779 144.55 59.6046C150.646 62.0866 154.5 69.4196 157.128 75.3269C160.828 82.615 162.401 90.7975 161.667 98.9379C161.645 99.0242 161.659 99.1155 161.705 99.1918C161.75 99.2681 161.824 99.3231 161.911 99.3447C161.997 99.3663 162.088 99.3528 162.165 99.307C162.241 99.2613 162.296 99.1871 162.318 99.1008Z" fill="#231F20"/>
<path d="M141.701 67.8564C146.369 72.1645 150.468 77.0518 153.896 82.3995C155.56 84.9466 157.012 87.6265 158.236 90.412C159.478 93.2838 160.124 96.4502 161.506 99.217C161.574 99.3177 161.672 99.3946 161.787 99.4371C161.901 99.4796 162.025 99.4855 162.143 99.4539C162.26 99.4224 162.365 99.3551 162.443 99.2612C162.521 99.1674 162.567 99.0517 162.576 98.9302C162.27 95.9626 161.395 93.0818 159.999 90.4455C158.658 87.3644 157.043 84.4103 155.171 81.6193C151.493 76.3169 147.053 71.5847 141.997 67.5748C141.732 67.3421 141.304 67.7603 141.601 67.9845L141.701 67.8564Z" fill="#231F20"/>
<path d="M121.501 93.812C122.769 86.9619 118.655 79.6649 115.013 74.1303C111.991 68.6558 107.276 64.309 101.574 61.7421C97.2967 60.2571 90.2304 60.7 89.2967 66.2799C88.3283 72.6112 95.748 76.2565 99.9932 79.1331C107.03 83.994 114.841 87.8382 120.662 94.2055C121.137 94.7191 121.889 93.8766 121.606 93.4467C118.808 88.2931 112.705 85.4082 107.969 82.4608C105.03 80.6844 102.207 78.7086 99.3608 76.7726C96.3699 75.2473 93.7655 73.0613 91.7447 70.3802C91.1289 69.4957 90.8082 68.4392 90.8284 67.3616C90.8486 66.284 91.2087 65.2403 91.8572 64.3795C92.8904 63.5175 94.1225 62.9272 95.4416 62.662C96.7608 62.3969 98.1253 62.4654 99.4113 62.8613C105.193 64.0445 109.506 69.0619 112.729 73.6629C117.234 79.4709 120.011 86.4314 120.741 93.7457C120.834 94.0919 121.342 94.2256 121.407 93.8373L121.501 93.812Z" fill="#231F20"/>
<path d="M99.2417 70.1596C103.681 72.8582 107.715 76.1726 111.223 80.0036C114.603 83.9909 117.723 88.1915 120.564 92.5793C120.641 92.6567 120.741 92.7061 120.85 92.7196C120.958 92.7331 121.068 92.7099 121.161 92.6538C121.255 92.5976 121.327 92.5117 121.366 92.4098C121.406 92.3079 121.409 92.1958 121.377 92.0914C119.063 87.2516 115.942 82.8407 112.148 79.0475C108.586 75.1705 104.305 72.0215 99.5435 69.7751C99.5199 69.7615 99.4939 69.7527 99.4669 69.7491C99.4399 69.7456 99.4125 69.7473 99.3862 69.7544C99.3599 69.7614 99.3352 69.7736 99.3136 69.7902C99.292 69.8068 99.2739 69.8274 99.2603 69.851C99.2466 69.8746 99.2378 69.9006 99.2343 69.9276C99.2307 69.9546 99.2325 69.9821 99.2396 70.0084C99.2466 70.0347 99.2588 70.0593 99.2753 70.0809C99.2919 70.1025 99.3126 70.1207 99.3362 70.1343L99.2417 70.1596Z" fill="#231F20"/>
<path d="M76.9874 94.7432C77.315 87.9089 72.5766 81.555 68.4655 76.7871C64.3544 72.0192 59.4919 67.2165 53.328 65.8659C48.8457 64.8743 40.9893 66.2711 41.0657 72.2213C41.2283 73.5495 41.694 74.8226 42.4268 75.9422C43.1596 77.0618 44.14 77.9981 45.2921 78.6786C48.4728 80.6379 51.8052 82.3394 55.2573 83.7669C62.4628 87.3684 70.0931 89.9115 76.2804 95.0001C76.7615 95.4109 77.6927 94.8578 77.2324 94.2728C73.9233 89.7285 68.0084 87.6703 63.0798 85.5164C59.9907 84.1853 56.9939 82.6945 53.997 81.2036C51.0797 79.9931 48.2988 78.4767 45.7011 76.68C43.2662 74.7688 41.2893 71.4192 44.0672 68.8196C46.1854 67.2061 48.8536 66.4912 51.4947 66.8294C57.3365 67.3555 62.2889 71.8643 66.0656 76.0134C71.1534 81.1389 74.7223 87.5733 76.3764 94.6033C76.4776 94.981 77.0211 94.8691 77.0059 94.4346L76.9874 94.7432Z" fill="#231F20"/>
<path d="M50.408 74.1029C55.6307 75.8988 60.5218 78.5429 64.8848 81.9291C66.9465 83.5135 68.8883 85.2482 70.6944 87.1189C72.5374 89.0875 73.9989 91.3945 75.7476 93.3885C76.2309 93.9336 76.8806 93.0849 76.6681 92.6695C75.3987 90.1867 73.7232 87.9336 71.711 86.0032C69.8176 83.9663 67.7297 82.1193 65.4771 80.4885C60.9631 77.1907 55.8642 74.7796 50.4512 73.383C50.0858 73.2785 49.9606 73.818 50.3029 73.9624L50.408 74.1029Z" fill="#231F20"/>
<path d="M15.5515 105.031C19.8193 103.213 24.3224 102.007 28.9275 101.447C31.3155 101.043 33.7603 100.726 36.1989 100.511C38.3998 100.411 40.5938 100.194 42.7718 99.8628C43.118 99.77 43.155 99.1529 42.7667 99.0883C40.4436 98.8601 38.1015 98.9101 35.7902 99.2373C33.423 99.4668 31.0496 99.7991 28.7329 100.217C24.0423 100.877 19.4655 102.183 15.1327 104.098C14.4825 104.441 15.044 105.403 15.6943 105.06L15.5515 105.031Z" fill="#231F20"/>
</svg>
